<ttFont>
          <CharString index="0">
            -69 hlineto
            -29 -1 -12 -14 -13 -15 6 6 -18 vhcurveto
            8 -22 -27 9 -27 hhcurveto
            -64 -3 -43 -80 hvcurveto
            69 hlineto
            29 1 12 15 13 15 -7 -6 18 vhcurveto
            -8 23 27 -9 26 hhcurveto
            63 3 43 81 hvcurveto
            return
          </CharString>
          <CharString index="1">
            120 385 hlineto
            238 -5 73 -169 -169 -5 -73 -238 vhcurveto
            -385 120 203 108 vlineto
            229 vmoveto
            -120 -108 120 vlineto
            141 3 14 51 51 3 -14 -141 vhcurveto
            return
          </CharString>
          <CharString index="2">
            -104 callgsubr
            -57 callgsubr
            return
          </CharString>
          <CharString index="3">
            rmoveto
            175 5 78 274 275 -5 77 -175 -174 -5 -77 -275 -274 5 -78 174 -42 callgsubr
            -53 -6 6 237 237 6 6 53 54 5 -6 -237 -237 -5 -6 -54 hvcurveto
            return
          </CharString>
          <CharString index="4">
            122 hlineto
            -114 688 rlineto
            -178 hlineto
            -113 -688 rlineto
            119 hlineto
            23 151 rlineto
            118 hlineto
            -56 413 rmoveto
            44 -307 rlineto
            -94 hlineto
            44 307 rlineto
            return
          </CharString>
          <CharString index="5">
            -256 hlineto
            -129 0 -31 -46 -40 -5 8 123 vhcurveto
            285 -113 -339 -23 callgsubr
            14 -50 87 44 39 17 53 15 vhcurveto
            7 hlineto
            return
          </CharString>
          <CharString index="6">
            -141 -2 -14 -52 -51 -3 14 141 vhcurveto
            432 -120 -385 vlineto
            -238 5 -73 169 169 5 73 238 vhcurveto
            return
          </CharString>
          <CharString index="7">
            rmoveto
            161 9 83 183 hvcurveto
            447 -107 vlineto
            -4 -61 rlineto
            -7 hlineto
            55 -13 -40 14 -36 hhcurveto
            -89 -26 -50 -207 -199 21 -60 92 49 28 21 43 12 hvcurveto
            7 -38 hlineto
            -117 -5 -18 -78 -34 -36 0 1 -32 vhcurveto
            -89 vlineto
            -5 35 50 -3 43 hhcurveto
            9 307 20 callsubr
            149 147 5 8 43 25 14 -8 -40 5 hvcurveto
            4 -22 0 -35 -50 vvcurveto
            -58 0 -36 -5 -23 vhcurveto
            -32 -5 -15 callgsubr
          </CharString>
          <CharString index="8">
            -98 callgsubr
            endchar
          </CharString>
          <CharString index="9">
            rmoveto
            110 58 33 188 51 -4 36 -7 23 hvcurveto
            -18 54 -33 12 -33 7 -69 16 rcurveline
            -35 7 -4 11 66 vvcurveto
            35 1 23 12 14 vhcurveto
            14 11 21 5 43 hhcurveto
            45 39 -5 -2 9 hvcurveto
            100 vlineto
            3 -7 -51 13 -70 hhcurveto
            -109 -65 -36 -168 -102 12 -67 54 -11 hvcurveto
            80 -17 rlineto
            54 -12 4 -9 -82 vvcurveto
            -36 -3 -25 -11 -13 vhcurveto
            -14 -12 -20 -3 -35 hhcurveto
            -26 -45 3 4 -42 hvcurveto
            -99 vlineto
            -10 39 60 -7 47 hhcurveto
            return
          </CharString>
          <CharString index="10">
            rmoveto
            115 hlineto
            68 119 rlineto
            8 -79 vlineto
            -47 -71 -45 71 rlineto
            -79 -8 hlineto
            return
          </CharString>
          <CharString index="11">
            rmoveto
            94 50 38 126 118 -37 18 -40 7 hvcurveto
            -61 12 rlineto
            -26 5 -4 4 48 vvcurveto
            43 15 11 41 26 38 -4 -5 26 vhcurveto
            89 vlineto
            10 -26 -47 6 -39 hhcurveto
            -93 -54 -40 -114 -98 18 -37 45 -8 hvcurveto
            71 -14 rlineto
            30 -6 6 -3 -52 vvcurveto
            -44 -17 -14 -48 -28 -42 4 4 -25 vhcurveto
            -88 vlineto
            -9 31 54 -7 42 hhcurveto
            return
          </CharString>
          <CharString index="12">
            rmoveto
            4 vlineto
            -29 113 rlineto
            -92 -5 hlineto
            44 -112 rlineto
            200 hmoveto
            4 vlineto
            -28 113 rlineto
            -93 -5 hlineto
            45 -112 rlineto
            return
          </CharString>
          <CharString index="13">
            rmoveto
            -186 vlineto
            -2 -8 -15 -2 -18 hhcurveto
            -66 -6 28 218 239 15 4 99 20 20 callgsubr
            hvcurveto
            101 vlineto
            11 -38 -59 8 -42 hhcurveto
            -163 -37 -63 -289 -289 34 -63 154 51 62 8 13 39 hvcurveto
            381 -160 -106 vlineto
            return
          </CharString>
          <CharString index="14">
            274 109 -153 184 134 109 -134 177 153 109 -274 hlineto
            return
          </CharString>
          <CharString index="15">
            rmoveto
            -229 vlineto
            -141 -3 -14 -51 -51 -3 14 141 vhcurveto
            229 -120 -183 vlineto
            -204 4 -82 108 -19 vhcurveto
            -200 121 199 vlineto
            111 18 4 82 206 vvcurveto
            183 vlineto
            return
          </CharString>
          <CharString index="16">
            rmoveto
            124 121 -124 hlineto
            endchar
          </CharString>
          <CharString index="17">
            rmoveto
            92 5 hlineto
            -36 -38 callsubr
            -111 -5 hlineto
            return
          </CharString>
          <CharString index="18">
            -88 callsubr
            endchar
          </CharString>
          <CharString index="19">
            rmoveto
            -36 vlineto
            -40 -8 -15 -42 vhcurveto
            -5 hlineto
            6 -21 -25 2 -31 18 callsubr
            -211 14 -52 147 148 14 52 211 101 -3 64 -20 40 hvcurveto
            58 11 9 33 76 vvcurveto
            21 vlineto
            -206 -513 rmoveto
            -46 -2 13 154 153 2 14 46 47 2 -14 -153 -154 -2 -13 -47 hvcurveto
            return
          </CharString>
          <CharString index="20">
            rmoveto
            -112 hlineto
            -55 -378 rlineto
            -8 hlineto
            -59 378 rlineto
            -113 hlineto
            96 -510 rlineto
            43 hlineto
            -37 -194 rlineto
            112 hlineto
            37 194 rlineto
            return
          </CharString>
          <CharString index="21">
            rmoveto
            -15 callsubr
            -20 -24 -3 -19 hhcurveto
            -60 -9 13 154 151 9 16 59 18 24 -3 -3 19 hvcurveto
            90 vlineto
            8 -25 -34 4 -35 hhcurveto
            -121 -27 -69 -194 -181 18 -82 131 31 33 4 9 32 hvcurveto
            endchar
          </CharString>
          <CharString index="22">
            rmoveto
            99 97 -99 hlineto
            165 -97 rmoveto
            99 97 -99 hlineto
            return
          </CharString>
          <CharString index="23">
            121 246 hlineto
            134 442 rlineto
            -117 hlineto
            -69 -307 rlineto
            -10 hlineto
            -72 307 rlineto
            -5 callsubr
            134 -442 rlineto
            return
          </CharString>
          <CharString index="24">
            -73 272 rlineto
            52 35 6 72 88 vvcurveto
            141 -18 80 -138 vhcurveto
            -189 -688 121 245 55 hlineto
            2 hlineto
            58 -245 rlineto
            -67 351 rmoveto
            -48 228 48 hlineto
            51 5 -19 -95 -95 -6 -19 -50 hvcurveto
            endchar
          </CharString>
          <CharString index="25">
            168 hlineto
            78 688 rlineto
            -118 hlineto
            -42 -557 rlineto
            -7 hlineto
            -66 557 rlineto
            -147 hlineto
            -64 -557 rlineto
            -7 hlineto
            -44 557 rlineto
            -122 hlineto
            78 -688 rlineto
            168 hlineto
            59 502 rlineto
            6 hlineto
            endchar
          </CharString>
          <CharString index="26">
            284 96 -158 hlineto
            157 325 rlineto
            89 -278 -96 151 vlineto
            -156 -325 rlineto
            return
          </CharString>
          <CharString index="27">
            313 109 -185 hlineto
            184 478 rlineto
            101 -307 -109 178 vlineto
            -183 -477 rlineto
            return
          </CharString>
          <CharString index="28">
            -10 -3 rlineto
            -25 -8 -9 -13 -27 vvcurveto
            return
          </CharString>
          <CharString index="29">
            113 248 hlineto
            116 36 33 72 vhcurveto
            121 vlineto
            -52 -32 -20 -73 -18 hvcurveto
            -8 hlineto
            -4 85 rlineto
            -107 hlineto
            return
          </CharString>
          <CharString index="30">
            161 hlineto
            175 5 76 268 269 -5 75 -175 hvcurveto
            -161 hlineto
            119 -579 rmoveto
            470 42 vlineto
            55 6 -5 -230 -230 -6 -5 -55 hvcurveto
            return
          </CharString>
          <CharString index="31">
            rmoveto
            74 26 29 75 63 -17 22 -31 8 hvcurveto
            2 vlineto
            30 9 15 27 56 vvcurveto
            76 -30 21 -67 -23 -34 -4 -5 -26 vhcurveto
            -58 vlineto
            3 20 26 1 17 hhcurveto
            36 5 -5 -43 -42 -6 -8 -22 hvcurveto
            -45 -61 45 hlineto
            25 6 -8 -46 -44 -7 -6 -34 -15 -25 2 3 -26 hvcurveto
            -58 vlineto
            -5 22 35 -4 26 hhcurveto
            return
          </CharString>
          <CharString index="32">
            888 -100 callgsubr
            return
          </CharString>
          <CharString index="33">
            92 hlineto
            35 -50 callsubr
            -16 -140 rlineto
            return
          </CharString>
          <CharString index="34">
            743 -100 callgsubr
            return
          </CharString>
          <CharString index="35">
            rmoveto
            5 -111 vlineto
            -36 -140 rlineto
            -5 92 vlineto
            return
          </CharString>
          <CharString index="36">
            25 179 -8 -98 callsubr
            return
          </CharString>
          <CharString index="37">
            rmoveto
            -58 vlineto
            -5 23 35 -4 25 hhcurveto
            81 19 30 98 74 -14 40 -65 -16 -10 -1 -2 -8 hvcurveto
            82 99 62 -166 -207 vlineto
            3 22 21 1 16 hhcurveto
            46 -1 -4 -55 -54 -3 -5 -41 -15 -25 2 3 -23 hvcurveto
            return
          </CharString>
          <CharString index="38">
            rmoveto
            113 -62 callsubr
            hlineto
            return
          </CharString>
          <CharString index="39">
            750 -106 callgsubr
            return
          </CharString>
          <CharString index="40">
            94 39 hmoveto
            157 103 hlineto
            -34 13 -4 38 208 vvcurveto
            201 4 24 56 56 5 -24 -201 -208 -4 -38 -35 -13 vhcurveto
            -103 157 102 -5 vlineto
            -25 -7 -23 -8 -24 -7 rrcurveto
            6 vlineto
            54 38 24 93 160 vvcurveto
            230 -14 89 -166 -165 -14 -89 -230 -160 24 -93 54 -38 vhcurveto
            -6 vlineto
            -24 7 -24 8 -24 7 rrcurveto
            -6 hlineto
            endchar
          </CharString>
          <CharString index="41">
            -26 156 -8 -96 callsubr
            return
          </CharString>
          <CharString index="42">
            rmoveto
            83 18 33 98 101 -26 11 -49 -36 -14 -15 -12 -6 hvcurveto
            -5 hlineto
            96 4 13 57 16 28 -2 -2 20 vhcurveto
            57 vlineto
            6 -21 -34 4 -23 hhcurveto
            -62 -30 -16 -45 -16 hvcurveto
            -8 -24 -3 -46 -64 vvcurveto
            -67 1 -46 5 -20 vhcurveto
            -51 13 27 -9 61 hhcurveto
            -3 61 rmoveto
            -24 -8 6 60 47 4 7 28 28 5 -2 -58 -53 -5 -7 -28 hvcurveto
            endchar
          </CharString>
          <CharString index="43">
            -69 callsubr
            endchar
          </CharString>
          <CharString index="44">
            -102 hlineto
            -17 -51 rlineto
            3 -17 -21 1 -23 19 callgsubr
            -153 2 -91 31 -52 hvcurveto
            -33 -103 rlineto
            101 hlineto
            16 52 rlineto
            -4 18 20 -1 24 hhcurveto
            175 5 78 274 154 -2 92 -32 51 hvcurveto
            -146 -540 -56 callgsubr
          </CharString>
          <CharString index="45">
            510 -113 return
          </CharString>
          <CharString index="46">
            rmoveto
            30 0 15 3 8 vhcurveto
            1 7 6 5 6 3 17 12 20 13 15 10 rrcurveto
            19 13 23 15 78 vvcurveto
            97 -44 7 -50 -29 -36 -3 -5 -21 vhcurveto
            -59 vlineto
            3 24 28 1 17 hhcurveto
            32 4 -6 -40 -38 -8 -5 -17 -11 hvcurveto
            -17 -11 -15 -11 -18 -11 rrcurveto
            -35 -23 1 -27 -93 vvcurveto
            -45 184 63 -110 vlineto
            endchar
          </CharString>
          <CharString index="47">
            -8 79 209 rmoveto
            104 55 hlineto
            52 1 6 45 36 vhcurveto
            13 10 rlineto
            51 41 9 37 95 vvcurveto
            120 -62 35 -87 -36 -52 -6 -9 -38 vhcurveto
            -101 vlineto
            4 32 30 3 17 hhcurveto
            57 19 -12 -61 -59 -10 -12 -39 -28 hvcurveto
            -13 -10 rlineto
            -30 -22 -11 -17 -65 vvcurveto
            -10 -301 -47 callgsubr
            endchar
          </CharString>
          <CharString index="48">
            77 380 174 -93 callgsubr
            return
          </CharString>
          <CharString index="49">
            46 rmoveto
            32 50 rlineto
            -83 52 -55 91 105 vvcurveto
            104 56 92 82 51 vhcurveto
            -32 51 rlineto
            -99 -62 -67 -111 -125 vvcurveto
            -126 67 -110 99 -62 vhcurveto
            return
          </CharString>
          <CharString index="50">
            52 12 8 34 73 vvcurveto
            21 vlineto
            return
          </CharString>
          <CharString index="51">
            -98 rmoveto
            -1 callsubr
            hvcurveto
            -15 callsubr
            -32 -54 -4 -24 hhcurveto
            -75 -4 16 117 hvcurveto
            199 34 hlineto
            192 -3 71 -147 vhcurveto
            -1 -96 -2 callsubr
          </CharString>
          <CharString index="52">
            46 rmoveto
            99 62 67 110 126 vvcurveto
            125 -67 111 -99 62 vhcurveto
            -32 -51 rlineto
            82 -51 56 -92 -104 vvcurveto
            -105 -55 -91 -83 -52 vhcurveto
            -31 51 rmoveto
            65 41 44 73 83 vvcurveto
            83 -44 73 -66 41 vhcurveto
            -32 -51 rlineto
            49 -31 33 -54 -61 vvcurveto
            -62 -33 -53 -48 -31 vhcurveto
            return
          </CharString>
          <CharString index="53">
            -53 -6 6 237 237 6 6 53 54 5 -6 -237 -237 -5 -6 -54 hvcurveto
            endchar
          </CharString>
          <CharString index="54">
            rmoveto
            32 51 rlineto
            -48 31 -33 53 62 vvcurveto
            61 33 54 49 31 vhcurveto
            -32 51 rlineto
            -66 -41 -44 -73 -83 vvcurveto
            -83 44 -73 65 -41 vhcurveto
            return
          </CharString>
          <CharString index="55">
            86 315 rmoveto
            76 373 -57 hlineto
            -65 -38 rlineto
            -73 vlineto
            46 21 rlineto
            -13 -598 rmoveto
            71 hlineto
            298 688 rlineto
            -71 hlineto
            return
          </CharString>
          <CharString index="56">
            76 330 272 rmoveto
            52 35 6 72 88 vvcurveto
            141 -18 80 -138 vhcurveto
            -189 -688 121 245 55 hlineto
            2 hlineto
            58 -245 rlineto
            124 hlineto
            -191 351 rmoveto
            -48 228 48 hlineto
            51 5 -19 -95 -95 -6 -19 -50 hvcurveto
            return
          </CharString>
          <CharString index="57">
            140 -31 callgsubr
            return
          </CharString>
          <CharString index="58">
            rmoveto
            115 113 -115 hlineto
            return
          </CharString>
          <CharString index="59">
            -70 callgsubr
            endchar
          </CharString>
          <CharString index="60">
            vmoveto
            -46 callsubr
          </CharString>
          <CharString index="61">
            -107 callsubr
            endchar
          </CharString>
          <CharString index="62">
            113 414 69 96 -69 148 -113 -148 -51 -96 51 hlineto
            return
          </CharString>
          <CharString index="63">
            rmoveto
            45 0 -26 -39 hvcurveto
            73 hlineto
            77 -13 56 -105 -106 -13 -56 -77 vhcurveto
            73 hlineto
            39 1 26 45 vhcurveto
            return
          </CharString>
          <CharString index="64">
            -8 hlineto
            -4 62 rlineto
            -107 return
          </CharString>
          <CharString index="65">
            9 -16 -20 5 -24 hhcurveto
            -115 -11 -83 -181 -204 11 -58 151 hvcurveto
            -1 96 rmoveto
            -47 -1 16 151 153 1 14 47 48 1 -25 -142 -151 -1 -16 -48 hvcurveto
            endchar
          </CharString>
          <CharString index="66">
            202 rlineto
            56 -108 -56 vlineto
            return
          </CharString>
          <CharString index="67">
            -37 callsubr
            endchar
          </CharString>
          <CharString index="68">
            -52 vlineto
            108 14 37 9 callsubr
            45 -14 vlineto
            -55 -7 -17 -42 vhcurveto
            return
          </CharString>
          <CharString index="69">
            140 rlineto
            return
          </CharString>
          <CharString index="70">
            -99 callgsubr
            169 -33 -100 callgsubr
            return
          </CharString>
          <CharString index="71">
            48 57 6 8 return
          </CharString>
          <CharString index="72">
            11 callgsubr
            35 29 42 19 18 hvcurveto
            -81 hlineto
            -31 -32 -23 -44 -38 17 callgsubr
            endchar
          </CharString>
          <CharString index="73">
            778 rmoveto
            99 97 -99 hlineto
            return
          </CharString>
          <CharString index="74">
            -47 callgsubr
            -8 -688 rmoveto
            139 71 hlineto
            49 -15 178 -19 181 vhcurveto
            -71 hlineto
            -19 -181 -15 -178 -49 vvcurveto
            endchar
          </CharString>
          <CharString index="75">
            121 577 107 111 -335 -111 107 hlineto
            return
          </CharString>
          <CharString index="76">
            52 198 -85 rmoveto
            134 277 -85 -32 rlineto
            290 vlineto
            85 -31 -134 277 -135 -277 87 31 rlineto
            -290 vlineto
            -87 32 rlineto
            return
          </CharString>
          <CharString index="77">
            113 743 -113 hlineto
            return
          </CharString>
          <CharString index="78">
            80 9 hmoveto
            405 hlineto
            -114 688 rlineto
            -179 hlineto
            93 -124 rmoveto
            66 -461 rlineto
            -141 hlineto
            68 461 rlineto
            endchar
          </CharString>
          <CharString index="79">
            rmoveto
            83 hlineto
            70 192 -70 193 rlineto
            -83 hlineto
            54 -193 rlineto
            return
          </CharString>
          <CharString index="80">
            -5 -6 39 vhcurveto
            101 vlineto
            return
          </CharString>
          <CharString index="81">
            31 20 21 34 42 vvcurveto
            41 -21 35 -32 20 vhcurveto
            -32 -51 rlineto
            15 -9 10 -16 -20 vvcurveto
            -20 -10 -16 -14 -9 vhcurveto
            endchar
          </CharString>
          <CharString index="82">
            397 rmoveto
            110 2 41 109 108 -2 41 -110 -110 -2 -41 -108 -109 2 -41 110 hvcurveto
            return
          </CharString>
          <CharString index="83">
            -13 -8 -25 hhcurveto
            return
          </CharString>
          <CharString index="84">
            41 487 -22 callsubr
            85 -118 -114 44 -15 vlineto
            -54 -7 -18 -41 vhcurveto
            return
          </CharString>
          <CharString index="85">
            16 callgsubr
            38 130 hvcurveto
            return
          </CharString>
          <CharString index="86">
            vmoveto
            -101 callgsubr
            endchar
          </CharString>
          <CharString index="87">
            hlineto
            -178 -7 -25 -90 -28 -44 4 6 -31 vhcurveto
            -100 vlineto
            -11 35 52 -8 38 hhcurveto
            23 372 rmoveto
            return
          </CharString>
          <CharString index="88">
            757 rmoveto
            52 vlineto
            -108 -14 -32 -114 hvcurveto
            -64 118 93 -44 15 vlineto
            39 7 11 41 vhcurveto
            return
          </CharString>
          <CharString index="89">
            -100 callgsubr
            -64 return
          </CharString>
          <CharString index="90">
            rmoveto
            -13 callsubr
          </CharString>
          <CharString index="91">
            79 hlineto
            90 325 rlineto
            54 -185 -62 108 vlineto
            return
          </CharString>
          <CharString index="92">
            89 vlineto
            -3 return
          </CharString>
          <CharString index="93">
            74 25 69 -25 103 -52 hlineto
            -22 -103 rlineto
            -42 hlineto
            65 230 rlineto
            -77 hlineto
            -58 -243 rlineto
            -56 return
          </CharString>
          <CharString index="94">
            -46 -2 13 154 153 2 14 46 47 2 -14 -153 -154 -2 -13 -47 hvcurveto
            endchar
          </CharString>
          <CharString index="95">
            39 hmoveto
            -30 callsubr
            return
          </CharString>
          <CharString index="96">
            rmoveto
            104 12 42 149 149 -12 44 -104 -104 -12 -44 -149 -149 12 -42 104 hvcurveto
            return
          </CharString>
          <CharString index="97">
            rmoveto
            343 127 rlineto
            102 vlineto
            -343 128 rlineto
            -102 vlineto
            221 -77 -221 -77 rlineto
            return
          </CharString>
          <CharString index="98">
            rlineto
            -112 hlineto
            return
          </CharString>
          <CharString index="99">
            -38 -139 -102 25 -48 53 -16 vhcurveto
            -4 vlineto
            -55 -16 -29 -36 -116 vvcurveto
            -140 return
          </CharString>
          <CharString index="100">
            rmoveto
            99 121 121 100 -121 122 -99 -122 -122 -100 122 hlineto
            return
          </CharString>
          <CharString index="101">
            38 -38 callgsubr
            return
          </CharString>
          <CharString index="102">
            -121 hlineto
            return
          </CharString>
          <CharString index="103">
            104 125 rmoveto
            82 hlineto
            -54 192 54 193 rlineto
            -82 hlineto
            -70 -193 rlineto
            return
          </CharString>
          <CharString index="104">
            8 hlineto
            -43 11 28 -21 49 hhcurveto
            93 20 61 202 212 -26 51 -89 return
          </CharString>
          <CharString index="105">
            rmoveto
            39 6 -10 -108 hvcurveto
            -5 -93 vlineto
            112 6 11 42 vhcurveto
            endchar
          </CharString>
          <CharString index="106">
            -153 -9 -81 -183 -184 9 -78 158 -36 callsubr
            30 return
          </CharString>
          <CharString index="107">
            -36 0 13 75 74 0 13 36 36 0 -13 -74 -75 0 -13 -36 hvcurveto
            return
          </CharString>
          <CharString index="108">
            -8 rmoveto
            163 5 78 274 274 return
          </CharString>
          <CharString index="109">
            rmoveto
            245 44 vlineto
            51 5 -19 -103 -103 -5 -20 -51 hvcurveto
            endchar
          </CharString>
          <CharString index="110">
            222 -1 628 rmoveto
            567 60 -567 hlineto
            -688 vmoveto
            return
          </CharString>
          <CharString index="111">
            69 14 18 1 3 12 vhcurveto
            -34 callgsubr
            return
          </CharString>
          <CharString index="112">
            342 100 -342 hlineto
            return
          </CharString>
          <CharString index="113">
            hhcurveto
            44 4 -8 -153 -153 -4 -8 -44 hvcurveto
            endchar
          </CharString>
          <CharString index="114">
            -125 47 21 callsubr
            return
          </CharString>
          <CharString index="115">
            -152 -6 callsubr
            return
          </CharString>
          <CharString index="116">
            130 hvcurveto
            85 -118 -114 return
          </CharString>
          <CharString index="117">
            205 -145 143 -207 return
          </CharString>
          <CharString index="118">
            -195 20 270 rmoveto
            83 hlineto
            25 251 rlineto
            return
          </CharString>
          <CharString index="119">
            vlineto
            -58 -184 rlineto
            -5 97 vlineto
            35 189 rlineto
            return
          </CharString>
          <CharString index="120">
            2 11 20 16 22 -6 -6 24 vhcurveto
            -8 31 36 return
          </CharString>
          <CharString index="121">
            -42 -60 -7 -9 -43 vhcurveto
            -100 vlineto
            4 36 44 3 return
          </CharString>
          <CharString index="122">
            198 7 40 312 312 -7 40 -198 return
          </CharString>
          <CharString index="123">
            277 134 -277 135 31 -85 rlineto
            return
          </CharString>
          <CharString index="124">
            38 191 -8 rmoveto
            151 10 59 208 return
          </CharString>
          <CharString index="125">
            hhcurveto
            -147 -14 -53 -210 return
          </CharString>
          <CharString index="126">
            rmoveto
            -99 -97 99 hlineto
            return
          </CharString>
          <CharString index="127">
            rmoveto
            -43 -5 8 return
          </CharString>
          <CharString index="128">
            389 rmoveto
            124 121 -124 hlineto
            return
          </CharString>
        <CharString name=".notdef">
          157 0 vmoveto
          500 700 -500 hlineto
          450 -50 rmoveto
          -600 -400 600 vlineto
          179 -435 rmoveto
          53 53 hlineto
          33 21 18 23 19 vhcurveto
          30 26 37 36 67 vvcurveto
          12 -3 123 -140 -140 -11 -124 -23 -11 2 -13 2 -7 vhcurveto
          49 28 hlineto
          23 8 77 90 77 12 -59 -28 -51 -28 -24 -28 -23 vhcurveto
          -28 -23 -26 -23 -43 vvcurveto
          -4 -179 rmoveto
          60 70 -60 hlineto
          endchar
        </CharString>
        <CharString name="A">
          79 292 hmoveto
          -103 callsubr
          endchar
        </CharString>
        <CharString name="A.ss01">
          83 267 hmoveto
          -106 callsubr
          endchar
        </CharString>
        <CharString name="AE">
          213 276 hmoveto
          -53 callgsubr
        </CharString>
        <CharString name="AEacute">
          213 235 743 -99 callgsubr
          41 -748 rmoveto
          -53 callgsubr
        </CharString>
        <CharString name="Aacute">
          79 159 750 -99 callgsubr
          133 -755 rmoveto
          -103 callsubr
          endchar
        </CharString>
        <CharString name="Aacute.ss01">
          83 168 750 -99 callgsubr
          99 -755 -102 callgsubr
        </CharString>
        <CharString name="Abreve">
          79 330 -75 callsubr
          -38 -888 rmoveto
          -103 callsubr
          endchar
        </CharString>
        <CharString name="Abreve.ss01">
          83 331 888 -77 callgsubr
        </CharString>
        <CharString name="Acircumflex">
          79 86 -68 callsubr
          206 -757 rmoveto
          -103 callsubr
          endchar
        </CharString>
        <CharString name="Acircumflex.ss01">
          83 93 -68 callsubr
          174 -757 -102 callgsubr
        </CharString>
        <CharString name="Adieresis">
          79 79 775 -85 callsubr
          48 -872 rmoveto
          -103 callsubr
          endchar
        </CharString>
        <CharString name="Adieresis.ss01">
          83 86 775 -85 callsubr
          16 -872 -102 callgsubr
        </CharString>
        <CharString name="Agrave">
          79 169 749 -90 callsubr
          178 -889 rmoveto
          -103 callsubr
          endchar
        </CharString>
        <CharString name="Agrave.ss01">
          83 176 750 -90 callsubr
          146 -890 -102 callgsubr
        </CharString>
        <CharString name="Amacron">
          79 125 784 -68 callgsubr
          167 -888 rmoveto
          -103 callsubr
          endchar
        </CharString>
        <CharString name="Amacron.ss01">
          83 126 784 -68 callgsubr
          141 -48 callsubr
        </CharString>
        <CharString name="Aogonek">
          79 327 -91 rmoveto
          32 25 39 19 20 vhcurveto
          43 hlineto
          -114 688 rlineto
          -178 hlineto
          -113 -688 15 callgsubr
          -149 rlineto
          -30 -31 -22 -44 -37 vvcurveto
          -46 23 -1 callgsubr
          -7 18 22 hvcurveto
          -164 348 rmoveto
          44 307 rlineto
          6 hlineto
          44 -307 rlineto
          endchar
        </CharString>
        <CharString name="Aogonek.ss01">
          83 387 hmoveto
          -8 callgsubr
          238 -5 73 -169 -169 -5 -73 -238 vhcurveto
          -385 120 203 108 -201 vlineto
          -30 -32 -22 -43 -37 17 callgsubr
          11 callgsubr
          33 25 38 19 20 hvcurveto
          -187 312 rmoveto
          120 vlineto
          141 3 14 51 51 3 -14 -141 vhcurveto
          -120 vlineto
          endchar
        </CharString>
        <CharString name="Aring">
          79 302 683 -66 callgsubr
        </CharString>
        <CharString name="Aring.ss01">
          83 217 731 -90 callgsubr
          50 -791 -102 callgsubr
        </CharString>
        <CharString name="Aringacute">
          79 315 1065 -72 callsubr
          42 -242 -66 callgsubr
        </CharString>
        <CharString name="Aringacute.ss01">
          83 172 961 -99 callgsubr
          41 -238 -90 callgsubr
          54 -788 -102 callgsubr
        </CharString>
        <CharString name="Atilde">
          79 348 885 rmoveto
          -107 callsubr
          -56 -885 rmoveto
          -103 callsubr
          endchar
        </CharString>
        <CharString name="Atilde.ss01">
          83 354 885 rmoveto
          -107 callsubr
          -87 -885 -102 callgsubr
        </CharString>
        <CharString name="B">
          67 43 hmoveto
          187 hlineto
          115 40 69 115 105 -26 44 -63 16 hvcurveto
          4 vlineto
          57 16 26 48 98 vvcurveto
          117 -48 56 -100 vhcurveto
          -188 hlineto
          162 -287 rmoveto
          -43 178 43 hlineto
          49 9 -14 -75 -72 -15 -17 -43 hvcurveto
          1 -292 rmoveto
          -44 186 44 hlineto
          45 13 -14 -79 -78 -8 -15 -50 hvcurveto
          endchar
        </CharString>
        <CharString name="C">
          -20 302 8 -85 callgsubr
        </CharString>
        <CharString name="Cacute">
          -20 119 743 -99 callgsubr
          183 -740 -85 callgsubr
        </CharString>
        <CharString name="Cacute.loclPLK">
          -20 119 743 rmoveto
          -74 callsubr
          183 -740 -85 callgsubr
        </CharString>
        <CharString name="Ccaron">
          -20 104 761 -97 callsubr
          265 -872 -85 callgsubr
        </CharString>
        <CharString name="Ccedilla">
          -20 231 101 rmoveto
          -74 -5 20 223 223 5 20 74 18 29 -3 -4 22 hvcurveto
          101 vlineto
          9 -17 -38 6 -36 hhcurveto
          -154 -23 -78 -274 -216 12 -94 83 -31 hvcurveto
          -60 -187 rlineto
          -5 97 vlineto
          34 181 rlineto
          11 hlineto
          31 39 7 9 23 hvcurveto
          100 vlineto
          -4 -19 -29 -3 -23 hhcurveto
          endchar
        </CharString>
        <CharString name="Ccircumflex">
          -20 37 761 -106 callgsubr
          265 -760 -85 callgsubr
        </CharString>
        <CharString name="Cdotaccent">
          -20 112 -34 callsubr
          190 -867 -85 callgsubr
        </CharString>
        <CharString name="D">
          73 43 hmoveto
          -77 callsubr
          endchar
        </CharString>
        <CharString name="Dcaron">
          73 150 761 -97 callsubr
          -40 -880 rmoveto
          -77 callsubr
          endchar
        </CharString>
        <CharString name="Dcroat">
          -50 callgsubr
        </CharString>
        <CharString name="E">
          2 43 hmoveto
          -93 callsubr
          endchar
        </CharString>
        <CharString name="Eacute">
          2 135 750 -99 callgsubr
          -92 -755 rmoveto
          -93 callsubr
          endchar
        </CharString>
        <CharString name="Ebreve">
          2 298 -75 callsubr
          -255 -888 rmoveto
          -93 callsubr
          endchar
        </CharString>
        <CharString name="Ecaron">
          2 122 761 -97 callsubr
          -12 -880 rmoveto
          -93 callsubr
          endchar
        </CharString>
        <CharString name="Ecircumflex">
          2 56 -68 callsubr
          -13 -757 rmoveto
          -93 callsubr
          endchar
        </CharString>
        <CharString name="Edieresis">
          2 49 775 -85 callsubr
          -171 -872 rmoveto
          -93 callsubr
          endchar
        </CharString>
        <CharString name="Edotaccent">
          2 130 -34 callsubr
          -87 -875 rmoveto
          -93 callsubr
          endchar
        </CharString>
        <CharString name="Egrave">
          2 145 750 -90 callsubr
          -47 -890 rmoveto
          -93 callsubr
          endchar
        </CharString>
        <CharString name="Emacron">
          2 93 784 -68 callgsubr
          -50 -888 rmoveto
          -93 callsubr
          endchar
        </CharString>
        <CharString name="Eng">
          96 282 688 rmoveto
          -358 -6 vlineto
          -119 358 rlineto
          -114 -688 115 388 4 hlineto
          120 -357 rlineto
          -88 vlineto
          -37 -1 -15 -50 vhcurveto
          -87 vlineto
          124 38 14 156 3 hvcurveto
          714 vlineto
          endchar
        </CharString>
        <CharString name="Eogonek">
          2 267 -196 rmoveto
          14 17 1 3 12 hvcurveto
          -34 callgsubr
          -29 -8 18 18 40 35 38 21 17 -14 callgsubr
          -153 184 134 109 -134 177 153 109 -274 -688 193 vlineto
          -34 -30 -28 -39 -46 vvcurveto
          -40 23 -41 70 vhcurveto
          endchar
        </CharString>
        <CharString name="Eth">
          -50 callgsubr
        </CharString>
        <CharString name="Euro">
          29 247 -8 rmoveto
          31 39 7 9 23 hvcurveto
          100 vlineto
          -4 -18 -29 -3 -24 hhcurveto
          -60 -15 14 122 -3 hvcurveto
          119 65 -119 87 119 65 -118 hlineto
          120 3 14 13 60 hhcurveto
          19 28 -3 -4 22 hvcurveto
          101 vlineto
          9 -17 -38 6 -36 hhcurveto
          -131 -36 -57 -185 -8 hvcurveto
          -50 -65 48 -87 -48 -65 49 hlineto
          -189 8 34 -56 134 hhcurveto
          endchar
        </CharString>
        <CharString name="F">
          -22 43 hmoveto
          121 279 124 109 -124 191 140 109 -261 hlineto
          endchar
        </CharString>
        <CharString name="G">
          65 264 288 -94 callsubr
          endchar
        </CharString>
        <CharString name="G.ss01">
          71 217 -8 -94 callgsubr
          endchar
        </CharString>
        <CharString name="G_tilde.loclGUA">
          65 340 888 rmoveto
          -107 callsubr
          -76 -600 -94 callsubr
          endchar
        </CharString>
        <CharString name="Gbreve">
          65 322 -75 callsubr
          -58 -600 -94 callsubr
          endchar
        </CharString>
        <CharString name="Gbreve.ss01">
          71 325 -75 callsubr
          -108 -896 -94 callgsubr
          endchar
        </CharString>
        <CharString name="Gcaron">
          65 146 761 -97 callsubr
          185 -592 -94 callsubr
          endchar
        </CharString>
        <CharString name="Gcaron.ss01">
          71 149 761 -97 callsubr
          135 -888 -94 callgsubr
          endchar
        </CharString>
        <CharString name="Gcircumflex">
          65 79 761 -106 callgsubr
          185 -480 -94 callsubr
          endchar
        </CharString>
        <CharString name="Gcircumflex.ss01">
          71 82 761 -106 callgsubr
          135 -776 -94 callgsubr
          endchar
        </CharString>
        <CharString name="Gcommaaccent">
          65 264 288 -94 callsubr
          -67 -509 -87 callgsubr
        </CharString>
        <CharString name="Gcommaaccent.ss01">
          71 217 -8 -94 callgsubr
          -69 -213 -87 callgsubr
        </CharString>
        <CharString name="Gdotaccent">
          65 154 -34 callsubr
          110 -587 -94 callsubr
          endchar
        </CharString>
        <CharString name="Gdotaccent.ss01">
          71 157 -34 callsubr
          60 -883 -94 callgsubr
          endchar
        </CharString>
        <CharString name="Gtilde.loclGUA.ss01">
          71 343 888 rmoveto
          -107 callsubr
          -126 -896 -94 callgsubr
          endchar
        </CharString>
        <CharString name="H">
          93 272 hmoveto
          -41 callgsubr
          endchar
        </CharString>
        <CharString name="Hbar">
          93 272 688 rmoveto
          -100 -108 100 -121 -688 121 255 108 -255 121 688 vlineto
          -229 -318 rmoveto
          109 108 -109 vlineto
          endchar
        </CharString>
        <CharString name="Hcircumflex">
          93 93 761 -106 callgsubr
          179 -768 rmoveto
          -41 callgsubr
          endchar
        </CharString>
        <CharString name="I">
          -133 45 hmoveto
          120 688 -120 hlineto
          endchar
        </CharString>
        <CharString name="IJ">
          112 45 hmoveto
          120 688 -120 hlineto
          171 -585 -73 callgsubr
        </CharString>
        <CharString name="Iacute">
          -133 47 750 -99 callgsubr
          -2 -755 -64 callgsubr
        </CharString>
        <CharString name="Iacute_J.loclNLD">
          112 62 743 -99 callgsubr
          251 -5 -99 callgsubr
          -268 -748 rmoveto
          120 688 -120 hlineto
          171 -585 -73 callgsubr
        </CharString>
        <CharString name="Ibreve">
          -133 223 -75 callsubr
          -178 -888 -64 callgsubr
        </CharString>
        <CharString name="Icircumflex">
          -133 -20 -68 callsubr
          65 -757 -64 callgsubr
        </CharString>
        <CharString name="Idieresis">
          -133 -27 775 -85 callsubr
          -93 -872 -64 callgsubr
        </CharString>
        <CharString name="Idotaccent">
          -133 55 -34 callsubr
          -10 -875 -64 callgsubr
        </CharString>
        <CharString name="Igrave">
          -133 72 750 -90 callsubr
          28 -890 -64 callgsubr
        </CharString>
        <CharString name="Imacron">
          -133 18 784 -68 callgsubr
          27 -888 -64 callgsubr
        </CharString>
        <CharString name="Iogonek">
          -133 121 -196 rmoveto
          16 17 1 3 12 hvcurveto
          11 callgsubr
          33 29 41 19 17 hvcurveto
          688 -120 -688 39 vlineto
          -31 -31 -23 -42 -37 vvcurveto
          -46 23 -40 68 vhcurveto
          endchar
        </CharString>
        <CharString name="Itilde">
          -133 241 888 rmoveto
          -107 callsubr
          -196 -888 -64 callgsubr
        </CharString>
        <CharString name="J">
          -98 6 103 -73 callgsubr
        </CharString>
        <CharString name="Jcircumflex">
          -98 21 761 -106 callgsubr
          -15 -665 -73 callgsubr
        </CharString>
        <CharString name="K">
          -33 callgsubr
          endchar
        </CharString>
        <CharString name="Kcommaaccent">
          -33 callgsubr
          -52 -512 -87 callgsubr
        </CharString>
        <CharString name="L">
          -32 43 hmoveto
          -49 callgsubr
          endchar
        </CharString>
        <CharString name="Lacute">
          -32 61 743 -99 callgsubr
          -18 -748 rmoveto
          -49 callgsubr
          endchar
        </CharString>
        <CharString name="Lcaron">
          -32 43 hmoveto
          -49 callgsubr
          172 -258 rmoveto
          83 hlineto
          40 -41 callsubr
          endchar
        </CharString>
        <CharString name="Lcommaaccent">
          -32 43 hmoveto
          -49 callgsubr
          58 -909 -87 callgsubr
        </CharString>
        <CharString name="Ldot">
          8 43 hmoveto
          -49 callgsubr
          180 -376 -91 callsubr
        </CharString>
        <CharString name="Lslash">
          -32 164 111 rmoveto
          194 vlineto
          90 34 rlineto
          102 vlineto
          -90 -34 rlineto
          281 -121 -327 vlineto
          -37 -14 rlineto
          -102 vlineto
          37 14 rlineto
          -259 259 111 vlineto
          endchar
        </CharString>
        <CharString name="M">
          268 451 hmoveto
          116 688 -182 hlineto
          -74 -507 rlineto
          -7 hlineto
          -74 507 rlineto
          -187 -688 114 532 8 hlineto
          78 -532 rlineto
          121 hlineto
          80 532 rlineto
          7 hlineto
          endchar
        </CharString>
        <CharString name="N">
          96 289 hmoveto
          -82 callgsubr
          endchar
        </CharString>
        <CharString name="Nacute">
          96 177 743 -99 callgsubr
          112 -748 rmoveto
          -82 callgsubr
          endchar
        </CharString>
        <CharString name="Nacute.loclPLK">
          96 177 743 rmoveto
          -74 callsubr
          112 -748 rmoveto
          -82 callgsubr
          endchar
        </CharString>
        <CharString name="Ncaron">
          96 162 761 -97 callsubr
          194 -880 rmoveto
          -82 callgsubr
          endchar
        </CharString>
        <CharString name="Ncommaaccent">
          96 289 hmoveto
          -82 callgsubr
          -1 -609 -87 callgsubr
        </CharString>
        <CharString name="Ntilde">
          96 356 885 rmoveto
          -107 callsubr
          -67 -885 rmoveto
          -82 callgsubr
          endchar
        </CharString>
        <CharString name="O">
          80 211 -8 -104 callsubr
          endchar
        </CharString>
        <CharString name="OE">
          251 211 hmoveto
          355 109 -148 hlineto
          -20 -21 -2 -2 -11 hvcurveto
          19 38 5 59 1 91 rrcurveto
          156 109 -157 hlineto
          -1 86 -5 58 -17 37 rrcurveto
          -2 12 21 -2 18 hhcurveto
          148 109 -355 hlineto
          -174 -5 -76 -268 -268 5 -76 174 -42 callgsubr
          -53 -6 6 229 229 6 6 53 54 5 -6 -229 -229 -5 -6 -54 hvcurveto
          endchar
        </CharString>
        <CharString name="Oacute">
          80 160 750 -99 callgsubr
          51 -763 -104 callsubr
          endchar
        </CharString>
        <CharString name="Oacute.loclPLK">
          80 168 743 rmoveto
          -74 callsubr
          43 -756 -104 callsubr
          endchar
        </CharString>
        <CharString name="Obreve">
          80 329 -75 callsubr
          -118 -896 -104 callsubr
          endchar
        </CharString>
        <CharString name="Ocircumflex">
          80 86 -68 callsubr
          125 -765 -104 callsubr
          endchar
        </CharString>
        <CharString name="Odieresis">
          80 79 775 -85 callsubr
          -33 -880 -104 callsubr
          endchar
        </CharString>
        <CharString name="Ograve">
          80 167 750 -90 callsubr
          99 -898 -104 callsubr
          endchar
        </CharString>
        <CharString name="Ohorn">
          80 357 779 -89 callgsubr
        </CharString>
        <CharString name="Ohungarumlaut">
          80 118 757 -80 callgsubr
          -30 -769 -104 callsubr
          endchar
        </CharString>
        <CharString name="Omacron">
          80 124 784 -68 callgsubr
          87 -896 -104 callsubr
          endchar
        </CharString>
        <CharString name="Oslash">
          80 391 743 rmoveto
          -63 callsubr
        </CharString>
        <CharString name="Oslash.bold">
          80 391 743 rmoveto
          -102 hlineto
          -17 -51 rlineto
          3 -17 -21 1 -23 19 callgsubr
          -153 2 -92 31 -51 hvcurveto
          -33 -103 rlineto
          101 hlineto
          17 52 rlineto
          -4 17 21 -1 23 hhcurveto
          175 5 78 274 153 -2 92 -31 51 hvcurveto
          -206 -296 rmoveto
          237 6 6 53 11 9 0 -2 7 vhcurveto
          -86 -267 rlineto
          118 26 rmoveto
          -237 -5 -6 -54 -11 -9 0 2 -7 vhcurveto
          86 266 rlineto
          endchar
        </CharString>
        <CharString name="Oslashacute">
          80 288 883 -72 callsubr
          158 hmoveto
          -63 callsubr
        </CharString>
        <CharString name="Otilde">
          80 349 885 rmoveto
          -107 callsubr
          -138 -893 -104 callsubr
          endchar
        </CharString>
        <CharString name="P">
          58 43 hmoveto
          121 225 64 hlineto
          142 15 95 137 148 -19 83 -138 hvcurveto
          -185 hlineto
          121 -354 2 callsubr
        </CharString>
        <CharString name="Q">
          80 302 -115 rmoveto
          124 5 hlineto
          -81 144 rlineto
          44 49 2 95 166 vvcurveto
          275 -5 77 -175 -174 -5 -77 -275 -274 5 -78 174 13 11 1 2 10 vhcurveto
          -34 106 -56 callgsubr
        </CharString>
        <CharString name="Q.bold">
          80 346 34 rmoveto
          42 49 3 94 167 vvcurveto
          275 -5 77 -175 -174 -5 -77 -275 -274 5 -78 174 12 12 0 1 10 vhcurveto
          57 -108 rlineto
          124 5 hlineto
          -215 697 rmoveto
          54 5 -6 -237 -78 -1 -53 -2 -36 hvcurveto
          -23 41 rlineto
          -91 hlineto
          -1 32 0 41 53 vvcurveto
          237 6 6 53 vhcurveto
          -54 -426 rmoveto
          31 -58 -17 4 -9 12 -5 42 rlinecurve
          endchar
        </CharString>
        <CharString name="R">
          76 403 hmoveto
          -83 callsubr
        </CharString>
        <CharString name="R.ss01">
          -59 callsubr
          endchar
        </CharString>
        <CharString name="Racute">
          76 313 883 -72 callsubr
          145 -743 rmoveto
          -83 callsubr
        </CharString>
        <CharString name="Racute.ss01">
          77 314 883 -72 callsubr
          121 -569 -93 callgsubr
          endchar
        </CharString>
        <CharString name="Rcaron">
          76 266 -10 callgsubr
          252 -761 rmoveto
          -83 callsubr
        </CharString>
        <CharString name="Rcaron.ss01">
          77 267 -10 callgsubr
          228 -587 -93 callgsubr
          endchar
        </CharString>
        <CharString name="Rcommaaccent">
          -51 callsubr
          -58 -507 -17 callgsubr
        </CharString>
        <CharString name="Rcommaaccent.ss01">
          -59 callsubr
          -57 -511 -17 callgsubr
        </CharString>
        <CharString name="S">
          -71 callsubr
          endchar
        </CharString>
        <CharString name="Sacute">
          25 141 743 -99 callgsubr
          38 -756 -98 callsubr
          endchar
        </CharString>
        <CharString name="Sacute.loclPLK">
          25 141 743 rmoveto
          -74 callsubr
          38 -756 -98 callsubr
          endchar
        </CharString>
        <CharString name="Scaron">
          25 129 750 -97 callsubr
          117 -877 -98 callsubr
          endchar
        </CharString>
        <CharString name="Scedilla">
          25 347 213 rmoveto
          51 -4 36 -7 23 vhcurveto
          -18 54 -33 12 -33 7 -69 16 rcurveline
          -35 7 -4 11 66 vvcurveto
          35 1 23 12 14 vhcurveto
          14 11 21 5 43 hhcurveto
          45 39 -5 -2 9 hvcurveto
          100 vlineto
          3 -7 -51 13 -70 hhcurveto
          -109 -65 -36 -168 -102 12 -67 54 -11 hvcurveto
          80 -17 rlineto
          54 -12 4 -9 -82 vvcurveto
          -36 -3 -25 -11 -13 vhcurveto
          -14 -12 -20 -3 -35 hhcurveto
          -26 -45 3 4 -42 hvcurveto
          -99 vlineto
          30 -8 43 -6 39 -2 -56 -177 rcurveline
          -5 97 vlineto
          34 183 rlineto
          83 10 44 46 163 vvcurveto
          endchar
        </CharString>
        <CharString name="Scircumflex">
          25 59 761 -106 callgsubr
          120 -776 -98 callsubr
          endchar
        </CharString>
        <CharString name="Scommaaccent">
          -71 callsubr
          -54 -213 -87 callgsubr
        </CharString>
        <CharString name="T">
          6 114 hmoveto
          -32 callsubr
          endchar
        </CharString>
        <CharString name="Tbar">
          6 342 577 rmoveto
          111 -335 -111 107 -175 -80 -97 80 -305 121 305 80 97 -80 175 vlineto
          endchar
        </CharString>
        <CharString name="Tcaron">
          6 116 761 -97 callsubr
          65 -880 rmoveto
          -32 callsubr
          endchar
        </CharString>
        <CharString name="Thorn">
          58 43 hmoveto
          121 120 64 hlineto
          142 15 96 136 148 -19 83 -138 hvcurveto
          -64 105 -5 callsubr
          121 -459 2 callsubr
        </CharString>
        <CharString name="U">
          83 267 688 -99 callsubr
        </CharString>
        <CharString name="Uacute">
          83 165 750 -99 callgsubr
          102 -67 -99 callsubr
        </CharString>
        <CharString name="Ubreve">
          83 331 -75 callsubr
          -64 -200 -99 callsubr
        </CharString>
        <CharString name="Ucircumflex">
          83 88 -68 callsubr
          179 -69 -99 callsubr
        </CharString>
        <CharString name="Udieresis">
          83 81 775 6 callgsubr
          -184 -99 callsubr
        </CharString>
        <CharString name="Ugrave">
          83 172 750 -90 callsubr
          150 -202 -99 callsubr
        </CharString>
        <CharString name="Uhorn">
          83 373 779 rmoveto
          -36 vlineto
          -40 -8 -15 -42 vhcurveto
          -56 -432 hlineto
          -101 callsubr
          336 vlineto
          -57 callsubr
          endchar
        </CharString>
        <CharString name="Uhungarumlaut">
          83 120 757 -80 callgsubr
          24 -73 -99 callsubr
        </CharString>
        <CharString name="Umacron">
          83 126 784 -68 callgsubr
          141 -200 -99 callsubr
        </CharString>
        <CharString name="Uogonek">
          83 267 688 rmoveto
          -432 vlineto
          -141 -2 -14 -52 -51 -3 14 141 vhcurveto
          432 -120 -385 vlineto
          -238 5 -73 169 vhcurveto
          14 hlineto
          -26 -32 -17 -37 -33 vvcurveto
          -46 24 -1 callgsubr
          -8 18 22 48 30 39 32 24 hvcurveto
          51 39 3 85 159 vvcurveto
          -8 callgsubr
          endchar
        </CharString>
        <CharString name="Uring">
          83 213 728 -90 callgsubr
          54 -100 -99 callsubr
        </CharString>
        <CharString name="Utilde">
          83 349 888 rmoveto
          -107 callsubr
          -82 -200 -99 callsubr
        </CharString>
        <CharString name="V">
          61 113 hmoveto
          178 hlineto
          105 688 rlineto
          -119 hlineto
          -68 -558 rlineto
          -9 hlineto
          -70 558 rlineto
          -122 hlineto
          endchar
        </CharString>
        <CharString name="W">
          300 384 hmoveto
          -82 callsubr
        </CharString>
        <CharString name="Wacute">
          300 279 743 -99 callgsubr
          105 -748 rmoveto
          -82 callsubr
        </CharString>
        <CharString name="Wcircumflex">
          300 197 761 -106 callgsubr
          187 -768 rmoveto
          -82 callsubr
        </CharString>
        <CharString name="Wdieresis">
          300 190 778 -85 callsubr
          29 -875 rmoveto
          -82 callsubr
        </CharString>
        <CharString name="Wgrave">
          300 277 743 -90 callsubr
          162 -883 rmoveto
          -82 callsubr
        </CharString>
        <CharString name="X">
          78 285 hmoveto
          127 hlineto
          -114 350 112 338 rlineto
          -123 hlineto
          -72 -251 rlineto
          -7 hlineto
          -71 251 rlineto
          -126 hlineto
          112 -342 -114 -346 rlineto
          123 hlineto
          73 261 rlineto
          8 hlineto
          endchar
        </CharString>
        <CharString name="Y">
          44 133 hmoveto
          -84 callsubr
          endchar
        </CharString>
        <CharString name="Y.loclGUA">
          47 249 688 -92 callgsubr
        </CharString>
        <CharString name="Yacute">
          44 149 750 -99 callgsubr
          -16 -755 rmoveto
          -84 callsubr
          endchar
        </CharString>
        <CharString name="Yacute.loclGUA">
          47 299 883 -72 callsubr
          5 -55 -92 callgsubr
        </CharString>
        <CharString name="Ycircumflex">
          44 69 761 -106 callgsubr
          64 -768 rmoveto
          -84 callsubr
          endchar
        </CharString>
        <CharString name="Ycircumflex.loclGUA">
          47 194 832 -72 callgsubr
          100 -73 -92 callgsubr
        </CharString>
        <CharString name="Ydieresis">
          44 64 775 -85 callsubr
          -96 -872 rmoveto
          -84 callsubr
          endchar
        </CharString>
        <CharString name="Ydieresis.loclGUA">
          47 162 875 -16 callgsubr
          -78 -90 -92 callgsubr
        </CharString>
        <CharString name="Ygrave">
          44 149 743 -90 callsubr
          39 -883 rmoveto
          -84 callsubr
          endchar
        </CharString>
        <CharString name="Ygrave.loclGUA">
          47 242 743 -69 callgsubr
          99 -55 -92 callgsubr
        </CharString>
        <CharString name="Z">
          19 24 hmoveto
          -80 callsubr
          endchar
        </CharString>
        <CharString name="Zacute">
          19 138 743 -99 callgsubr
          -114 -748 rmoveto
          -80 callsubr
          endchar
        </CharString>
        <CharString name="Zacute.loclPLK">
          19 138 743 rmoveto
          -74 callsubr
          -114 -748 rmoveto
          -80 callsubr
          endchar
        </CharString>
        <CharString name="Zcaron">
          19 129 751 -97 callsubr
          -38 -870 rmoveto
          -80 callsubr
          endchar
        </CharString>
        <CharString name="Zdotaccent">
          19 131 -34 callsubr
          -107 -875 rmoveto
          -80 callsubr
          endchar
        </CharString>
        <CharString name="a">
          27 126 -8 -107 callgsubr
          endchar
        </CharString>
        <CharString name="aacute">
          27 138 598 -99 callgsubr
          -12 -611 -107 callgsubr
          endchar
        </CharString>
        <CharString name="abreve">
          27 303 -73 callsubr
          -177 -751 -107 callgsubr
          endchar
        </CharString>
        <CharString name="acircumflex">
          27 62 616 -106 callgsubr
          64 -631 -107 callgsubr
          endchar
        </CharString>
        <CharString name="acute">
          -196 598 vmoveto
          92 hlineto
          55 -50 callsubr
          -36 -140 rlineto
          endchar
        </CharString>
        <CharString name="acute.case.loclPLK">
          -196 743 vmoveto
          -74 callsubr
          endchar
        </CharString>
        <CharString name="acute.loclPLK">
          -196 598 vmoveto
          -74 callsubr
          endchar
        </CharString>
        <CharString name="acutecomb">
          -147 598 -99 callgsubr
          endchar
        </CharString>
        <CharString name="acutecomb.case">
          -147 743 -99 callgsubr
          endchar
        </CharString>
        <CharString name="adieresis">
          27 55 633 -85 callsubr
          -94 -738 -107 callgsubr
          endchar
        </CharString>
        <CharString name="ae">
          218 532 256 -75 callgsubr
        </CharString>
        <CharString name="aeacute">
          218 379 738 -72 callsubr
          208 -342 -75 callgsubr
        </CharString>
        <CharString name="agrave">
          27 146 598 -90 callsubr
          35 -746 -107 callgsubr
          endchar
        </CharString>
        <CharString name="amacron">
          27 98 639 -68 callgsubr
          28 -751 -107 callgsubr
          endchar
        </CharString>
        <CharString name="ampersand">
          118 271 397 rmoveto
          -305 vlineto
          -1 -9 -8 0 -8 hhcurveto
          -78 -20 9 93 85 13 20 51 hvcurveto
          20 99 -20 hlineto
          -51 -6 30 70 87 12 13 101 35 49 -3 -4 32 hvcurveto
          89 vlineto
          10 -46 -63 7 -44 hhcurveto
          -129 -62 -41 -136 -102 27 -47 54 -17 hvcurveto
          -4 vlineto
          -56 -16 -30 -38 -114 vvcurveto
          -139 50 -50 138 49 68 8 9 44 vhcurveto
          289 64 99 vlineto
          endchar
        </CharString>
        <CharString name="aogonek">
          27 322 -131 rmoveto
          -29 -8 18 19 38 30 39 18 17 hvcurveto
          316 vlineto
          153 -33 49 -126 -55 -50 -7 -6 -28 vhcurveto
          -90 vlineto
          2 10 48 5 40 hhcurveto
          73 8 -9 -88 hvcurveto
          -28 vlineto
          2 -22 -37 2 -22 hhcurveto
          -91 -28 -41 -113 -106 24 -49 82 38 39 18 52 12 hvcurveto
          -61 callgsubr
          27 hlineto
          -32 -31 -23 -40 -43 vvcurveto
          -41 23 -41 4 callgsubr
          -102 323 rmoveto
          -33 -2 -22 -4 -17 vhcurveto
          -23 -8 -17 -3 -20 hhcurveto
          -36 -5 16 46 56 9 11 33 hvcurveto
          50 hlineto
          endchar
        </CharString>
        <CharString name="approxequal">
          96 52 267 rmoveto
          70 hlineto
          28 13 callsubr
          -8 33 hhcurveto
          78 2 44 79 hvcurveto
          -69 hlineto
          -28 -2 -11 -21 -16 -21 7 5 -24 vhcurveto
          8 -31 -36 9 -33 hhcurveto
          -78 -3 -44 -80 hvcurveto
          -163 vmoveto
          70 hlineto
          29 13 callsubr
          -9 33 hhcurveto
          78 2 44 80 hvcurveto
          3 callgsubr
          10 -33 hhcurveto
          -78 -3 -45 -80 hvcurveto
          endchar
        </CharString>
        <CharString name="aring">
          27 185 594 -90 callgsubr
          -59 -662 -107 callgsubr
          endchar
        </CharString>
        <CharString name="aringacute">
          27 138 849 -99 callgsubr
          47 -241 -90 callgsubr
          -59 -681 -107 callgsubr
          endchar
        </CharString>
        <CharString name="arrowboth">
          540 332 170 rmoveto
          -32 86 rlineto
          282 hlineto
          -31 -86 16 callsubr
          -282 hlineto
          32 85 -277 -135 rlineto
          endchar
        </CharString>
        <CharString name="arrowdown">
          52 198 -85 rmoveto
          134 277 -85 -32 rlineto
          528 -97 -528 vlineto
          -87 32 rlineto
          endchar
        </CharString>
        <CharString name="arrowdown.ss01">
          2 173 171 rmoveto
          142 285 rlineto
          -285 hlineto
          endchar
        </CharString>
        <CharString name="arrowleft">
          540 297 256 rmoveto
          531 98 -530 hlineto
          31 85 -274 -135 274 -134 rlineto
          endchar
        </CharString>
        <CharString name="arrowleft.ss01">
          20 315 201 rmoveto
          285 vlineto
          -285 -143 rlineto
          endchar
        </CharString>
        <CharString name="arrowright">
          540 551 170 rmoveto
          16 callsubr
          -527 -98 527 hlineto
          endchar
        </CharString>
        <CharString name="arrowright.ss01">
          20 48 201 rmoveto
          285 142 -285 143 rlineto
          endchar
        </CharString>
        <CharString name="arrowup">
          52 150 -82 rmoveto
          97 527 hlineto
          85 -31 -134 277 -135 -277 87 31 rlineto
          endchar
        </CharString>
        <CharString name="arrowup.ss01">
          2 30 231 rmoveto
          285 hlineto
          -142 285 rlineto
          endchar
        </CharString>
        <CharString name="arrowupdn">
          -31 callsubr
          endchar
        </CharString>
        <CharString name="arrowupdnbse">
          -31 callsubr
          -8 -395 rmoveto
          285 81 -285 hlineto
          endchar
        </CharString>
        <CharString name="asciicircum">
          31 257 489 rmoveto
          101 hlineto
          -121 261 rlineto
          -101 hlineto
          -121 -261 rlineto
          101 hlineto
          71 171 rlineto
          endchar
        </CharString>
        <CharString name="asciitilde">
          96 386 371 rmoveto
          3 callgsubr
          9 -33 hhcurveto
          -78 -3 -44 -80 hvcurveto
          70 hlineto
          29 2 11 20 16 22 -7 -6 24 vhcurveto
          -7 31 35 -9 34 hhcurveto
          78 2 44 80 hvcurveto
          endchar
        </CharString>
        <CharString name="asterisk">
          47 221 488 rmoveto
          92 -64 36 62 -101 47 100 47 -35 63 -92 -64 10 109 rlineto
          -71 hlineto
          9 -109 -92 63 -35 -62 99 -47 -99 -47 35 -62 92 64 -9 -109 rlineto
          71 hlineto
          endchar
        </CharString>
        <CharString name="asterisk.ss02">
          474 178 -14 rmoveto
          231 170 231 -170 -90 276 232 174 rlineto
          -288 hlineto
          -85 269 -87 -269 rlineto
          -287 hlineto
          234 -174 rlineto
          endchar
        </CharString>
        <CharString name="at">
          259 303 -108 rmoveto
          86 18 0 2 22 hvcurveto
          55 vlineto
          -2 -18 -42 -1 -66 hhcurveto
          -29 -25 0 1 -17 hvcurveto
          -127 8 -1 49 290 vvcurveto
          283 1 54 109 9 vhcurveto
          2 28 28 0 33 hhcurveto
          43 33 0 -4 25 hvcurveto
          98 -14 1 -62 -268 vvcurveto
          -163 -7 -2 -33 vhcurveto
          -34 216 hlineto
          129 -25 44 -103 -34 -38 -4 -7 -36 vhcurveto
          -79 vlineto
          4 30 26 2 23 hhcurveto
          57 5 -7 -74 hvcurveto
          -24 vlineto
          2 -29 -23 2 -11 hhcurveto
          -73 -23 -35 -98 -90 20 -42 65 30 31 16 43 9 hvcurveto
          6 hlineto
          4 -52 rlineto
          119 hlineto
          72 28 3 216 357 -6 45 -250 -249 -7 -45 -357 -357 7 -45 249 hvcurveto
          -7 264 rmoveto
          -27 -3 14 38 48 6 9 24 hvcurveto
          38 -26 hlineto
          -67 -7 -16 -31 vhcurveto
          endchar
        </CharString>
        <CharString name="atilde">
          27 322 743 rmoveto
          -107 callsubr
          -196 -751 -107 callgsubr
          endchar
        </CharString>
        <CharString name="b">
          47 246 -8 rmoveto
          89 26 51 212 202 -20 61 -93 -49 -28 -21 -43 -11 hvcurveto
          -8 289 -113 -743 107 hlineto
          4 61 rlineto
          8 hlineto
          -55 12 40 -14 36 hhcurveto
          -46 102 rmoveto
          -24 -14 8 31 -5 hvcurveto
          -5 26 0 37 59 vvcurveto
          65 1 37 5 23 vhcurveto
          28 6 13 8 23 hhcurveto
          44 4 -9 -152 -153 -4 -8 -44 hvcurveto
          endchar
        </CharString>
        <CharString name="backslash">
          -53 168 -55 rmoveto
          101 hlineto
          -146 798 rlineto
          -102 hlineto
          endchar
        </CharString>
        <CharString name="bar">
          -132 52 -161 rmoveto
          107 904 -107 hlineto
          endchar
        </CharString>
        <CharString name="bar.ss02">
          155 -1 hmoveto
          500 696 -500 hlineto
          endchar
        </CharString>
        <CharString name="braceleft">
          -57 191 -150 rmoveto
          73 hlineto
          -48 58 -14 39 91 vvcurveto
          109 vlineto
          75 -26 55 -64 16 vhcurveto
          7 vlineto
          64 16 26 55 75 vvcurveto
          109 vlineto
          91 14 40 48 57 -37 callgsubr
          -59 -32 -42 -74 -70 vvcurveto
          -127 vlineto
          -58 -12 -51 -58 -9 vhcurveto
          -52 vlineto
          58 -8 12 -52 -57 vvcurveto
          -127 vlineto
          -70 42 -74 59 -32 vhcurveto
          endchar
        </CharString>
        <CharString name="braceright">
          -57 22 -150 rmoveto
          73 hlineto
          59 32 42 74 70 vvcurveto
          127 vlineto
          57 12 52 58 8 vhcurveto
          52 vlineto
          -58 9 -12 51 58 vvcurveto
          127 vlineto
          70 -42 74 -59 32 -37 callgsubr
          48 -58 14 -39 -91 vvcurveto
          -109 vlineto
          -75 26 -55 65 -16 vhcurveto
          -7 vlineto
          -65 -16 -26 -55 -75 vvcurveto
          -109 vlineto
          -91 -14 -40 -48 -57 vhcurveto
          endchar
        </CharString>
        <CharString name="bracketleft">
          -82 45 -150 rmoveto
          188 75 hlineto
          -76 4 rlineto
          736 vlineto
          76 4 rlineto
          74 -188 vlineto
          endchar
        </CharString>
        <CharString name="bracketleft.ss02">
          54 397 hmoveto
          696 vlineto
          -207 -145 -143 -205 hvcurveto
          -348 vlineto
          endchar
        </CharString>
        <CharString name="bracketright">
          -82 28 -150 rmoveto
          189 893 -189 -74 hlineto
          76 -4 rlineto
          -736 vlineto
          -76 -4 rlineto
          endchar
        </CharString>
        <CharString name="bracketright.ss02">
          54 0 vmoveto
          352 348 hlineto
          10 callsubr
          vhcurveto
          endchar
        </CharString>
        <CharString name="breve">
          -106 237 -73 callsubr
          endchar
        </CharString>
        <CharString name="brokenbar">
          -132 52 390 rmoveto
          107 353 -107 hlineto
          -904 vmoveto
          107 353 -107 hlineto
          endchar
        </CharString>
        <CharString name="bullet">
          -91 218 342 rmoveto
          81 -4 12 -89 -86 -4 -12 -81 -77 4 -12 86 89 4 12 77 vhcurveto
          endchar
        </CharString>
        <CharString name="bullet.ss02">
          440 392 421 rmoveto
          62 50 39 73 90 -76 73 -36 -37 -76 -73 -90 -73 50 -39 63 hvcurveto
          60 vmoveto
          -30 -23 18 34 57 36 46 17 17 35 -46 -57 -34 -23 -18 -29 hvcurveto
          -189 -250 rmoveto
          73 39 50 63 62 -39 50 -73 -90 -73 -76 -36 -37 73 -76 90 hvcurveto
          378 hmoveto
          89 73 76 37 36 -73 76 -89 -74 -39 -50 -62 -63 39 -50 74 hvcurveto
          -378 60 rmoveto
          -57 -46 36 17 17 46 35 57 34 18 -23 -29 -30 -18 -23 -34 hvcurveto
          378 hmoveto
          -35 -18 23 30 29 18 23 35 56 46 -35 -17 -17 -46 -36 -56 hvcurveto
          -189 -299 rmoveto
          36 76 73 90 73 -50 39 -62 -63 -50 -39 -73 -90 76 -73 37 hvcurveto
          60 vmoveto
          -17 -36 46 57 34 23 18 30 29 23 -18 -34 -57 -35 -46 -17 hvcurveto
          endchar
        </CharString>
        <CharString name="c">
          -49 274 5 -86 callsubr
        </CharString>
        <CharString name="cacute">
          -49 98 598 -99 callgsubr
          176 -598 -86 callsubr
        </CharString>
        <CharString name="cacute.loclPLK">
          -49 98 598 rmoveto
          -74 callsubr
          176 -598 -86 callsubr
        </CharString>
        <CharString name="caron">
          -93 67 616 -97 callsubr
          endchar
        </CharString>
        <CharString name="caron.loclCSY">
          -155 25 430 rmoveto
          83 hlineto
          40 -41 callsubr
          endchar
        </CharString>
        <CharString name="ccaron">
          -49 89 616 -97 callsubr
          252 -730 -86 callsubr
        </CharString>
        <CharString name="ccedilla">
          -49 274 94 rmoveto
          -3 -20 -24 -3 -19 hhcurveto
          -60 -9 13 154 151 9 16 59 18 24 -3 -3 19 hvcurveto
          90 vlineto
          8 -25 -34 4 -35 hhcurveto
          -121 -27 -69 -194 -144 11 -81 71 -28 hvcurveto
          -59 -186 rlineto
          -5 97 vlineto
          34 181 rlineto
          29 32 4 9 30 hvcurveto
          endchar
        </CharString>
        <CharString name="ccircumflex">
          -49 22 616 -106 callgsubr
          252 -618 -86 callsubr
        </CharString>
        <CharString name="cdotaccent">
          -49 97 -30 callgsubr
          177 -725 -86 callsubr
        </CharString>
        <CharString name="cedilla">
          -202 4 -2 callgsubr
        </CharString>
        <CharString name="cent">
          -32 142 -8 rmoveto
          84 78 hlineto
          20 3 21 4 16 5 rrcurveto
          92 vlineto
          -3 -24 -25 -3 -16 hhcurveto
          -62 -9 17 158 156 9 17 62 18 15 -2 -3 29 hvcurveto
          93 vlineto
          -14 5 -20 3 -20 3 rrcurveto
          81 -84 -84 vlineto
          -88 -17 -21 -76 -177 vvcurveto
          -166 14 -85 95 -19 vhcurveto
          endchar
        </CharString>
        <CharString name="cent.bold">
          -32 283 174 rmoveto
          -23 -3 -17 -2 -17 -1 rrcurveto
          348 vlineto
          13 -1 16 -1 25 -3 rrcurveto
          93 vlineto
          -18 5 -17 4 -19 2 rrcurveto
          81 -84 -83 vlineto
          -94 -18 -15 -86 -167 vvcurveto
          -160 14 -94 95 -17 vhcurveto
          -79 84 78 vlineto
          19 2 16 4 22 6 rrcurveto
          endchar
        </CharString>
        <CharString name="circumflex">
          -93 616 vmoveto
          79 hlineto
          45 71 47 -71 rlineto
          79 7 hlineto
          -68 120 rlineto
          -115 hlineto
          -67 -120 rlineto
          endchar
        </CharString>
        <CharString name="colon">
          7 callsubr
          -510 vmoveto
          124 121 -124 hlineto
          endchar
        </CharString>
        <CharString name="comma">
          -125 42 -91 -21 callgsubr
        </CharString>
        <CharString name="copyright">
          168 256 -8 rmoveto
          15 callsubr
          12 callgsubr
          hvcurveto
          44 -22 callgsubr
          14 120 rmoveto
          17 20 4 5 13 hvcurveto
          55 vlineto
          -1 -9 -16 -2 -13 hhcurveto
          -37 -2 10 117 117 2 10 37 12 15 -2 -1 10 hvcurveto
          56 vlineto
          5 -9 -21 3 -19 hhcurveto
          -81 -12 -42 -146 -146 11 -42 82 hvcurveto
          endchar
        </CharString>
        <CharString name="currency">
          157 100 7 rmoveto
          76 77 rlineto
          -6 19 24 -3 30 hhcurveto
          31 24 3 6 20 hvcurveto
          77 -77 70 71 -76 77 rlineto
          13 40 3 60 91 vvcurveto
          89 -3 60 -14 40 vhcurveto
          77 77 -70 71 -78 -78 rlineto
          6 -19 -24 3 -31 hhcurveto
          -30 -23 -2 -7 -19 hvcurveto
          -77 78 -71 -71 75 -75 rlineto
          -14 -41 -2 -60 -90 vvcurveto
          -92 2 -61 15 -39 vhcurveto
          -76 -77 rlineto
          220 95 rmoveto
          -46 -2 13 161 158 2 13 46 46 3 -13 -158 -161 -3 -13 -46 hvcurveto
          endchar
        </CharString>
        <CharString name="d">
          47 -79 callgsubr
          46 102 -74 callgsubr
          endchar
        </CharString>
        <CharString name="dagger">
          -12 123 hmoveto
          84 hlineto
          8 426 -19 callgsubr
          endchar
        </CharString>
        <CharString name="daggerdbl">
          -12 123 hmoveto
          84 hlineto
          8 162 84 9 rlineto
          82 vlineto
          -84 10 rlineto
          163 vlineto
          -19 callgsubr
          -163 vlineto
          -82 -10 rlineto
          -82 vlineto
          82 -9 rlineto
          endchar
        </CharString>
        <CharString name="dcaron">
          125 -79 callgsubr
          237 438 rmoveto
          83 hlineto
          40 -41 callsubr
          -206 -538 -74 callgsubr
          endchar
        </CharString>
        <CharString name="dcroat">
          47 389 688 rmoveto
          -38 55 -113 -55 -87 -96 87 -138 -7 hlineto
          43 -12 -28 21 -49 hhcurveto
          -92 -21 -61 -202 -212 26 -51 89 36 40 14 55 13 hvcurveto
          7 hlineto
          4 -61 rlineto
          107 592 38 hlineto
          -155 -456 rmoveto
          -34 -6 -24 callsubr
          -43 -5 8 153 152 5 9 42 26 13 -8 -40 6 hvcurveto
          4 -24 0 -36 -49 vvcurveto
          -56 0 -36 -4 -31 vhcurveto
          endchar
        </CharString>
        <CharString name="degree">
          -56 144 -25 callsubr
          62 vmoveto
          0 callsubr
          endchar
        </CharString>
        <CharString name="dialog">
          462 306 -212 rmoveto
          213 212 rlineto
          227 688 -687 -688 247 60 -187 568 567 -568 -192 hlineto
          -188 -187 rlineto
          endchar
        </CharString>
        <CharString name="dieresis">
          -64 7 633 -85 callsubr
          endchar
        </CharString>
        <CharString name="divide">
          104 172 368 rmoveto
          102 86 -102 hlineto
          -120 -251 rmoveto
          5 callsubr
          120 -251 rmoveto
          102 87 -102 hlineto
          endchar
        </CharString>
        <CharString name="dollar">
          11 140 -8 rmoveto
          85 84 hlineto
          63 14 33 46 105 vvcurveto
          124 -37 18 -48 10 vhcurveto
          -57 11 rlineto
          -26 5 -5 4 51 vvcurveto
          42 13 13 47 1 vhcurveto
          23 39 -4 -5 29 hvcurveto
          92 vlineto
          -15 6 -31 6 -28 2 rrcurveto
          79 -85 -81 vlineto
          -68 -12 -38 -45 -99 vvcurveto
          -102 19 -36 66 -15 vhcurveto
          56 -12 rlineto
          27 -5 7 -3 -55 vvcurveto
          -52 -22 -8 -47 -28 -43 3 5 -25 vhcurveto
          -92 vlineto
          23 -7 40 -6 33 -2 rrcurveto
          endchar
        </CharString>
        <CharString name="dollar.bold">
          11 321 241 rmoveto
          124 -37 18 -48 10 vhcurveto
          -11 2 rlineto
          124 vlineto
          22 -2 30 -2 22 -4 rrcurveto
          92 vlineto
          -13 5 -28 6 -33 3 rrcurveto
          79 -85 -81 vlineto
          -75 -13 -31 -52 -91 vvcurveto
          -102 19 -36 65 -15 vhcurveto
          22 -5 rlineto
          -130 vlineto
          -30 -42 3 5 -24 hvcurveto
          -92 vlineto
          33 -9 29 -4 34 -2 rrcurveto
          -80 85 83 vlineto
          67 15 29 55 96 vvcurveto
          endchar
        </CharString>
        <CharString name="dotaccent">
          -237 4 -30 callgsubr
          endchar
        </CharString>
        <CharString name="dotbelowcomb">
          -171 -183 -91 callsubr
        </CharString>
        <CharString name="dotlessi">
          -152 39 hmoveto
          113 -62 callsubr
          hlineto
          endchar
        </CharString>
        <CharString name="e">
          27 341 255 -105 callgsubr
          endchar
        </CharString>
        <CharString name="eacute">
          27 293 738 -72 callsubr
          103 -343 -105 callgsubr
          endchar
        </CharString>
        <CharString name="ebreve">
          27 184 610 rmoveto
          -63 callgsubr
          hvcurveto
          -73 hlineto
          -39 -1 -26 -45 -45 0 26 39 -37 callgsubr
          -77 13 -56 105 vhcurveto
          157 -355 -105 callgsubr
          endchar
        </CharString>
        <CharString name="ecaron">
          27 242 616 rmoveto
          68 119 rlineto
          8 -79 vlineto
          -47 -71 -45 71 rlineto
          -79 -8 hlineto
          67 -119 rlineto
          214 -361 -105 callgsubr
          endchar
        </CharString>
        <CharString name="ecircumflex">
          27 192 687 -72 callgsubr
          194 -361 -105 callgsubr
          endchar
        </CharString>
        <CharString name="edieresis">
          27 158 730 -16 callgsubr
          18 -378 -105 callgsubr
          endchar
        </CharString>
        <CharString name="edotaccent">
          27 234 730 19 callsubr
          107 -378 -105 callgsubr
          endchar
        </CharString>
        <CharString name="egrave">
          27 242 598 -69 callgsubr
          191 -343 -105 callgsubr
          endchar
        </CharString>
        <CharString name="eight">
          61 202 14 callgsubr
          -56 13 callgsubr
          -54 38 -114 -114 -54 -8 callsubr
          47 -49 127 vhcurveto
          406 vmoveto
          -45 -6 11 85 86 5 12 46 46 5 -12 -86 -85 -6 -11 -45 hvcurveto
          -302 vmoveto
          -44 -9 12 88 91 7 11 46 46 7 -11 -91 -88 -9 -12 -44 hvcurveto
          endchar
        </CharString>
        <CharString name="eight.dnom">
          -102 120 -4 -95 callgsubr
        </CharString>
        <CharString name="eight.numr">
          -102 120 304 -95 callgsubr
        </CharString>
        <CharString name="eight.tnum">
          60 201 14 callgsubr
          -55 13 callgsubr
          -55 38 -114 -113 -55 -8 callsubr
          48 -49 126 vhcurveto
          406 vmoveto
          -44 -7 11 85 86 6 12 45 46 6 -12 -86 -85 -7 -11 -45 hvcurveto
          -302 vmoveto
          -44 -8 12 88 91 6 11 46 46 7 -11 -91 -88 -8 -12 -45 hvcurveto
          endchar
        </CharString>
        <CharString name="ellipsis">
          310 47 hmoveto
          124 121 -124 hlineto
          218 -121 -47 callgsubr
          217 -121 -91 callsubr
        </CharString>
        <CharString name="emacron">
          27 272 743 18 callgsubr
          69 -384 -105 callgsubr
          endchar
        </CharString>
        <CharString name="emdash">
          450 44 256 rmoveto
          706 98 -706 hlineto
          endchar
        </CharString>
        <CharString name="endash">
          87 44 256 rmoveto
          342 98 -342 hlineto
          endchar
        </CharString>
        <CharString name="eng">
          49 256 518 rmoveto
          -25 callgsubr
          hvcurveto
          -43 callsubr
          -510 113 256 hlineto
          129 0 31 47 40 -44 callgsubr
          -342 vlineto
          -37 -1 -15 -50 vhcurveto
          -87 vlineto
          129 35 15 179 hvcurveto
          341 vlineto
          129 -14 50 -86 vhcurveto
          endchar
        </CharString>
        <CharString name="eogonek">
          27 341 255 rmoveto
          192 -3 71 -147 -153 -9 -81 -183 -184 9 -78 158 13 14 0 2 15 vhcurveto
          -28 -30 -22 -37 -40 vvcurveto
          -42 23 -41 4 callsubr
          -29 -8 18 19 42 35 40 21 18 hvcurveto
          -97 callgsubr
          endchar
        </CharString>
        <CharString name="equal">
          104 52 289 rmoveto
          5 callsubr
          -272 vmoveto
          5 callsubr
          endchar
        </CharString>
        <CharString name="estimated">
          80 152 323 rmoveto
          239 21 hlineto
          275 -5 77 -175 -174 -5 -77 -275 -274 5 -78 174 136 31 49 159 7 vhcurveto
          -36 hlineto
          -169 -8 -42 -5 -67 hhcurveto
          -72 -8 6 291 hvcurveto
          59 339 rmoveto
          53 6 -6 -299 hvcurveto
          -118 hlineto
          299 7 6 52 vhcurveto
          endchar
        </CharString>
        <CharString name="eth">
          17 callsubr
          76 -5 65 -6 46 hvcurveto
          -10 73 -15 58 -19 49 47 7 rcurveline
          68 vlineto
          -76 -12 -11 20 -11 18 -12 16 rlinecurve
          -114 -4 hlineto
          13 -20 14 -22 13 -24 -53 -8 rcurveline
          -68 vlineto
          81 13 13 -32 9 -35 8 -36 rlinecurve
          -3 -3 rlineto
          -42 callsubr
        </CharString>
        <CharString name="exclam">
          -116 78 209 rmoveto
          -55 callgsubr
          -26 -209 -47 callgsubr
          endchar
        </CharString>
        <CharString name="exclam.case">
          -116 78 209 rmoveto
          -55 callgsubr
          -26 -209 -47 callgsubr
          endchar
        </CharString>
        <CharString name="exclam.ss02">
          451 397 -8 rmoveto
          194 158 158 194 194 -158 158 -194 -194 -158 -158 -194 -194 158 -158 194 hvcurveto
          45 vmoveto
          -169 -138 138 169 169 138 138 169 169 138 -138 -169 -169 -138 -138 -169 hvcurveto
          -20 231 rmoveto
          40 hlineto
          8 55 6 88 69 vvcurveto
          99 -68 -99 vlineto
          -69 6 -88 8 -55 vhcurveto
          -14 -159 rmoveto
          68 82 -68 hlineto
          endchar
        </CharString>
        <CharString name="exclamdbl">
          75 78 209 rmoveto
          -55 callgsubr
          190 hmoveto
          -55 callgsubr
          -216 -209 -47 callgsubr
          190 -121 -47 callgsubr
          endchar
        </CharString>
        <CharString name="exclamdown">
          -116 52 389 -33 callsubr
        </CharString>
        <CharString name="exclamdown.case">
          -116 52 567 -33 callsubr
        </CharString>
        <CharString name="f">
          -79 64 hmoveto
          -71 callgsubr
          endchar
        </CharString>
        <CharString name="f_f">
          185 64 hmoveto
          -71 callgsubr
          264 -414 rmoveto
          -71 callgsubr
          endchar
        </CharString>
        <CharString name="fi">
          112 64 hmoveto
          -71 callgsubr
          238 216 -49 callsubr
          1 -27 callgsubr
        </CharString>
        <CharString name="five">
          35 38 108 rmoveto
          -99 vlineto
          -10 40 -32 callgsubr
          40 3 28 22 callgsubr
          -42 3 4 -39 hvcurveto
          endchar
        </CharString>
        <CharString name="five.dnom">
          -107 35 63 -70 callsubr
          endchar
        </CharString>
        <CharString name="five.numr">
          -107 35 371 -70 callsubr
          endchar
        </CharString>
        <CharString name="five.tnum">
          60 45 108 rmoveto
          -99 vlineto
          -10 41 -32 callgsubr
          41 3 27 22 callgsubr
          -43 3 4 -39 hvcurveto
          endchar
        </CharString>
        <CharString name="fiveeighths">
          256 112 hmoveto
          -12 callgsubr
          -376 -317 -70 callsubr
          443 -375 -95 callgsubr
        </CharString>
        <CharString name="fl">
          112 64 hmoveto
          -71 callgsubr
          239 -414 rmoveto
          -30 callsubr
          endchar
        </CharString>
        <CharString name="florin">
          29 354 658 rmoveto
          18 85 rlineto
          -153 -34 -14 -213 -45 hvcurveto
          -1 -6 rlineto
          -51 hlineto
          -21 -96 rlineto
          52 hlineto
          -95 -450 rlineto
          -68 -15 -11 -7 -60 hhcurveto
          -18 -85 rlineto
          152 34 15 174 36 hvcurveto
          90 421 rlineto
          70 hlineto
          20 96 rlineto
          -70 hlineto
          2 10 rlineto
          132 28 12 6 60 hhcurveto
          endchar
        </CharString>
        <CharString name="four">
          50 212 hmoveto
          120 140 48 109 -48 190 -89 hlineto
          -30 -190 rlineto
          -83 hlineto
          111 439 rlineto
          -123 hlineto
          -102 -454 rlineto
          -94 196 vlineto
          endchar
        </CharString>
        <CharString name="four.dnom">
          -111 126 hmoveto
          -26 callgsubr
        </CharString>
        <CharString name="four.numr">
          -111 126 308 rmoveto
          -26 callgsubr
        </CharString>
        <CharString name="four.ss01">
          53 212 hmoveto
          120 140 47 109 -47 439 -192 hlineto
          -124 -459 rlineto
          -89 196 vlineto
          -96 109 rmoveto
          91 326 rlineto
          6 -326 hlineto
          endchar
        </CharString>
        <CharString name="four.tnum">
          60 219 hmoveto
          119 140 48 109 -48 190 -88 hlineto
          -31 -190 rlineto
          -88 hlineto
          116 439 rlineto
          -122 hlineto
          -108 -454 rlineto
          -94 202 vlineto
          endchar
        </CharString>
        <CharString name="fraction">
          -221 -124 hmoveto
          -12 callgsubr
          endchar
        </CharString>
        <CharString name="g">
          47 181 -203 -100 callsubr
        </CharString>
        <CharString name="g_tilde.loclGUA">
          47 331 743 rmoveto
          -107 callsubr
          -150 -946 -100 callsubr
        </CharString>
        <CharString name="gbreve">
          47 313 -73 callsubr
          -132 -946 -100 callsubr
        </CharString>
        <CharString name="gcaron">
          47 137 616 -97 callsubr
          111 -938 -100 callsubr
        </CharString>
        <CharString name="gcircumflex">
          47 70 616 -106 callgsubr
          111 -826 -100 callsubr
        </CharString>
        <CharString name="gcommaaccent">
          47 258 -19 callsubr
          -77 -960 -100 callsubr
        </CharString>
        <CharString name="gdotaccent">
          47 145 -30 callgsubr
          36 -933 -100 callsubr
        </CharString>
        <CharString name="germandbls">
          53 213 hmoveto
          133 20 79 169 135 -26 50 -61 15 hvcurveto
          4 vlineto
          58 13 26 42 83 vvcurveto
          116 -50 44 -112 -123 -39 -61 -144 vhcurveto
          -545 113 547 vlineto
          92 11 15 38 35 13 -13 -67 -67 -8 -14 -35 vhcurveto
          -8 -96 8 hlineto
          39 8 -15 -127 -150 -4 -9 -45 hvcurveto
          -10 -96 hlineto
          endchar
        </CharString>
        <CharString name="grave">
          -196 55 598 -90 callsubr
          endchar
        </CharString>
        <CharString name="gravecomb">
          -92 598 -90 callsubr
          endchar
        </CharString>
        <CharString name="gravecomb.case">
          -92 743 -90 callsubr
          endchar
        </CharString>
        <CharString name="greater">
          105 52 75 -10 callsubr
          endchar
        </CharString>
        <CharString name="greaterequal">
          113 59 193 -10 callsubr
          1 -251 rmoveto
          5 callsubr
          endchar
        </CharString>
        <CharString name="guillemotleft">
          26 -4 callsubr
          214 -192 rmoveto
          83 hlineto
          -54 192 54 193 rlineto
          -83 hlineto
          -70 -193 rlineto
          endchar
        </CharString>
        <CharString name="guillemotright">
          26 38 125 -28 callsubr
          90 -192 -28 callsubr
          endchar
        </CharString>
        <CharString name="guilsinglleft">
          -119 -4 callsubr
          endchar
        </CharString>
        <CharString name="guilsinglright">
          -119 38 125 -28 callsubr
          endchar
        </CharString>
        <CharString name="h">
          49 243 hmoveto
          -60 callgsubr
          endchar
        </CharString>
        <CharString name="hbar">
          49 256 518 rmoveto
          -45 -37 -18 -48 -14 hvcurveto
          -8 140 88 96 -88 55 -113 -55 -38 -96 38 -592 113 256 hlineto
          129 0 31 47 40 -44 callgsubr
          -285 -5 callgsubr
          vlineto
          129 -14 50 -86 vhcurveto
          endchar
        </CharString>
        <CharString name="hcircumflex">
          49 -29 794 -106 callgsubr
          272 -801 rmoveto
          -60 callgsubr
          endchar
        </CharString>
        <CharString name="hookabovecomb">
          -192 614 rmoveto
          74 hlineto
          23 1 0 -105 callsubr
          -11 hvcurveto
          -79 callsubr
          endchar
        </CharString>
        <CharString name="hookabovecomb.case">
          -192 733 rmoveto
          74 hlineto
          22 1 1 -105 callsubr
          -12 hvcurveto
          -11 callgsubr
          endchar
        </CharString>
        <CharString name="house">
          125 22 hmoveto
          424 357 hlineto
          -156 344 -9 callsubr
          -156 -344 rlineto
          115 -261 rmoveto
          254 vlineto
          97 228 97 -228 rlineto
          -254 vlineto
          endchar
        </CharString>
        <CharString name="hungarumlaut">
          -89 5 612 -80 callgsubr
          endchar
        </CharString>
        <CharString name="hyphen">
          9 callgsubr
        </CharString>
        <CharString name="i">
          -20 callgsubr
          endchar
        </CharString>
        <CharString name="i.loclTRK">
          -152 46 -30 callgsubr
          -7 -730 -64 callsubr
        </CharString>
        <CharString name="iacute">
          -152 39 598 -99 callgsubr
          -603 vmoveto
          113 -62 callsubr
          hlineto
          endchar
        </CharString>
        <CharString name="iacute_j.loclNLD">
          39 47 598 -99 callgsubr
          191 -5 -99 callgsubr
          -199 -603 -69 callsubr
          140 -706 -78 callgsubr
        </CharString>
        <CharString name="ibreve">
          -152 214 -73 callsubr
          -175 -27 callgsubr
        </CharString>
        <CharString name="icircumflex">
          -152 -29 616 -106 callgsubr
          68 -623 -64 callsubr
        </CharString>
        <CharString name="idieresis">
          -152 -37 633 -85 callsubr
          -89 -730 -64 callsubr
        </CharString>
        <CharString name="igrave">
          -152 59 598 -90 callsubr
          35 -738 -64 callsubr
        </CharString>
        <CharString name="ij">
          39 -6 callsubr
          191 -113 -49 callsubr
          -190 -743 -69 callsubr
          140 -706 -78 callgsubr
        </CharString>
        <CharString name="imacron">
          -152 9 639 -68 callgsubr
          30 -27 callgsubr
        </CharString>
        <CharString name="infinity">
          334 193 38 rmoveto
          80 40 44 64 25 hvcurveto
          -64 25 40 -44 80 hhcurveto
          113 37 79 139 138 -37 81 -113 -80 -40 -45 -61 -25 hvcurveto
          61 -25 -40 45 -80 hhcurveto
          -113 -38 -81 -138 -139 38 -79 113 hvcurveto
          10 88 rmoveto
          -51 -10 53 77 76 10 55 51 47 31 -52 -79 9 hvcurveto
          -76 -9 -31 -54 -47 hhcurveto
          270 hmoveto
          -47 -31 54 76 -9 hvcurveto
          79 9 31 52 47 hhcurveto
          51 9 -55 -76 -77 -9 -53 -51 hvcurveto
          endchar
        </CharString>
        <CharString name="integral">
          -67 27 -190 rmoveto
          127 50 3 145 6 0 6 -2 58 hvcurveto
          -19 480 rlineto
          16 -1 14 13 vvcurveto
          55 5 3 54 vhcurveto
          87 -23 callgsubr
          -50 -3 -134 -10 0 -11 1 -18 hvcurveto
          21 -498 rlineto
          2 -62 0 -9 -9 vvcurveto
          -41 -11 -3 -48 vhcurveto
          endchar
        </CharString>
        <CharString name="iogonek">
          -152 145 730 19 callsubr
          7 -633 rmoveto
          -62 callsubr
          -510 32 vlineto
          -32 -31 -23 -40 -42 vvcurveto
          -43 23 -40 4 callgsubr
          -29 -8 18 19 37 30 40 19 17 hvcurveto
          endchar
        </CharString>
        <CharString name="itilde">
          -152 232 743 rmoveto
          -107 callsubr
          -193 -27 callgsubr
        </CharString>
        <CharString name="j">
          8 callsubr
          -50 -939 -78 callgsubr
        </CharString>
        <CharString name="jcircumflex">
          -152 -29 616 -106 callgsubr
          17 -819 -78 callgsubr
        </CharString>
        <CharString name="k">
          -39 callgsubr
          440 -113 -743 113 206 28 hlineto
          endchar
        </CharString>
        <CharString name="kcommaaccent">
          -39 callgsubr
          440 -113 -743 113 206 28 hlineto
          -54 -427 -87 callgsubr
        </CharString>
        <CharString name="kgreenlandic">
          -39 callgsubr
          207 -113 -510 113 206 28 hlineto
          endchar
        </CharString>
        <CharString name="l">
          -152 -12 callsubr
          endchar
        </CharString>
        <CharString name="lacute">
          -152 47 776 -99 callgsubr
          -8 -781 rmoveto
          -30 callsubr
          endchar
        </CharString>
        <CharString name="lcaron">
          -68 -12 callsubr
          143 -313 rmoveto
          83 hlineto
          40 -41 callsubr
          endchar
        </CharString>
        <CharString name="lcommaaccent">
          -152 -12 callsubr
          -2 -964 -87 callgsubr
        </CharString>
        <CharString name="ldot">
          -61 -12 callsubr
          146 -505 rmoveto
          107 121 -107 hlineto
          endchar
        </CharString>
        <CharString name="leftOpenDialog">
          265 626 628 rmoveto
          60 -626 -688 626 60 -566 568 vlineto
          endchar
        </CharString>
        <CharString name="less">
          105 395 75 -4 callgsubr
          endchar
        </CharString>
        <CharString name="lessequal">
          105 395 193 -4 callgsubr
          -1 -277 rmoveto
          343 100 -343 hlineto
          endchar
        </CharString>
        <CharString name="logicalnot">
          104 294 74 rmoveto
          101 222 -343 -101 242 hlineto
          endchar
        </CharString>
        <CharString name="longs">
          -92 64 hmoveto
          113 577 hlineto
          75 10 6 60 vhcurveto
          85 vlineto
          -153 -30 -14 -181 hvcurveto
          -38 -51 -96 51 vlineto
          endchar
        </CharString>
        <CharString name="lozenge">
          69 151 hmoveto
          110 hlineto
          134 344 -134 344 rlineto
          -110 hlineto
          -134 -344 rlineto
          189 -247 rmoveto
          -86 247 86 248 86 -248 rlineto
          endchar
        </CharString>
        <CharString name="lslash">
          -146 40 hmoveto
          113 328 hlineto
          39 14 rlineto
          102 vlineto
          -39 -14 rlineto
          313 -113 -354 vlineto
          -35 -12 rlineto
          -102 vlineto
          35 12 rlineto
          endchar
        </CharString>
        <CharString name="m">
          248 441 hmoveto
          113 345 hlineto
          123 -17 50 -83 -50 -32 -20 -50 -17 vhcurveto
          -8 hlineto
          47 -10 -26 23 -55 hhcurveto
          -51 -31 -21 -49 -16 hvcurveto
          -43 callsubr
          -510 113 256 hlineto
          129 0 31 46 38 -44 callgsubr
          -285 113 256 vlineto
          132 0 28 46 39 3 -8 -123 vhcurveto
          endchar
        </CharString>
        <CharString name="macron">
          -73 48 639 -68 callgsubr
          endchar
        </CharString>
        <CharString name="minus">
          104 52 203 rmoveto
          5 callsubr
          endchar
        </CharString>
        <CharString name="minute">
          -155 31 370 -9 callgsubr
          endchar
        </CharString>
        <CharString name="multiply">
          78 211 183 rmoveto
          88 -88 70 70 -87 88 87 88 -70 71 -88 -88 -88 88 -71 -71 88 -88 -87 -88 70 -70 rlineto
          endchar
        </CharString>
        <CharString name="n">
          49 243 hmoveto
          -84 callgsubr
        </CharString>
        <CharString name="nacute">
          49 147 598 -99 callgsubr
          96 -603 rmoveto
          -84 callgsubr
        </CharString>
        <CharString name="nacute.loclPLK">
          49 147 598 rmoveto
          -74 callsubr
          96 -603 rmoveto
          -84 callgsubr
        </CharString>
        <CharString name="napostrophe">
          145 14 564 -22 callsubr
          63 -118 -93 45 -14 vlineto
          -55 -7 -17 -42 vhcurveto
          325 -564 rmoveto
          -84 callgsubr
        </CharString>
        <CharString name="ncaron">
          49 138 616 -97 callsubr
          172 -735 rmoveto
          -84 callgsubr
        </CharString>
        <CharString name="ncommaaccent">
          49 243 hmoveto
          -83 callgsubr
          -106 -506 -87 callgsubr
        </CharString>
        <CharString name="nine">
          49 168 -8 rmoveto
          93 51 29 82 26 hvcurveto
          17 50 5 80 112 vvcurveto
          113 -4 77 -11 50 vhcurveto
          93 -21 -46 18 -89 hhcurveto
          -134 -30 -57 -181 -183 40 -20 81 49 29 22 27 11 hvcurveto
          8 -20 callsubr
          -43 -8 7 callgsubr
          -6 -12 -45 hvcurveto
          endchar
        </CharString>
        <CharString name="nine.dnom">
          -107 100 -4 -65 callgsubr
        </CharString>
        <CharString name="nine.numr">
          -107 100 304 -65 callgsubr
        </CharString>
        <CharString name="nine.ss01">
          51 73 hmoveto
          129 hlineto
          32 42 136 176 233 vvcurveto
          156 -23 89 -148 -149 -25 -85 -135 -126 14 -93 111 31 21 7 13 15 vhcurveto
          5 -4 -42 -131 -78 -101 -29 -35 rlinecurve
          124 358 rmoveto
          -39 -14 1 110 101 10 12 43 41 11 -7 -112 -98 -13 -7 -39 hvcurveto
          endchar
        </CharString>
        <CharString name="nine.tnum">
          60 174 -8 rmoveto
          90 50 26 70 26 hvcurveto
          21 57 5 82 118 vvcurveto
          137 -5 85 -18 48 vhcurveto
          67 -25 -45 14 -78 hhcurveto
          -133 -31 -57 -181 -183 40 -20 81 51 28 22 27 11 hvcurveto
          7 -20 callsubr
          -42 -9 7 callgsubr
          -5 -12 -46 hvcurveto
          endchar
        </CharString>
        <CharString name="notequal">
          104 198 118 rmoveto
          196 99 -149 hlineto
          36 72 rlineto
          113 100 -67 hlineto
          42 86 rlineto
          -85 hlineto
          -42 -86 rlineto
          -190 -100 143 hlineto
          -36 -72 rlineto
          -107 -99 61 hlineto
          -40 -83 rlineto
          86 hlineto
          endchar
        </CharString>
        <CharString name="ntilde">
          49 336 743 rmoveto
          -107 callsubr
          -93 -743 rmoveto
          -84 callgsubr
        </CharString>
        <CharString name="numbersign">
          144 249 hmoveto
          82 hlineto
          19 184 rlineto
          80 83 -73 hlineto
          16 152 rlineto
          74 83 -66 hlineto
          19 186 rlineto
          -81 hlineto
          -20 -186 rlineto
          -88 hlineto
          19 186 rlineto
          -82 hlineto
          -19 -186 rlineto
          -73 -83 65 hlineto
          -16 -152 rlineto
          -66 -83 59 hlineto
          -19 -184 rlineto
          81 hlineto
          19 184 rlineto
          89 hlineto
          24 235 rmoveto
          -17 -152 rlineto
          -89 hlineto
          17 152 rlineto
          endchar
        </CharString>
        <CharString name="o">
          38 190 -8 -103 callgsubr
          endchar
        </CharString>
        <CharString name="oacute">
          38 137 598 -99 callgsubr
          53 -611 -103 callgsubr
          endchar
        </CharString>
        <CharString name="oacute.loclPLK">
          38 141 598 rmoveto
          -74 callsubr
          49 -611 -103 callgsubr
          endchar
        </CharString>
        <CharString name="obreve">
          38 308 -73 callsubr
          -118 -751 -103 callgsubr
          endchar
        </CharString>
        <CharString name="ocircumflex">
          38 67 616 -106 callgsubr
          123 -631 -103 callgsubr
          endchar
        </CharString>
        <CharString name="odieresis">
          38 60 633 -85 callsubr
          -35 -738 -103 callgsubr
          endchar
        </CharString>
        <CharString name="oe">
          237 551 255 rmoveto
          192 -3 71 -147 -49 -32 -11 -26 -21 vhcurveto
          27 -23 -33 10 -53 18 callsubr
          -211 14 -52 147 53 33 10 27 23 hvcurveto
          -26 23 33 -11 51 hhcurveto
          -36 callsubr
          31 hvcurveto
          -15 callsubr
          -24 -58 -4 -28 hhcurveto
          -76 -4 16 117 hvcurveto
          199 hlineto
          -361 -133 rmoveto
          -46 -2 13 154 153 2 14 46 47 2 -14 -153 -154 -2 -13 -47 hvcurveto
          210 334 rmoveto
          39 7 -10 -108 hvcurveto
          -5 -94 vlineto
          112 6 11 42 vhcurveto
          endchar
        </CharString>
        <CharString name="ogonek">
          -207 136 -192 rmoveto
          -35 callsubr
        </CharString>
        <CharString name="ograve">
          38 147 598 -90 callsubr
          98 -746 -103 callgsubr
          endchar
        </CharString>
        <CharString name="ohorn">
          38 322 601 -89 callsubr
        </CharString>
        <CharString name="ohungarumlaut">
          38 99 612 -80 callgsubr
          -32 -624 -103 callgsubr
          endchar
        </CharString>
        <CharString name="omacron">
          38 103 639 -68 callgsubr
          87 -751 -103 callgsubr
          endchar
        </CharString>
        <CharString name="one">
          -76 101 hmoveto
          121 688 -93 hlineto
          -113 -64 rlineto
          -114 vlineto
          85 36 rlineto
          endchar
        </CharString>
        <CharString name="one.dnom">
          -180 55 hmoveto
          5 callgsubr
        </CharString>
        <CharString name="one.numr">
          -180 55 308 rmoveto
          5 callgsubr
        </CharString>
        <CharString name="one.tnum">
          60 55 hmoveto
          317 109 -96 579 -92 hlineto
          -126 -67 rlineto
          -113 vlineto
          98 40 rlineto
          -439 -101 vlineto
          endchar
        </CharString>
        <CharString name="oneeighth">
          247 -52 callsubr
          69 -692 -95 callgsubr
        </CharString>
        <CharString name="onehalf">
          233 86 315 rmoveto
          76 373 -57 hlineto
          -65 -38 rlineto
          -73 vlineto
          46 21 rlineto
          285 90 rmoveto
          -298 -688 rlineto
          71 hlineto
          298 688 rlineto
          -17 -609 rmoveto
          32 -1 14 17 11 vhcurveto
          17 12 19 12 15 10 rrcurveto
          24 14 19 19 71 vvcurveto
          100 -44 7 -52 -25 -35 -4 -6 -27 vhcurveto
          -64 vlineto
          3 34 21 2 14 hhcurveto
          32 7 -5 -38 -26 -6 -10 -15 -10 hvcurveto
          -57 -37 rlineto
          -31 -20 -1 -27 -92 vvcurveto
          -47 185 69 -110 vlineto
          endchar
        </CharString>
        <CharString name="onequarter">
          212 -52 callsubr
          45 -688 rmoveto
          76 -14 callsubr
          110 vlineto
          endchar
        </CharString>
        <CharString name="ordfeminine">
          -50 102 306 rmoveto
          27 26 15 34 10 hvcurveto
          6 hlineto
          4 -43 rlineto
          82 234 hlineto
          113 -25 37 -94 -31 -37 -4 -6 -31 vhcurveto
          -69 vlineto
          3 29 24 2 20 hhcurveto
          53 5 -6 -63 hvcurveto
          -20 vlineto
          2 -17 -25 1 -16 hhcurveto
          -68 -21 -30 -85 -78 18 -37 61 hvcurveto
          33 79 rmoveto
          -26 -4 11 32 40 7 8 23 hvcurveto
          35 -21 hlineto
          -22 0 -17 -4 -10 vhcurveto
          -16 -6 -9 -5 -16 hhcurveto
          endchar
        </CharString>
        <CharString name="ordmasculine">
          -43 150 307 rmoveto
          110 11 39 155 156 -11 39 -110 -110 -11 -39 -156 -155 11 -39 110 hvcurveto
          74 vmoveto
          -32 -2 9 111 112 2 9 32 33 1 -9 -112 -111 -1 -9 -33 hvcurveto
          endchar
        </CharString>
        <CharString name="orn.001">
          -6 289 341 rmoveto
          105 -6 17 -117 -112 -6 -17 -105 -102 6 -16 112 117 6 16 102 vhcurveto
          endchar
        </CharString>
        <CharString name="orn.002">
          206 210 -58 callsubr
          63 101 -53 callsubr
          121 87 -7 callgsubr
          -29 -21 22 28 29 21 21 29 28 22 -21 -29 -28 -22 -22 -28 hvcurveto
          endchar
        </CharString>
        <CharString name="orn.003">
          72 211 -58 callsubr
          63 101 -53 callsubr
          63 101 -29 callgsubr
          endchar
        </CharString>
        <CharString name="orn.007">
          -6 168 222 rmoveto
          67 54 53 67 67 -54 54 -67 -67 -53 -54 -67 -67 53 -53 67 hvcurveto
          endchar
        </CharString>
        <CharString name="orn.010">
          451 397 hmoveto
          352 348 hlineto
          10 callsubr
          2 callgsubr
          vhcurveto
          endchar
        </CharString>
        <CharString name="orn.015">
          3 callsubr
          187 60 -187 hlineto
          187 -272 rmoveto
          213 212 rlineto
          167 60 -192 hlineto
          -188 -187 rlineto
          endchar
        </CharString>
        <CharString name="orn.016">
          3 callsubr
          567 60 -567 hlineto
          endchar
        </CharString>
        <CharString name="orn.017">
          -283 0 vmoveto
          60 688 -60 hlineto
          endchar
        </CharString>
        <CharString name="orn.018">
          449 211 -58 callsubr
          370 hmoveto
          99 62 67 110 126 vvcurveto
          125 -67 111 -99 62 vhcurveto
          -32 -51 rlineto
          82 -51 56 -92 -104 vvcurveto
          -105 -55 -91 -83 -52 vhcurveto
          -275 51 -53 callsubr
          244 hmoveto
          65 41 44 73 83 vvcurveto
          83 -44 73 -66 41 vhcurveto
          -32 -51 rlineto
          49 -31 33 -54 -61 vvcurveto
          -62 -33 -53 -48 -31 vhcurveto
          -149 50 -29 callgsubr
          118 hmoveto
          -26 callsubr
        </CharString>
        <CharString name="orn.019">
          206 338 -55 callsubr
          -89 36 -7 callgsubr
          -28 -22 22 28 29 22 21 28 29 21 -21 -29 -28 -21 -22 -29 hvcurveto
          endchar
        </CharString>
        <CharString name="orn.020">
          72 204 -55 callsubr
          -31 50 rmoveto
          -26 callsubr
        </CharString>
        <CharString name="orn.021">
          410 376 -116 rmoveto
          187 97 145 200 183 vvcurveto
          188 -149 144 -183 -183 -148 -144 -188 -182 145 -201 186 -97 vhcurveto
          endchar
        </CharString>
        <CharString name="orn.022">
          46 171 220 rmoveto
          98 80 83 40 40 -80 83 -98 -81 -42 -55 -68 -68 42 -55 81 hvcurveto
          endchar
        </CharString>
        <CharString name="oslash">
          38 29 -55 -62 callgsubr
        </CharString>
        <CharString name="oslash.bold">
          38 352 565 rmoveto
          -101 hlineto
          -18 -49 rlineto
          1 -13 -14 1 -16 18 callsubr
          -115 4 -68 28 -38 hvcurveto
          -32 -89 rlineto
          101 hlineto
          18 49 rlineto
          -1 12 14 -1 16 hhcurveto
          148 14 52 211 115 -4 68 -28 37 hvcurveto
          -130 -53 rmoveto
          10 hlineto
          -58 -161 rlineto
          147 3 14 45 vhcurveto
          -334 vmoveto
          -9 hlineto
          58 161 rlineto
          -148 -3 -13 -46 vhcurveto
          endchar
        </CharString>
        <CharString name="oslashacute">
          38 141 598 -99 callgsubr
          -112 -658 -62 callgsubr
        </CharString>
        <CharString name="otilde">
          38 328 743 rmoveto
          -107 callsubr
          -138 -751 -103 callgsubr
          endchar
        </CharString>
        <CharString name="p">
          47 39 -196 rmoveto
          113 252 -3 callsubr
          -36 -40 -14 -55 -12 hvcurveto
          -8 hlineto
          -4 61 rlineto
          -107 hlineto
          161 -416 rmoveto
          -24 -13 8 39 -7 hvcurveto
          -3 17 -1 37 60 vvcurveto
          60 0 37 4 23 vhcurveto
          33 6 14 8 24 6 callsubr
        </CharString>
        <CharString name="paragraph">
          70 128 -144 rmoveto
          93 832 -93 hlineto
          -93 -13 -31 -203 -203 13 -29 93 hvcurveto
          139 -366 rmoveto
          94 832 -94 hlineto
          endchar
        </CharString>
        <CharString name="parenleft">
          -86 142 -150 rmoveto
          96 hlineto
          -52 104 -28 47 296 vvcurveto
          296 27 46 53 104 vhcurveto
          -96 hlineto
          -71 -126 -27 -58 -262 vvcurveto
          -263 26 -49 72 -135 vhcurveto
          endchar
        </CharString>
        <CharString name="parenleft.ss02">
          54 397 hmoveto
          696 vlineto
          2 callgsubr
          hvcurveto
          endchar
        </CharString>
        <CharString name="parenright">
          -86 19 -150 rmoveto
          96 hlineto
          71 135 27 49 263 vvcurveto
          262 -27 58 -71 126 vhcurveto
          -96 hlineto
          53 -104 26 -46 -296 vvcurveto
          -296 -27 -47 -52 -104 vhcurveto
          endchar
        </CharString>
        <CharString name="parenright.ss02">
          54 0 vmoveto
          207 145 144 204 10 callsubr
          hvcurveto
          endchar
        </CharString>
        <CharString name="partialdiff">
          17 callsubr
          71 -4 61 -9 72 hvcurveto
          -15 112 -39 102 -51 66 rrcurveto
          -114 -4 hlineto
          41 -59 37 -74 20 -99 -3 -3 rcurveline
          -42 callsubr
        </CharString>
        <CharString name="percent">
          309 158 312 -11 callsubr
          -27 -312 rmoveto
          70 hlineto
          320 688 rlineto
          -69 hlineto
          -294 -311 rmoveto
          -29 -5 5 121 123 5 8 callgsubr
          337 -385 -11 callsubr
          65 vmoveto
          -29 -4 5 121 123 4 8 callgsubr
          endchar
        </CharString>
        <CharString name="period">
          -125 47 hmoveto
          124 121 -124 hlineto
          endchar
        </CharString>
        <CharString name="periodcentered">
          -125 47 238 -91 callsubr
        </CharString>
        <CharString name="perthousand">
          459 146 358 rmoveto
          92 12 38 131 131 -12 38 -92 -91 -13 -38 -131 -131 13 -38 91 hvcurveto
          -59 -358 rmoveto
          69 hlineto
          320 688 rlineto
          -68 hlineto
          -262 -270 rmoveto
          -26 -3 2 107 107 3 3 26 26 3 -3 -107 -107 -3 -2 -26 hvcurveto
          275 -426 rmoveto
          91 13 38 131 130 -13 39 -91 -92 -12 -39 -130 -131 12 -38 92 hvcurveto
          235 hmoveto
          92 12 38 131 130 -12 39 -92 -91 -13 -39 -130 -131 13 -38 91 hvcurveto
          -235 59 rmoveto
          0 callgsubr
          235 hmoveto
          0 callgsubr
          endchar
        </CharString>
        <CharString name="pi">
          48 239 hmoveto
          113 510 -313 -510 113 419 87 hlineto
          endchar
        </CharString>
        <CharString name="plus">
          104 174 82 -7 callsubr
          endchar
        </CharString>
        <CharString name="plusminus">
          104 174 200 -7 callsubr
          -122 -279 rmoveto
          342 101 -342 hlineto
          endchar
        </CharString>
        <CharString name="product">
          94 274 -189 rmoveto
          120 877 -351 -877 120 768 111 hlineto
          endchar
        </CharString>
        <CharString name="q">
          47 238 -196 rmoveto
          113 706 -107 hlineto
          -4 -61 rlineto
          -7 hlineto
          55 -13 -40 14 -36 hhcurveto
          -89 -26 -51 -212 -202 21 -61 92 49 28 21 43 12 hvcurveto
          7 hlineto
          -48 38 20 callsubr
          153 153 5 8 43 25 13 -8 -30 5 hvcurveto
          5 -27 0 -37 -59 vvcurveto
          -64 -1 -37 -3 -20 vhcurveto
          -32 -7 -14 -8 -23 hhcurveto
          endchar
        </CharString>
        <CharString name="question">
          -60 callsubr
        </CharString>
        <CharString name="question.case">
          -60 callsubr
        </CharString>
        <CharString name="questiondown">
          -29 143 389 -59 callgsubr
        </CharString>
        <CharString name="questiondown.case">
          -9 141 567 -59 callgsubr
        </CharString>
        <CharString name="quotedbl">
          -4 53 430 rmoveto
          83 hlineto
          12 -41 callsubr
          163 -202 rmoveto
          83 hlineto
          13 -41 callsubr
          endchar
        </CharString>
        <CharString name="quotedblbase">
          35 42 -86 rmoveto
          -39 callsubr
          167 hmoveto
          -39 callsubr
          endchar
        </CharString>
        <CharString name="quotedblleft">
          30 44 435 -24 callgsubr
          -107 -14 -38 -130 hvcurveto
          167 -85 -24 callgsubr
          -108 -13 -38 -130 hvcurveto
          endchar
        </CharString>
        <CharString name="quotedblright">
          30 -23 callsubr
          167 hmoveto
          -52 vlineto
          108 13 38 130 hvcurveto
          85 -117 -114 44 -15 vlineto
          -54 -7 -18 -41 vhcurveto
          endchar
        </CharString>
        <CharString name="quoteleft">
          -137 44 435 -24 callgsubr
          -107 -14 -38 -130 hvcurveto
          endchar
        </CharString>
        <CharString name="quoteright">
          -137 -23 callsubr
          endchar
        </CharString>
        <CharString name="quotesinglbase">
          -133 42 -86 rmoveto
          -39 callsubr
          endchar
        </CharString>
        <CharString name="quotesingle">
          -155 53 430 rmoveto
          83 hlineto
          12 -41 callsubr
          endchar
        </CharString>
        <CharString name="r">
          -28 callgsubr
          endchar
        </CharString>
        <CharString name="racute">
          -72 87 598 -99 callgsubr
          -48 -603 rmoveto
          -78 callsubr
          endchar
        </CharString>
        <CharString name="radical">
          151 163 -106 rmoveto
          176 hlineto
          126 876 rlineto
          -118 hlineto
          -100 -751 -72 322 -165 -66 23 -76 48 18 rlineto
          endchar
        </CharString>
        <CharString name="rcaron">
          -72 78 616 -97 callsubr
          28 -735 rmoveto
          -78 callsubr
          endchar
        </CharString>
        <CharString name="rcommaaccent">
          -28 callgsubr
          -2 -731 -87 callgsubr
        </CharString>
        <CharString name="registered">
          168 256 696 rmoveto
          12 callgsubr
          15 callsubr
          hvcurveto
          -660 -22 callgsubr
          93 373 rmoveto
          76 -9 43 -74 vhcurveto
          -99 -368 66 130 25 hlineto
          30 -130 rlineto
          69 hlineto
          -38 144 rlineto
          26 19 4 39 47 vvcurveto
          -94 -60 rmoveto
          -22 117 22 hlineto
          25 3 -9 -49 -50 -3 -9 -25 hvcurveto
          endchar
        </CharString>
        <CharString name="rightCloseDialog">
          240 624 688 rmoveto
          -625 -60 565 -568 -190 hlineto
          -188 -187 rlineto
          -85 vlineto
          213 212 rlineto
          225 hlineto
          -438 60 rmoveto
          -187 -60 187 hlineto
          endchar
        </CharString>
        <CharString name="rightOpenDialog">
          240 625 688 rmoveto
          -626 -60 566 -568 -566 -60 626 hlineto
          endchar
        </CharString>
        <CharString name="ring">
          -114 115 613 -90 callgsubr
          endchar
        </CharString>
        <CharString name="s">
          -66 callsubr
          endchar
        </CharString>
        <CharString name="sacute">
          -26 110 598 -99 callgsubr
          46 -611 -96 callsubr
          endchar
        </CharString>
        <CharString name="sacute.loclPLK">
          -26 110 598 rmoveto
          -74 callsubr
          46 -611 -96 callsubr
          endchar
        </CharString>
        <CharString name="scaron">
          -26 104 616 -97 callsubr
          119 -743 -96 callsubr
          endchar
        </CharString>
        <CharString name="scedilla">
          -26 300 156 rmoveto
          118 -37 18 -40 7 vhcurveto
          -61 12 rlineto
          -26 5 -4 4 48 vvcurveto
          43 15 11 41 26 38 -4 -5 26 vhcurveto
          89 vlineto
          10 -26 -47 6 -39 hhcurveto
          -93 -54 -40 -114 -98 18 -37 45 -8 hvcurveto
          71 -14 rlineto
          30 -6 6 -3 -52 vvcurveto
          -44 -17 -14 -48 -28 -42 4 4 -25 vhcurveto
          -88 vlineto
          23 -7 35 -5 33 -3 -56 -177 rcurveline
          -5 97 vlineto
          34 184 rlineto
          69 10 36 44 107 vvcurveto
          endchar
        </CharString>
        <CharString name="scircumflex">
          -26 34 616 -106 callgsubr
          122 -631 -96 callsubr
          endchar
        </CharString>
        <CharString name="scommaaccent">
          -66 callsubr
          -56 -213 -87 callgsubr
        </CharString>
        <CharString name="second">
          -9 31 370 -9 callgsubr
          129 -318 -9 callgsubr
          endchar
        </CharString>
        <CharString name="section">
          82 194 -170 rmoveto
          102 59 45 126 56 -10 33 -23 23 hvcurveto
          49 16 25 45 95 vvcurveto
          120 -67 26 -49 23 vhcurveto
          -66 31 rlineto
          -20 9 -6 7 43 vvcurveto
          48 15 12 47 32 45 -4 -5 25 vhcurveto
          99 vlineto
          9 -22 -48 9 -51 hhcurveto
          -102 -59 -44 -127 -57 10 -31 23 -25 hvcurveto
          -49 -16 -25 -44 -95 vvcurveto
          -118 65 -26 45 -21 vhcurveto
          69 -33 rlineto
          24 -12 6 -4 -45 vvcurveto
          -48 -16 -11 -46 -31 -45 4 4 -27 vhcurveto
          -99 vlineto
          -10 28 51 -8 42 hhcurveto
          58 339 rmoveto
          -2 -4 1 4 -8 hvcurveto
          -68 35 rlineto
          -16 8 -7 20 39 vvcurveto
          52 11 29 15 3 3 -1 -5 10 vhcurveto
          71 -35 rlineto
          11 -7 7 -20 -39 vvcurveto
          -52 -11 -29 -15 vhcurveto
          endchar
        </CharString>
        <CharString name="semicolon">
          7 callsubr
          -5 -601 -21 callgsubr
        </CharString>
        <CharString name="seven">
          9 50 hmoveto
          124 hlineto
          167 592 rlineto
          96 -324 -109 200 vlineto
          endchar
        </CharString>
        <CharString name="seven.dnom">
          -139 30 hmoveto
          -16 callsubr
          endchar
        </CharString>
        <CharString name="seven.numr">
          -139 30 308 rmoveto
          -16 callsubr
          endchar
        </CharString>
        <CharString name="seven.tnum">
          60 76 hmoveto
          125 hlineto
          172 592 rlineto
          96 -330 -109 206 vlineto
          endchar
        </CharString>
        <CharString name="seveneighths">
          199 55 hmoveto
          -12 callgsubr
          -324 -380 rmoveto
          -16 callsubr
          299 -629 -95 callgsubr
        </CharString>
        <CharString name="six">
          49 203 -8 rmoveto
          134 30 57 181 183 -40 20 -81 -55 -25 -27 -22 -8 hvcurveto
          -9 hlineto
          178 7 25 90 27 44 -4 -6 32 vhcurveto
          100 vlineto
          11 -37 -52 8 -36 hhcurveto
          -95 -49 -29 -88 -28 hvcurveto
          -15 -46 -5 -80 -110 vvcurveto
          -110 3 -77 9 -40 vhcurveto
          -106 24 45 -18 90 hhcurveto
          -2 108 rmoveto
          -41 -10 9 113 90 6 12 45 42 9 -4 -108 -104 -9 -8 -42 hvcurveto
          endchar
        </CharString>
        <CharString name="six.dnom">
          -107 124 -4 -65 callsubr
        </CharString>
        <CharString name="six.numr">
          -107 124 304 -65 callsubr
        </CharString>
        <CharString name="six.ss01">
          51 195 -8 rmoveto
          148 26 85 135 126 -14 93 -112 -30 -21 -7 -13 -16 hvcurveto
          -4 4 27 89 64 112 58 66 rlinecurve
          6 -129 vlineto
          -100 -119 -68 -176 -156 vvcurveto
          -157 22 -88 149 vhcurveto
          2 108 rmoveto
          -41 -12 7 112 98 14 7 39 39 13 -1 -110 -101 -10 -12 -42 hvcurveto
          endchar
        </CharString>
        <CharString name="six.tnum">
          60 208 -8 rmoveto
          133 31 57 181 183 -40 20 -81 -46 -32 -19 -30 -10 hvcurveto
          -9 hlineto
          178 7 25 89 29 44 -4 -6 31 vhcurveto
          100 vlineto
          11 -35 -52 8 -38 hhcurveto
          -87 -49 -24 -73 -30 hvcurveto
          -21 -48 -6 -85 -123 vvcurveto
          -113 4 -77 11 -46 vhcurveto
          -97 22 46 -18 89 hhcurveto
          -2 108 rmoveto
          -41 -11 9 113 90 6 12 46 42 9 -4 -108 -104 -10 -8 -41 hvcurveto
          endchar
        </CharString>
        <CharString name="slash">
          -53 21 -55 rmoveto
          102 hlineto
          146 798 rlineto
          -101 hlineto
          endchar
        </CharString>
        <CharString name="space">
          -193 endchar
        </CharString>
        <CharString name="sterling">
          25 198 109 rmoveto
          192 99 109 -99 42 vlineto
          72 4 35 18 16 vhcurveto
          9 10 14 3 21 hhcurveto
          20 28 -3 -4 18 hvcurveto
          104 vlineto
          7 -23 -40 5 -32 hhcurveto
          -137 -21 -77 -169 hvcurveto
          -40 -50 -109 50 -192 -50 -109 307 109 vlineto
          endchar
        </CharString>
        <CharString name="summation">
          94 45 -189 rmoveto
          347 109 -216 hlineto
          155 329 -155 330 rlineto
          216 109 -347 -104 hlineto
          156 -335 -156 -333 rlineto
          endchar
        </CharString>
        <CharString name="t">
          -85 64 hmoveto
          -45 callsubr
          endchar
        </CharString>
        <CharString name="tbar">
          -85 246 414 rmoveto
          96 -69 148 -113 -148 -51 -96 51 -102 -48 -97 48 -215 113 215 68 97 -68 102 vlineto
          endchar
        </CharString>
        <CharString name="tcaron">
          14 275 430 rmoveto
          83 hlineto
          40 -41 callsubr
          -226 -632 rmoveto
          -45 callsubr
          endchar
        </CharString>
        <CharString name="thorn">
          47 39 -189 rmoveto
          113 245 -3 callsubr
          -39 -36 -17 -50 -11 hvcurveto
          -8 292 -113 hlineto
          161 -649 rmoveto
          -25 -13 8 46 -7 hvcurveto
          -2 18 -1 36 53 vvcurveto
          53 0 36 4 23 vhcurveto
          41 6 13 8 25 6 callsubr
        </CharString>
        <CharString name="three">
          19 161 -8 rmoveto
          126 48 51 138 114 -30 39 -55 15 hvcurveto
          4 vlineto
          52 16 27 48 102 vvcurveto
          139 -56 38 -112 14 callsubr
          28 hhcurveto
          70 14 -9 -81 -83 -16 -12 -43 -13 callgsubr
          40 62 -7 44 hhcurveto
          endchar
        </CharString>
        <CharString name="three.dnom">
          -124 96 -4 -76 callsubr
          endchar
        </CharString>
        <CharString name="three.numr">
          -124 96 304 -76 callsubr
          endchar
        </CharString>
        <CharString name="three.tnum">
          60 185 -8 rmoveto
          127 47 51 138 114 -29 39 -56 15 hvcurveto
          4 vlineto
          53 16 26 48 102 vvcurveto
          139 -55 38 -113 14 callsubr
          29 hhcurveto
          69 15 -9 -81 -83 -16 -12 -44 -13 callgsubr
          41 62 -7 43 hhcurveto
          endchar
        </CharString>
        <CharString name="threeeighths">
          239 96 304 -76 callsubr
          -1 -304 rmoveto
          -12 callgsubr
          67 -692 -95 callgsubr
        </CharString>
        <CharString name="threequarters">
          255 42 381 rmoveto
          -64 vlineto
          -6 30 33 -4 21 hhcurveto
          -54 callgsubr
          74 -381 rmoveto
          71 hlineto
          298 688 rlineto
          -71 hlineto
          42 -688 rmoveto
          77 -14 callsubr
          109 vlineto
          endchar
        </CharString>
        <CharString name="tilde">
          -70 273 743 rmoveto
          -46 callsubr
        </CharString>
        <CharString name="tildecomb">
          743 -47 callsubr
        </CharString>
        <CharString name="tildecomb.case">
          888 -47 callsubr
        </CharString>
        <CharString name="trademark">
          139 77 387 rmoveto
          53 251 47 50 -147 -50 47 hlineto
          132 -251 rmoveto
          50 230 4 hlineto
          31 -230 rlineto
          58 hlineto
          31 230 rlineto
          4 -230 51 301 -84 hlineto
          -27 -220 rlineto
          -4 hlineto
          -29 220 rlineto
          -85 hlineto
          endchar
        </CharString>
        <CharString name="two">
          35 149 128 rmoveto
          58 0 27 6 16 vhcurveto
          5 13 8 6 11 7 34 23 32 21 31 -18 callgsubr
          46 3 27 hhcurveto
          64 14 -8 -82 -64 -13 -12 -32 -21 hvcurveto
          -93 -61 rlineto
          1 callgsubr
        </CharString>
        <CharString name="two.dnom">
          -115 96 71 -61 callsubr
        </CharString>
        <CharString name="two.numr">
          -115 96 379 -61 callsubr
        </CharString>
        <CharString name="two.tnum">
          60 163 128 rmoveto
          52 0 27 5 18 vhcurveto
          4 15 8 7 12 8 36 23 32 21 30 -18 callgsubr
          47 3 27 hhcurveto
          64 14 -8 -82 -64 -14 -12 -32 -21 hvcurveto
          -31 -20 -29 -20 -33 -21 rrcurveto
          1 callgsubr
        </CharString>
        <CharString name="u">
          49 246 hmoveto
          107 -62 callsubr
          -102 callsubr
          endchar
        </CharString>
        <CharString name="uacute">
          49 146 598 -99 callgsubr
          100 -603 rmoveto
          107 -62 callsubr
          -102 callsubr
          endchar
        </CharString>
        <CharString name="ubreve">
          49 314 -73 callsubr
          -68 -743 rmoveto
          107 -62 callsubr
          -102 callsubr
          endchar
        </CharString>
        <CharString name="ucircumflex">
          49 71 616 -106 callgsubr
          175 -623 rmoveto
          107 -62 callsubr
          -102 callsubr
          endchar
        </CharString>
        <CharString name="udieresis">
          49 63 633 -85 callsubr
          18 -730 rmoveto
          107 -62 callsubr
          -102 callsubr
          endchar
        </CharString>
        <CharString name="ugrave">
          49 155 598 -90 callsubr
          146 -738 rmoveto
          107 -62 callsubr
          -102 callsubr
          endchar
        </CharString>
        <CharString name="uhorn">
          49 339 601 rmoveto
          -36 vlineto
          -40 -8 -15 -42 vhcurveto
          -49 -102 callsubr
          4 -62 rlineto
          107 461 hlineto
          -57 callsubr
          endchar
        </CharString>
        <CharString name="uhungarumlaut">
          49 105 612 -80 callgsubr
          18 -616 rmoveto
          107 -62 callsubr
          -102 callsubr
          endchar
        </CharString>
        <CharString name="umacron">
          49 109 639 -68 callgsubr
          137 -743 rmoveto
          107 -62 callsubr
          -102 callsubr
          endchar
        </CharString>
        <CharString name="underscore">
          0 -184 vmoveto
          343 98 -343 hlineto
          endchar
        </CharString>
        <CharString name="underscoredbl">
          0 -162 vmoveto
          343 84 -343 hlineto
          -201 vmoveto
          343 84 -343 hlineto
          endchar
        </CharString>
        <CharString name="uni00AD">
          9 callgsubr
        </CharString>
        <CharString name="uni00B2">
          -76 116 394 rmoveto
          -52 callgsubr
          69 -110 vlineto
          endchar
        </CharString>
        <CharString name="uni00B3">
          -76 126 307 rmoveto
          -54 callgsubr
          -64 vlineto
          -6 30 33 -4 21 hhcurveto
          endchar
        </CharString>
        <CharString name="uni00B5">
          -46 callgsubr
        </CharString>
        <CharString name="uni00B9">
          -136 87 315 rmoveto
          76 373 -56 hlineto
          -66 -38 rlineto
          -73 vlineto
          46 21 rlineto
          endchar
        </CharString>
        <CharString name="uni0162">
          6 7 688 rmoveto
          -111 107 -577 23 12 callsubr
          24 577 107 111 hlineto
          endchar
        </CharString>
        <CharString name="uni0163">
          -85 177 510 rmoveto
          148 -113 -148 -51 -96 51 -414 20 12 callsubr
          19 414 69 96 hlineto
          endchar
        </CharString>
        <CharString name="uni018F">
          80 195 696 rmoveto
          -49 -44 -7 -10 -28 hvcurveto
          -99 vlineto
          4 24 37 3 30 hhcurveto
          90 14 -17 -168 1 hvcurveto
          -238 -58 hlineto
          -274 5 -78 174 175 5 78 274 269 -23 83 -173 vhcurveto
          16 -595 rmoveto
          -56 -9 6 186 -1 hvcurveto
          132 hlineto
          -186 -1 -8 -6 -57 hhcurveto
          endchar
        </CharString>
        <CharString name="uni019D">
          96 282 688 rmoveto
          -361 -6 vlineto
          -119 361 rlineto
          -114 -745 hlineto
          -37 -1 -15 -49 vhcurveto
          -87 vlineto
          130 35 15 179 hvcurveto
          390 4 vlineto
          127 -388 rlineto
          107 688 hlineto
          endchar
        </CharString>
        <CharString name="uni01C4">
          435 547 761 -97 callsubr
          -437 -880 rmoveto
          -58 callgsubr
        </CharString>
        <CharString name="uni01C5">
          408 527 616 -97 callsubr
          -417 -735 rmoveto
          -77 callsubr
          238 -109 rmoveto
          -81 callsubr
          endchar
        </CharString>
        <CharString name="uni01C6">
          382 -79 callgsubr
          348 624 -97 callsubr
          -9 -735 rmoveto
          -81 callsubr
          -226 5 -74 callgsubr
          endchar
        </CharString>
        <CharString name="uni01C7">
          213 43 hmoveto
          -49 callgsubr
          274 -585 -73 callgsubr
        </CharString>
        <CharString name="uni01C8">
          159 349 -38 callgsubr
          -306 -743 rmoveto
          -49 callgsubr
          256 -884 -78 callgsubr
        </CharString>
        <CharString name="uni01C9">
          39 -12 callsubr
          190 -113 -49 callsubr
          -50 -939 -78 callgsubr
        </CharString>
        <CharString name="uni01CA">
          341 289 hmoveto
          -82 callgsubr
          283 -285 -73 callgsubr
        </CharString>
        <CharString name="uni01CB">
          287 477 -38 callgsubr
          -188 -743 rmoveto
          -82 callgsubr
          265 -584 -78 callgsubr
        </CharString>
        <CharString name="uni01CC">
          240 430 -38 callgsubr
          -187 -743 rmoveto
          -83 callgsubr
          137 -481 -78 callgsubr
        </CharString>
        <CharString name="uni01CD">
          79 154 761 -97 callsubr
          205 -880 rmoveto
          -103 callsubr
          endchar
        </CharString>
        <CharString name="uni01CD.ss01">
          83 155 761 -97 callsubr
          179 -880 -102 callgsubr
        </CharString>
        <CharString name="uni01CE">
          27 127 616 -97 callsubr
          66 -743 -107 callgsubr
          endchar
        </CharString>
        <CharString name="uni01CF">
          -133 47 761 -97 callsubr
          65 -880 -64 callgsubr
        </CharString>
        <CharString name="uni01D0">
          -152 38 616 -97 callsubr
          68 -735 -64 callsubr
        </CharString>
        <CharString name="uni01D1">
          80 153 761 -97 callsubr
          125 -888 -104 callsubr
          endchar
        </CharString>
        <CharString name="uni01D2">
          38 132 616 -97 callsubr
          125 -743 -103 callgsubr
          endchar
        </CharString>
        <CharString name="uni01D3">
          83 155 761 -97 callsubr
          179 -192 -99 callsubr
        </CharString>
        <CharString name="uni01D4">
          49 138 616 -97 callsubr
          175 -735 rmoveto
          107 -62 callsubr
          -102 callsubr
          endchar
        </CharString>
        <CharString name="uni01D5">
          83 128 897 rmoveto
          174 90 -174 hlineto
          -47 -209 6 callgsubr
          -187 -99 callsubr
        </CharString>
        <CharString name="uni01D6">
          49 111 799 -68 callgsubr
          -47 -270 -85 callsubr
          17 -730 rmoveto
          107 -62 callsubr
          -102 callsubr
          endchar
        </CharString>
        <CharString name="uni01D7">
          21 callgsubr
          -79 hlineto
          53 135 -31 callgsubr
          -36 -140 rlineto
          -91 -97 99 hlineto
          87 -90 -99 callsubr
        </CharString>
        <CharString name="uni01D8">
          49 149 758 -99 callgsubr
          -85 -130 -85 callsubr
          17 -730 rmoveto
          107 -62 callsubr
          -102 callsubr
          endchar
        </CharString>
        <CharString name="uni01D9">
          83 157 888 -97 callsubr
          -9 -229 6 callgsubr
          -187 -99 callsubr
        </CharString>
        <CharString name="uni01DA">
          49 140 776 -97 callsubr
          -9 -262 -85 callsubr
          17 -730 rmoveto
          107 -62 callsubr
          -102 callsubr
          endchar
        </CharString>
        <CharString name="uni01DB">
          21 callgsubr
          -83 hlineto
          -36 -38 callsubr
          -111 -5 hlineto
          53 -135 rlineto
          -87 -97 99 hlineto
          87 -90 -99 callsubr
        </CharString>
        <CharString name="uni01DC">
          49 150 758 -90 callsubr
          -31 -265 -85 callsubr
          17 -730 rmoveto
          107 -62 callsubr
          -102 callsubr
          endchar
        </CharString>
        <CharString name="uni01EA">
          80 282 -196 rmoveto
          14 18 1 3 12 hvcurveto
          62 vlineto
          -1 -7 -3 0 -2 hhcurveto
          -30 -7 17 21 46 37 51 26 23 hvcurveto
          49 45 2 94 178 vvcurveto
          275 -5 77 -175 -174 -5 -77 -275 -274 5 -78 174 7 6 0 1 5 vhcurveto
          -24 -33 -16 -37 -35 vvcurveto
          -44 24 -40 69 vhcurveto
          -71 297 -56 callgsubr
        </CharString>
        <CharString name="uni01EB">
          38 190 518 rmoveto
          -147 -14 -53 -210 -211 14 -52 147 hvcurveto
          14 hlineto
          -22 -31 -15 -38 -35 vvcurveto
          -44 23 -40 4 callsubr
          -30 -7 18 21 38 18 45 34 29 hvcurveto
          41 33 5 69 133 vvcurveto
          210 -14 53 -148 vhcurveto
          -48 -263 rmoveto
          153 2 14 46 47 2 -14 -153 -154 -2 -13 -47 -46 -2 13 154 vhcurveto
          endchar
        </CharString>
        <CharString name="uni01F1">
          435 43 hmoveto
          -58 callgsubr
        </CharString>
        <CharString name="uni01F2">
          408 43 hmoveto
          -77 callsubr
          238 -109 rmoveto
          -81 callsubr
          endchar
        </CharString>
        <CharString name="uni01F3">
          382 -79 callgsubr
          272 8 rmoveto
          -81 callsubr
          -226 5 -74 callgsubr
          endchar
        </CharString>
        <CharString name="uni01F4">
          65 161 743 -99 callgsubr
          103 -460 -94 callsubr
          endchar
        </CharString>
        <CharString name="uni01F4.ss01">
          71 164 743 -99 callgsubr
          53 -756 -94 callgsubr
          endchar
        </CharString>
        <CharString name="uni01F5">
          47 146 598 -99 callgsubr
          35 -806 -100 callsubr
        </CharString>
        <CharString name="uni0200">
          79 188 757 -95 callsubr
          57 -757 rmoveto
          -103 callsubr
          endchar
        </CharString>
        <CharString name="uni0200.ss01">
          83 189 757 -95 callsubr
          31 -757 -102 callgsubr
        </CharString>
        <CharString name="uni0201">
          27 161 612 -95 callsubr
          -82 -620 -107 callgsubr
          endchar
        </CharString>
        <CharString name="uni0202">
          79 93 761 -86 callgsubr
          199 -761 rmoveto
          -103 callsubr
          endchar
        </CharString>
        <CharString name="uni0202.ss01">
          83 94 761 -86 callgsubr
          173 -761 -102 callgsubr
        </CharString>
        <CharString name="uni0203">
          27 66 616 -86 callgsubr
          60 -624 -107 callgsubr
          endchar
        </CharString>
        <CharString name="uni0204">
          2 156 757 -95 callsubr
          -160 -757 rmoveto
          -93 callsubr
          endchar
        </CharString>
        <CharString name="uni0205">
          27 161 612 -95 callsubr
          133 -357 -105 callgsubr
          endchar
        </CharString>
        <CharString name="uni0206">
          2 61 761 -86 callgsubr
          -18 -761 rmoveto
          -93 callsubr
          endchar
        </CharString>
        <CharString name="uni0207">
          27 185 681 -44 callsubr
          156 -426 -105 callgsubr
          endchar
        </CharString>
        <CharString name="uni0208">
          -133 81 757 -95 callsubr
          -83 -757 -64 callgsubr
        </CharString>
        <CharString name="uni0209">
          -152 72 612 -95 callsubr
          -80 -612 -64 callsubr
        </CharString>
        <CharString name="uni020A">
          -133 -14 761 -86 callgsubr
          59 -761 -64 callgsubr
        </CharString>
        <CharString name="uni020B">
          -152 -23 616 -86 callgsubr
          62 -616 -64 callsubr
        </CharString>
        <CharString name="uni020C">
          80 187 757 -95 callsubr
          -23 -765 -104 callsubr
          endchar
        </CharString>
        <CharString name="uni020D">
          38 166 612 -95 callsubr
          -23 -620 -103 callgsubr
          endchar
        </CharString>
        <CharString name="uni020E">
          80 92 761 -86 callgsubr
          119 -769 -104 callsubr
          endchar
        </CharString>
        <CharString name="uni020F">
          38 71 616 -86 callgsubr
          119 -624 -103 callgsubr
          endchar
        </CharString>
        <CharString name="uni0210">
          76 185 757 -95 callsubr
          171 -757 rmoveto
          -83 callsubr
        </CharString>
        <CharString name="uni0210.ss01">
          77 186 757 -95 callsubr
          147 -583 -93 callgsubr
          endchar
        </CharString>
        <CharString name="uni0211">
          -72 112 612 -95 callsubr
          -120 -612 rmoveto
          -78 callsubr
          endchar
        </CharString>
        <CharString name="uni0212">
          76 209 826 -44 callsubr
          194 -826 rmoveto
          -83 callsubr
        </CharString>
        <CharString name="uni0212.ss01">
          77 210 826 -44 callsubr
          170 -652 -93 callgsubr
          endchar
        </CharString>
        <CharString name="uni0213">
          -72 17 616 -86 callgsubr
          22 -616 rmoveto
          -78 callsubr
          endchar
        </CharString>
        <CharString name="uni0214">
          83 189 757 -95 callsubr
          31 -69 -99 callsubr
        </CharString>
        <CharString name="uni0215">
          49 172 612 -95 callsubr
          27 -612 rmoveto
          107 -62 callsubr
          -102 callsubr
          endchar
        </CharString>
        <CharString name="uni0216">
          83 94 761 -86 callgsubr
          173 -73 -99 callsubr
        </CharString>
        <CharString name="uni0217">
          49 77 616 -86 callgsubr
          169 -616 rmoveto
          107 -62 callsubr
          -102 callsubr
          endchar
        </CharString>
        <CharString name="uni021A">
          6 114 hmoveto
          -32 callsubr
          1 -798 -87 callgsubr
        </CharString>
        <CharString name="uni021B">
          -85 64 hmoveto
          -45 callsubr
          -2 -635 -87 callgsubr
        </CharString>
        <CharString name="uni0232">
          44 107 784 -68 callgsubr
          26 -888 rmoveto
          -84 callsubr
          endchar
        </CharString>
        <CharString name="uni0232.loclGUA">
          47 282 888 18 callgsubr
          -33 -96 -92 callgsubr
        </CharString>
        <CharString name="uni0233">
          49 109 639 -68 callgsubr
          75 -946 -96 callgsubr
          endchar
        </CharString>
        <CharString name="uni0233.loclGUA">
          18 269 743 18 callgsubr
          85 -129 -87 callsubr
          endchar
        </CharString>
        <CharString name="uni0237">
          -152 -12 -196 -78 callgsubr
        </CharString>
        <CharString name="uni0259">
          27 174 518 rmoveto
          -48 -57 -6 -8 -30 hvcurveto
          -89 vlineto
          3 32 54 4 24 hhcurveto
          75 4 -16 -117 hvcurveto
          -199 -34 hlineto
          -192 3 -71 147 153 9 81 183 184 -9 78 -158 vhcurveto
          6 -430 rmoveto
          -39 -6 10 108 hvcurveto
          5 93 vlineto
          -112 -6 -11 -42 vhcurveto
          endchar
        </CharString>
        <CharString name="uni0272">
          49 -12 -196 rmoveto
          129 35 15 179 hvcurveto
          259 vlineto
          128 0 31 47 40 -44 callgsubr
          -285 -5 callgsubr
          vlineto
          -43 callgsubr
          -38 -17 -53 -15 vhcurveto
          -43 callsubr
          -567 hlineto
          -37 -1 -15 -50 vhcurveto
          endchar
        </CharString>
        <CharString name="uni02BC">
          -192 14 564 -22 callsubr
          63 -118 -93 45 -14 vlineto
          -55 -7 -17 -42 vhcurveto
          endchar
        </CharString>
        <CharString name="uni02C9">
          -73 48 639 -68 callgsubr
          endchar
        </CharString>
        <CharString name="uni0302">
          -250 616 -106 callgsubr
          endchar
        </CharString>
        <CharString name="uni0302.case">
          -250 761 -106 callgsubr
          endchar
        </CharString>
        <CharString name="uni03020300">
          -78 761 -90 callsubr
          -117 -285 -106 callgsubr
          endchar
        </CharString>
        <CharString name="uni03020300.case">
          -78 874 -90 callsubr
          -117 -285 -106 callgsubr
          endchar
        </CharString>
        <CharString name="uni03020301">
          -94 761 -99 callgsubr
          -156 -150 -106 callgsubr
          endchar
        </CharString>
        <CharString name="uni03020301.case">
          -94 875 -99 callgsubr
          -156 -151 -106 callgsubr
          endchar
        </CharString>
        <CharString name="uni03020303">
          13 916 rmoveto
          -107 callsubr
          -263 -300 -106 callgsubr
          endchar
        </CharString>
        <CharString name="uni03020303.case">
          13 1029 rmoveto
          -107 callsubr
          -263 -300 -106 callgsubr
          endchar
        </CharString>
        <CharString name="uni03020309">
          -75 758 rmoveto
          74 hlineto
          23 1 0 -105 callsubr
          -11 hvcurveto
          -79 callsubr
          -175 -165 -106 callgsubr
          endchar
        </CharString>
        <CharString name="uni03020309.case">
          -75 872 rmoveto
          74 hlineto
          23 1 0 -105 callsubr
          -11 hvcurveto
          -79 callsubr
          -175 -166 -106 callgsubr
          endchar
        </CharString>
        <CharString name="uni0304">
          -222 639 -68 callgsubr
          endchar
        </CharString>
        <CharString name="uni0304.case">
          -222 784 -68 callgsubr
          endchar
        </CharString>
        <CharString name="uni0306">
          743 -21 callsubr
        </CharString>
        <CharString name="uni0306.case">
          888 -21 callsubr
        </CharString>
        <CharString name="uni03060300">
          -164 771 -36 callgsubr
        </CharString>
        <CharString name="uni03060300.case">
          -164 916 -36 callgsubr
        </CharString>
        <CharString name="uni03060301">
          -169 771 -40 callsubr
        </CharString>
        <CharString name="uni03060301.case">
          -169 916 -40 callsubr
        </CharString>
        <CharString name="uni03060303">
          20 916 rmoveto
          -107 callsubr
          -20 -173 -100 callgsubr
          endchar
        </CharString>
        <CharString name="uni03060303.case">
          20 1061 rmoveto
          -107 callsubr
          -20 -173 -100 callgsubr
          endchar
        </CharString>
        <CharString name="uni03060309">
          -159 748 rmoveto
          74 hlineto
          23 1 0 -105 callsubr
          -11 hvcurveto
          -79 callsubr
          159 -28 -100 callgsubr
          endchar
        </CharString>
        <CharString name="uni03060309.case">
          -159 893 rmoveto
          74 hlineto
          23 1 0 -105 callsubr
          -11 hvcurveto
          -79 callsubr
          159 -28 -100 callgsubr
          endchar
        </CharString>
        <CharString name="uni0307">
          -102 -30 callgsubr
          endchar
        </CharString>
        <CharString name="uni0307.case">
          -102 -34 callsubr
          endchar
        </CharString>
        <CharString name="uni0308">
          -272 633 -85 callsubr
          endchar
        </CharString>
        <CharString name="uni0308.case">
          -272 778 -85 callsubr
          endchar
        </CharString>
        <CharString name="uni030A">
          -114 613 -90 callgsubr
          endchar
        </CharString>
        <CharString name="uni030A.case">
          -114 728 -90 callgsubr
          endchar
        </CharString>
        <CharString name="uni030B">
          -249 612 -80 callgsubr
          endchar
        </CharString>
        <CharString name="uni030B.case">
          -249 757 -80 callgsubr
          endchar
        </CharString>
        <CharString name="uni030C">
          -183 616 -97 callsubr
          endchar
        </CharString>
        <CharString name="uni030C.case">
          -183 761 -97 callsubr
          endchar
        </CharString>
        <CharString name="uni030F">
          -128 612 -95 callsubr
          endchar
        </CharString>
        <CharString name="uni030F.case">
          -128 757 -95 callsubr
          endchar
        </CharString>
        <CharString name="uni0311">
          -237 616 -86 callgsubr
          endchar
        </CharString>
        <CharString name="uni0311.case">
          -237 761 -86 callgsubr
          endchar
        </CharString>
        <CharString name="uni0312">
          -306 -19 callsubr
          endchar
        </CharString>
        <CharString name="uni031B">
          -172 510 rmoveto
          -48 -54 48 hlineto
          110 14 28 96 hvcurveto
          21 -74 -36 vlineto
          -40 -8 -15 -42 vhcurveto
          endchar
        </CharString>
        <CharString name="uni0326">
          -165 -221 -87 callgsubr
        </CharString>
        <CharString name="uni0327">
          -137 -2 callgsubr
        </CharString>
        <CharString name="uni0328">
          -192 vmoveto
          -35 callsubr
        </CharString>
        <CharString name="uni0335">
          -219 293 rmoveto
          217 110 -217 hlineto
          endchar
        </CharString>
        <CharString name="uni0336">
          -43 479 rmoveto
          109 -350 -109 vlineto
          endchar
        </CharString>
        <CharString name="uni0394">
          -29 callsubr
        </CharString>
        <CharString name="uni03A9">
          -67 callsubr
        </CharString>
        <CharString name="uni03BC">
          -46 callgsubr
        </CharString>
        <CharString name="uni1E0C">
          73 43 hmoveto
          -77 callsubr
          -58 -292 -91 callsubr
        </CharString>
        <CharString name="uni1E0D">
          47 -79 callgsubr
          46 102 -74 callgsubr
          -57 -277 -91 callsubr
        </CharString>
        <CharString name="uni1E24">
          93 272 hmoveto
          -41 callgsubr
          -116 -473 -91 callsubr
        </CharString>
        <CharString name="uni1E25">
          49 243 hmoveto
          -60 callgsubr
          -109 -468 -91 callsubr
        </CharString>
        <CharString name="uni1E44">
          96 170 -34 callsubr
          119 -875 rmoveto
          -82 callgsubr
          endchar
        </CharString>
        <CharString name="uni1E45">
          49 146 -30 callgsubr
          97 -730 rmoveto
          -84 callgsubr
        </CharString>
        <CharString name="uni1E5A">
          -51 callsubr
          -65 -534 -91 callsubr
        </CharString>
        <CharString name="uni1E5A.ss01">
          -59 callsubr
          -64 -538 -91 callsubr
        </CharString>
        <CharString name="uni1E5B">
          -28 callgsubr
          -5 -693 -91 callsubr
        </CharString>
        <CharString name="uni1E62">
          -71 callsubr
          -57 -175 -91 callsubr
        </CharString>
        <CharString name="uni1E63">
          -66 callsubr
          -59 -175 -91 callsubr
        </CharString>
        <CharString name="uni1E6C">
          6 114 hmoveto
          -32 callsubr
          -2 -760 -91 callsubr
        </CharString>
        <CharString name="uni1E6D">
          -85 64 hmoveto
          -45 callsubr
          -5 -597 -91 callsubr
        </CharString>
        <CharString name="uni1E92">
          19 24 hmoveto
          -80 callsubr
          95 -285 -91 callsubr
        </CharString>
        <CharString name="uni1E93">
          -8 26 hmoveto
          -81 callsubr
          80 -272 -91 callsubr
        </CharString>
        <CharString name="uni1E9E">
          154 347 380 rmoveto
          100 203 rlineto
          89 vlineto
          12 -48 -85 12 -68 hhcurveto
          -182 -25 -71 -267 hvcurveto
          -358 120 358 vlineto
          206 6 23 87 24 24 -3 -4 21 vhcurveto
          -95 -197 rlineto
          -89 47 vlineto
          61 18 -15 -86 -83 -19 -9 -66 -13 -25 3 4 -21 hvcurveto
          -99 vlineto
          -10 27 42 -7 29 hhcurveto
          121 46 51 138 139 -47 49 -79 11 hvcurveto
          endchar
        </CharString>
        <CharString name="uni1EA0">
          79 292 hmoveto
          -103 callsubr
          -57 -747 -91 callsubr
        </CharString>
        <CharString name="uni1EA0.ss01">
          83 267 hmoveto
          -106 callsubr
          -116 -615 -91 callsubr
        </CharString>
        <CharString name="uni1EA1">
          27 126 -8 -107 callgsubr
          -46 -277 -91 callsubr
        </CharString>
        <CharString name="uni1EA2">
          79 148 733 rmoveto
          74 hlineto
          22 1 1 -105 callsubr
          -12 hvcurveto
          -11 callgsubr
          144 -755 rmoveto
          -103 callsubr
          endchar
        </CharString>
        <CharString name="uni1EA2.ss01">
          83 149 733 rmoveto
          74 hlineto
          22 1 1 -105 callsubr
          -12 hvcurveto
          -11 callgsubr
          118 -755 -102 callgsubr
        </CharString>
        <CharString name="uni1EA3">
          27 121 614 rmoveto
          74 hlineto
          23 1 0 -105 callsubr
          -11 hvcurveto
          -79 callsubr
          5 -645 -107 callgsubr
          endchar
        </CharString>
        <CharString name="uni1EA4">
          79 244 875 -99 callgsubr
          -156 -151 -106 callgsubr
          204 -736 rmoveto
          -103 callsubr
          endchar
        </CharString>
        <CharString name="uni1EA4.ss01">
          83 245 875 -99 callgsubr
          -156 -151 -106 callgsubr
          178 -736 -102 callgsubr
        </CharString>
        <CharString name="uni1EA5">
          27 217 761 -99 callgsubr
          -156 -150 -106 callgsubr
          65 -631 -107 callgsubr
          endchar
        </CharString>
        <CharString name="uni1EA6">
          79 251 874 -90 callsubr
          -117 -285 -106 callgsubr
          213 -736 rmoveto
          -103 callsubr
          endchar
        </CharString>
        <CharString name="uni1EA6.ss01">
          83 252 874 -90 callsubr
          -117 -285 -106 callgsubr
          187 -736 -102 callgsubr
        </CharString>
        <CharString name="uni1EA7">
          27 224 761 -90 callsubr
          -117 -285 -106 callgsubr
          74 -631 -107 callgsubr
          endchar
        </CharString>
        <CharString name="uni1EA8">
          79 262 872 rmoveto
          74 hlineto
          23 1 0 -105 callsubr
          -11 hvcurveto
          -79 callsubr
          -175 -166 -106 callgsubr
          205 -736 rmoveto
          -103 callsubr
          endchar
        </CharString>
        <CharString name="uni1EA8.ss01">
          83 263 872 rmoveto
          74 hlineto
          23 1 0 -105 callsubr
          -11 hvcurveto
          -79 callsubr
          -175 -166 -106 callgsubr
          179 -736 -102 callgsubr
        </CharString>
        <CharString name="uni1EA9">
          27 235 758 rmoveto
          74 hlineto
          23 1 0 -105 callsubr
          -11 hvcurveto
          -79 callsubr
          -175 -165 -106 callgsubr
          66 -631 -107 callgsubr
          endchar
        </CharString>
        <CharString name="uni1EAA">
          79 348 1029 rmoveto
          -107 callsubr
          -263 -300 -106 callgsubr
          207 -736 rmoveto
          -103 callsubr
          endchar
        </CharString>
        <CharString name="uni1EAA.ss01">
          83 349 1029 rmoveto
          -107 callsubr
          -263 -300 -106 callgsubr
          181 -736 -102 callgsubr
        </CharString>
        <CharString name="uni1EAB">
          27 321 916 rmoveto
          -107 callsubr
          -263 -300 -106 callgsubr
          68 -631 -107 callgsubr
          endchar
        </CharString>
        <CharString name="uni1EAC">
          79 87 761 -106 callgsubr
          205 -768 rmoveto
          -103 callsubr
          -57 -747 -91 callsubr
        </CharString>
        <CharString name="uni1EAC.ss01">
          83 88 761 -106 callgsubr
          179 -768 rmoveto
          -106 callsubr
          -116 -615 -91 callsubr
        </CharString>
        <CharString name="uni1EAD">
          27 60 616 -106 callgsubr
          66 -631 -107 callgsubr
          -46 -277 -91 callsubr
        </CharString>
        <CharString name="uni1EAE">
          79 161 916 -37 callsubr
          -38 -888 rmoveto
          -103 callsubr
          endchar
        </CharString>
        <CharString name="uni1EAE.ss01">
          83 162 916 rmoveto
          92 hlineto
          55 140 rlineto
          5 -111 vlineto
          -36 -140 rlineto
          169 -33 -77 callgsubr
        </CharString>
        <CharString name="uni1EAF">
          27 134 771 -37 callsubr
          -177 -751 -107 callgsubr
          endchar
        </CharString>
        <CharString name="uni1EB0">
          79 166 916 -35 callgsubr
          -38 -888 rmoveto
          -103 callsubr
          endchar
        </CharString>
        <CharString name="uni1EB0.ss01">
          83 167 916 rmoveto
          92 5 hlineto
          -36 140 rlineto
          -111 -5 hlineto
          219 -168 -77 callgsubr
        </CharString>
        <CharString name="uni1EB1">
          27 139 771 -35 callgsubr
          -177 -751 -107 callgsubr
          endchar
        </CharString>
        <CharString name="uni1EB2">
          79 163 893 rmoveto
          74 hlineto
          23 1 0 -105 callsubr
          -11 hvcurveto
          -79 callsubr
          159 -28 -100 callgsubr
          -30 -888 rmoveto
          -103 callsubr
          endchar
        </CharString>
        <CharString name="uni1EB2.ss01">
          83 195 946 rmoveto
          -11 callgsubr
          -7 -57 vlineto
          -77 13 -56 105 -63 callgsubr
          -37 callgsubr
          -39 -1 -26 -45 -39 -5 19 31 -1 vhcurveto
          58 hlineto
          22 1 1 -105 callsubr
          -12 hvcurveto
          18 -250 rmoveto
          -169 -5 -73 -238 hvcurveto
          -385 120 203 108 -203 120 -8 callgsubr
          238 -5 73 -169 vhcurveto
          54 -384 rmoveto
          -108 120 hlineto
          141 3 14 51 51 3 -14 -141 vhcurveto
          endchar
        </CharString>
        <CharString name="uni1EB3">
          27 136 748 rmoveto
          74 hlineto
          23 1 0 -105 callsubr
          -11 hvcurveto
          -79 callsubr
          159 -28 -100 callgsubr
          -169 -751 -107 callgsubr
          endchar
        </CharString>
        <CharString name="uni1EB4">
          79 348 1061 rmoveto
          -107 callsubr
          -20 -173 -100 callgsubr
          -36 -888 rmoveto
          -103 callsubr
          endchar
        </CharString>
        <CharString name="uni1EB4.ss01">
          83 349 1061 rmoveto
          -107 callsubr
          -20 -173 -100 callgsubr
          -62 -48 callsubr
        </CharString>
        <CharString name="uni1EB5">
          27 321 916 rmoveto
          -107 callsubr
          -20 -173 -100 callgsubr
          -175 -751 -107 callgsubr
          endchar
        </CharString>
        <CharString name="uni1EB6">
          79 330 -75 callsubr
          -38 -888 rmoveto
          -103 callsubr
          -57 -747 -91 callsubr
        </CharString>
        <CharString name="uni1EB6.ss01">
          83 331 888 -76 callgsubr
          -116 -615 -91 callsubr
        </CharString>
        <CharString name="uni1EB7">
          27 303 -73 callsubr
          -177 -751 -107 callgsubr
          -46 -277 -91 callsubr
        </CharString>
        <CharString name="uni1EB8">
          2 43 hmoveto
          -93 callsubr
          75 -871 -91 callsubr
        </CharString>
        <CharString name="uni1EB9">
          27 341 255 -105 callgsubr
          -67 -605 -91 callsubr
        </CharString>
        <CharString name="uni1EBA">
          2 116 733 rmoveto
          74 hlineto
          22 1 1 -105 callsubr
          -12 hvcurveto
          -11 callgsubr
          -73 -755 rmoveto
          -93 callsubr
          endchar
        </CharString>
        <CharString name="uni1EBB">
          27 211 722 rmoveto
          -57 callgsubr
          -11 vhcurveto
          -79 callsubr
          -23 74 vlineto
          23 1 0 -104 callgsubr
          hvcurveto
          130 -467 -105 callgsubr
          endchar
        </CharString>
        <CharString name="uni1EBC">
          2 316 888 rmoveto
          -107 callsubr
          -273 -888 rmoveto
          -93 callsubr
          endchar
        </CharString>
        <CharString name="uni1EBD">
          27 133 649 -91 callgsubr
          208 -394 -105 callgsubr
          endchar
        </CharString>
        <CharString name="uni1EBE">
          2 212 875 -99 callgsubr
          -156 -151 -106 callgsubr
          -13 -736 rmoveto
          -93 callsubr
          endchar
        </CharString>
        <CharString name="uni1EBF">
          27 253 906 rmoveto
          -36 -140 rlineto
          -5 92 vlineto
          55 -38 callsubr
          5 vlineto
          -179 -219 -72 callgsubr
          51 -56 callsubr
        </CharString>
        <CharString name="uni1EC0">
          2 219 874 -90 callsubr
          -117 -285 -106 callgsubr
          -4 -736 rmoveto
          -93 callsubr
          endchar
        </CharString>
        <CharString name="uni1EC1">
          27 316 761 -69 callgsubr
          -48 -74 -72 callgsubr
          210 -361 -105 callgsubr
          endchar
        </CharString>
        <CharString name="uni1EC2">
          2 230 872 rmoveto
          74 hlineto
          23 1 0 -105 callsubr
          -11 hvcurveto
          -79 callsubr
          -175 -166 -106 callgsubr
          -12 -736 rmoveto
          -93 callsubr
          endchar
        </CharString>
        <CharString name="uni1EC3">
          27 296 960 rmoveto
          -32 -41 -6 -6 -34 hvcurveto
          -65 vlineto
          1 33 32 1 29 hhcurveto
          34 8 -2 -17 -57 callgsubr
          -11 hvcurveto
          -79 callsubr
          -23 74 vlineto
          23 1 0 42 17 vhcurveto
          11 5 rlineto
          43 19 3 19 43 vvcurveto
          65 -46 11 -67 vhcurveto
          -112 -273 -72 callgsubr
          52 -56 callsubr
        </CharString>
        <CharString name="uni1EC4">
          2 316 1029 rmoveto
          -107 callsubr
          -263 -300 -106 callgsubr
          -10 -736 rmoveto
          -93 callsubr
          endchar
        </CharString>
        <CharString name="uni1EC5">
          27 133 822 -91 callgsubr
          -8 -79 rmoveto
          -67 -120 rlineto
          -7 79 vlineto
          45 71 47 -71 rlineto
          79 7 hlineto
          -68 120 rlineto
          101 -488 -105 callgsubr
          endchar
        </CharString>
        <CharString name="uni1EC6">
          2 55 761 -106 callgsubr
          -12 -768 rmoveto
          -93 callsubr
          75 -871 -91 callsubr
        </CharString>
        <CharString name="uni1EC7">
          27 184 687 -72 callgsubr
          202 -361 -105 callgsubr
          -67 -605 -91 callsubr
        </CharString>
        <CharString name="uni1EC8">
          -133 41 733 rmoveto
          74 hlineto
          22 1 1 -105 callsubr
          -12 hvcurveto
          -11 callgsubr
          4 -755 -64 callgsubr
        </CharString>
        <CharString name="uni1EC9">
          -152 32 614 rmoveto
          74 hlineto
          23 1 0 -105 callsubr
          -11 hvcurveto
          -79 callsubr
          7 -637 -64 callsubr
        </CharString>
        <CharString name="uni1ECA">
          -133 45 hmoveto
          120 688 -120 hlineto
          -2 -871 -91 callsubr
        </CharString>
        <CharString name="uni1ECB">
          -20 callgsubr
          8 -693 -91 callsubr
        </CharString>
        <CharString name="uni1ECC">
          80 211 -8 -104 callsubr
          -62 -284 -91 callsubr
        </CharString>
        <CharString name="uni1ECD">
          38 190 -8 -103 callgsubr
          -62 -271 -91 callsubr
        </CharString>
        <CharString name="uni1ECE">
          80 147 733 rmoveto
          74 hlineto
          22 1 1 -105 callsubr
          -12 hvcurveto
          -11 callgsubr
          64 -763 -104 callsubr
          endchar
        </CharString>
        <CharString name="uni1ECF">
          38 126 614 rmoveto
          74 hlineto
          23 1 0 -105 callsubr
          -11 hvcurveto
          -79 callsubr
          64 -645 -103 callgsubr
          endchar
        </CharString>
        <CharString name="uni1ED0">
          80 243 875 -99 callgsubr
          -156 -151 -106 callgsubr
          124 -744 -104 callsubr
          endchar
        </CharString>
        <CharString name="uni1ED1">
          38 222 761 -99 callgsubr
          -156 -150 -106 callgsubr
          124 -631 -103 callgsubr
          endchar
        </CharString>
        <CharString name="uni1ED2">
          80 250 874 -90 callsubr
          -117 -285 -106 callgsubr
          133 -744 -104 callsubr
          endchar
        </CharString>
        <CharString name="uni1ED3">
          38 229 761 -90 callsubr
          -117 -285 -106 callgsubr
          133 -631 -103 callgsubr
          endchar
        </CharString>
        <CharString name="uni1ED4">
          80 261 872 rmoveto
          74 hlineto
          23 1 0 -105 callsubr
          -11 hvcurveto
          -79 callsubr
          -175 -166 -106 callgsubr
          125 -744 -104 callsubr
          endchar
        </CharString>
        <CharString name="uni1ED5">
          38 240 758 rmoveto
          74 hlineto
          23 1 0 -105 callsubr
          -11 hvcurveto
          -79 callsubr
          -175 -165 -106 callgsubr
          125 -631 -103 callgsubr
          endchar
        </CharString>
        <CharString name="uni1ED6">
          80 347 1029 rmoveto
          -107 callsubr
          -263 -300 -106 callgsubr
          127 -744 -104 callsubr
          endchar
        </CharString>
        <CharString name="uni1ED7">
          38 326 916 rmoveto
          -107 callsubr
          -263 -300 -106 callgsubr
          127 -631 -103 callgsubr
          endchar
        </CharString>
        <CharString name="uni1ED8">
          80 86 761 -106 callgsubr
          125 -776 -104 callsubr
          -62 -284 -91 callsubr
        </CharString>
        <CharString name="uni1ED9">
          38 65 616 -106 callgsubr
          125 -631 -103 callgsubr
          -62 -271 -91 callsubr
        </CharString>
        <CharString name="uni1EDA">
          80 315 883 -72 callsubr
          97 36 -89 callgsubr
        </CharString>
        <CharString name="uni1EDB">
          38 288 738 -72 callsubr
          89 3 -89 callsubr
        </CharString>
        <CharString name="uni1EDC">
          80 258 743 -69 callgsubr
          191 36 -89 callgsubr
        </CharString>
        <CharString name="uni1EDD">
          38 234 598 -69 callgsubr
          180 3 -89 callsubr
        </CharString>
        <CharString name="uni1EDE">
          80 237 841 rmoveto
          -57 callgsubr
          -12 vhcurveto
          -11 callgsubr
          -22 74 vlineto
          22 1 1 -104 callgsubr
          hvcurveto
          120 -62 -89 callgsubr
        </CharString>
        <CharString name="uni1EDF">
          38 216 722 rmoveto
          -57 callgsubr
          -11 vhcurveto
          -79 callsubr
          -23 74 vlineto
          23 1 0 -104 callgsubr
          hvcurveto
          106 -121 -89 callsubr
        </CharString>
        <CharString name="uni1EE0">
          80 159 794 -91 callgsubr
          198 -15 -89 callgsubr
        </CharString>
        <CharString name="uni1EE1">
          38 138 649 -91 callgsubr
          184 -48 -89 callsubr
        </CharString>
        <CharString name="uni1EE2">
          80 357 779 -88 callgsubr
          -62 -284 -91 callsubr
        </CharString>
        <CharString name="uni1EE3">
          38 322 601 -88 callsubr
          -62 -271 -91 callsubr
        </CharString>
        <CharString name="uni1EE4">
          83 267 688 -98 callgsubr
          -236 -871 -91 callsubr
        </CharString>
        <CharString name="uni1EE5">
          49 246 hmoveto
          107 -62 callsubr
          -102 callsubr
          -111 -245 -91 callsubr
        </CharString>
        <CharString name="uni1EE6">
          83 149 733 rmoveto
          74 hlineto
          22 1 1 -105 callsubr
          -12 hvcurveto
          -11 callgsubr
          118 -67 -99 callsubr
        </CharString>
        <CharString name="uni1EE7">
          49 132 614 rmoveto
          74 hlineto
          23 1 0 -105 callsubr
          -11 hvcurveto
          -79 callsubr
          114 -637 rmoveto
          107 -62 callsubr
          -102 callsubr
          endchar
        </CharString>
        <CharString name="uni1EE8">
          83 317 883 -72 callsubr
          111 36 rmoveto
          -36 vlineto
          -40 -8 -15 -42 vhcurveto
          -56 -432 hlineto
          -101 callsubr
          336 vlineto
          -57 callsubr
          endchar
        </CharString>
        <CharString name="uni1EE9">
          49 294 738 -72 callsubr
          100 3 rmoveto
          -36 vlineto
          -40 -8 -15 -42 vhcurveto
          -49 -102 callsubr
          4 -62 rlineto
          107 461 hlineto
          -57 callsubr
          endchar
        </CharString>
        <CharString name="uni1EEA">
          83 260 743 -69 callgsubr
          205 36 rmoveto
          -36 vlineto
          -40 -8 -15 -42 vhcurveto
          -56 -432 hlineto
          -101 callsubr
          336 vlineto
          -57 callsubr
          endchar
        </CharString>
        <CharString name="uni1EEB">
          49 240 598 -69 callgsubr
          191 3 rmoveto
          -36 vlineto
          -40 -8 -15 -42 vhcurveto
          -49 -102 callsubr
          4 -62 rlineto
          107 461 hlineto
          -57 callsubr
          endchar
        </CharString>
        <CharString name="uni1EEC">
          83 239 841 rmoveto
          -57 callgsubr
          -12 vhcurveto
          -11 callgsubr
          -22 74 vlineto
          22 1 1 -104 callgsubr
          hvcurveto
          134 -62 rmoveto
          -36 vlineto
          -40 -8 -15 -42 vhcurveto
          -56 -432 hlineto
          -101 callsubr
          336 vlineto
          -57 callsubr
          endchar
        </CharString>
        <CharString name="uni1EED">
          49 222 722 rmoveto
          -57 callgsubr
          -11 vhcurveto
          -79 callsubr
          -23 74 vlineto
          23 1 0 -104 callgsubr
          hvcurveto
          117 -121 rmoveto
          -36 vlineto
          -40 -8 -15 -42 vhcurveto
          -49 -102 callsubr
          4 -62 rlineto
          107 461 hlineto
          -57 callsubr
          endchar
        </CharString>
        <CharString name="uni1EEE">
          83 161 794 -91 callgsubr
          212 -15 rmoveto
          -36 vlineto
          -40 -8 -15 -42 vhcurveto
          -56 -432 hlineto
          -101 callsubr
          336 vlineto
          -57 callsubr
          endchar
        </CharString>
        <CharString name="uni1EEF">
          49 144 649 -91 callgsubr
          195 -48 rmoveto
          -36 vlineto
          -40 -8 -15 -42 vhcurveto
          -49 -102 callsubr
          4 -62 rlineto
          107 461 hlineto
          -57 callsubr
          endchar
        </CharString>
        <CharString name="uni1EF0">
          83 373 779 rmoveto
          -36 vlineto
          -40 -8 -15 -42 vhcurveto
          -56 -432 hlineto
          -101 callsubr
          336 vlineto
          -57 callsubr
          -296 -962 -91 callsubr
        </CharString>
        <CharString name="uni1EF1">
          49 339 601 rmoveto
          -36 vlineto
          -40 -8 -15 -42 vhcurveto
          -49 -102 callsubr
          4 -62 rlineto
          107 461 hlineto
          -57 callsubr
          -282 -784 -91 callsubr
        </CharString>
        <CharString name="uni1EF4">
          44 133 hmoveto
          -84 callsubr
          -1 -429 -91 callsubr
        </CharString>
        <CharString name="uni1EF4.loclGUA">
          47 249 688 -92 callsubr
          -236 -871 -91 callsubr
        </CharString>
        <CharString name="uni1EF5">
          49 184 -203 -96 callgsubr
          -62 -183 -91 callsubr
        </CharString>
        <CharString name="uni1EF5.loclGUA">
          18 354 510 -87 callsubr
          -136 -377 -91 callsubr
        </CharString>
        <CharString name="uni1EF6">
          44 130 733 rmoveto
          74 hlineto
          22 1 1 -105 callsubr
          -12 hvcurveto
          -11 callgsubr
          3 -755 rmoveto
          -84 callsubr
          endchar
        </CharString>
        <CharString name="uni1EF6.loclGUA">
          47 221 841 rmoveto
          -57 callgsubr
          -12 vhcurveto
          -11 callgsubr
          -22 74 vlineto
          22 1 1 -104 callgsubr
          hvcurveto
          28 -153 -92 callgsubr
        </CharString>
        <CharString name="uni1EF7">
          49 132 614 rmoveto
          74 hlineto
          23 1 0 -105 callsubr
          -11 hvcurveto
          -79 callsubr
          52 -840 -96 callgsubr
          endchar
        </CharString>
        <CharString name="uni1EF7.loclGUA">
          18 208 722 rmoveto
          -57 callgsubr
          -11 vhcurveto
          -79 callsubr
          -23 74 vlineto
          23 1 0 -104 callgsubr
          hvcurveto
          146 -212 -87 callsubr
          endchar
        </CharString>
        <CharString name="uni1EF8">
          44 330 888 rmoveto
          -107 callsubr
          -197 -888 rmoveto
          -84 callsubr
          endchar
        </CharString>
        <CharString name="uni1EF8.loclGUA">
          47 143 794 -91 callgsubr
          106 -106 -92 callgsubr
        </CharString>
        <CharString name="uni1EF9">
          49 332 743 rmoveto
          -107 callsubr
          -148 -946 -96 callgsubr
          endchar
        </CharString>
        <CharString name="uni1EF9.loclGUA">
          18 130 649 -91 callgsubr
          224 -139 -87 callsubr
          endchar
        </CharString>
        <CharString name="uni2002">
          -43 endchar
        </CharString>
        <CharString name="uni20B2">
          70 216 383 rmoveto
          -92 50 -18 vlineto
          -79 -2 -13 -52 -53 -7 9 154 155 10 8 99 23 47 -27 callsubr
          -29 8 -44 8 -37 2 rrcurveto
          81 -85 -83 vlineto
          -116 -13 -27 -61 -195 vvcurveto
          -200 29 -60 114 -10 vhcurveto
          -82 85 82 vlineto
          109 9 13 50 157 vvcurveto
          93 vlineto
          endchar
        </CharString>
        <CharString name="uni20B2.bold">
          70 260 383 rmoveto
          124 1 vlineto
          23 20 callgsubr
          hvcurveto
          101 vlineto
          -29 8 -44 8 -37 2 rrcurveto
          81 -85 -83 vlineto
          -116 -13 -27 -61 -195 vvcurveto
          -200 29 -60 114 -10 vhcurveto
          -82 85 82 vlineto
          109 12 13 65 139 vvcurveto
          93 vlineto
          -230 -39 rmoveto
          86 3 41 20 19 vhcurveto
          -302 vlineto
          -20 12 -3 37 107 vvcurveto
          114 -71 rmoveto
          -36 0 -23 -6 -13 vhcurveto
          90 6 vlineto
          endchar
        </CharString>
        <CharString name="uni2113">
          23 168 228 rmoveto
          106 54 65 110 134 vvcurveto
          95 -32 75 -98 -112 -45 -102 -271 vhcurveto
          -28 vlineto
          -16 -4 -15 -3 -18 -2 rrcurveto
          -103 vlineto
          19 2 17 3 18 5 rrcurveto
          -141 13 41 -59 96 hhcurveto
          33 35 7 15 39 hvcurveto
          116 vlineto
          -20 -43 -27 -8 -20 hhcurveto
          -39 -13 29 96 -4 hvcurveto
          41 359 rmoveto
          19 4 -20 -30 -79 -20 -65 -45 -43 hvcurveto
          200 2 14 37 26 hhcurveto
          endchar
        </CharString>
        <CharString name="uni2116">
          354 552 -25 callsubr
          -263 -397 rmoveto
          -82 callgsubr
          390 71 rmoveto
          0 callsubr
          -103 -256 rmoveto
          207 100 -207 hlineto
          endchar
        </CharString>
        <CharString name="uni2126">
          -67 callsubr
        </CharString>
        <CharString name="uni2153">
          232 -52 callsubr
          -20 -622 rmoveto
          -3 callgsubr
          -48 callgsubr
          endchar
        </CharString>
        <CharString name="uni2154">
          274 227 384 rmoveto
          -110 10 hlineto
          -52 callgsubr
          vlineto
          189 373 rmoveto
          -299 -688 rlineto
          71 hlineto
          298 688 rlineto
          45 -500 rmoveto
          -48 callgsubr
          -3 callgsubr
          endchar
        </CharString>
        <CharString name="uni2206">
          -29 callsubr
        </CharString>
        <CharString name="uniA78B">
          11 callsubr
          167 -108 vlineto
          endchar
        </CharString>
        <CharString name="uniA78C">
          11 callsubr
          222 -108 vlineto
          endchar
        </CharString>
        <CharString name="uniF8FF">
          498 72 hmoveto
          697 698 -697 hlineto
          546 -316 rmoveto
          -66 vlineto
          -100 -72 -81 -124 -125 -73 81 100 vhcurveto
          66 vlineto
          100 73 81 125 124 72 -81 -100 vhcurveto
          -135 -92 rmoveto
          118 vlineto
          33 -27 27 -34 -35 -27 -27 -33 vhcurveto
          -118 vlineto
          -33 27 -27 35 34 27 27 33 vhcurveto
          endchar
        </CharString>
        <CharString name="uogonek">
          49 353 hmoveto
          -62 callsubr
          -256 -51 callgsubr
          123 vhcurveto
          285 -113 -339 -23 callgsubr
          14 -50 87 44 39 17 53 15 vhcurveto
          7 hlineto
          5 -62 rlineto
          26 hlineto
          -34 -30 -28 -39 -45 vvcurveto
          -42 23 -40 70 14 17 1 3 13 vhcurveto
          62 vlineto
          -1 -7 -3 0 -3 hhcurveto
          -29 -8 18 19 39 35 38 20 17 hvcurveto
          endchar
        </CharString>
        <CharString name="uring">
          49 196 613 -90 callgsubr
          50 -673 rmoveto
          107 -62 callsubr
          -102 callsubr
          endchar
        </CharString>
        <CharString name="utilde">
          49 332 743 rmoveto
          -107 callsubr
          -86 -743 rmoveto
          107 -62 callsubr
          -102 callsubr
          endchar
        </CharString>
        <CharString name="v">
          18 103 hmoveto
          155 hlineto
          96 510 -9 callsubr
          -55 -378 rlineto
          -8 hlineto
          -59 378 rlineto
          -113 hlineto
          endchar
        </CharString>
        <CharString name="w">
          214 329 hmoveto
          -81 callgsubr
        </CharString>
        <CharString name="wacute">
          214 232 598 -99 callgsubr
          97 -603 rmoveto
          -81 callgsubr
        </CharString>
        <CharString name="wcircumflex">
          214 156 616 -106 callgsubr
          173 -623 rmoveto
          -81 callgsubr
        </CharString>
        <CharString name="wdieresis">
          214 149 633 -85 callsubr
          15 -730 rmoveto
          -81 callgsubr
        </CharString>
        <CharString name="wgrave">
          214 233 598 -90 callsubr
          151 -738 rmoveto
          -81 callgsubr
        </CharString>
        <CharString name="x">
          24 243 hmoveto
          117 hlineto
          -99 260 96 250 rlineto
          -113 hlineto
          -54 -164 rlineto
          -7 hlineto
          -55 164 rlineto
          -118 hlineto
          97 -254 -100 -256 rlineto
          114 hlineto
          57 175 rlineto
          8 hlineto
          endchar
        </CharString>
        <CharString name="y">
          49 184 -203 -96 callgsubr
          endchar
        </CharString>
        <CharString name="y.loclGUA">
          18 354 510 -87 callsubr
          endchar
        </CharString>
        <CharString name="yacute">
          49 146 598 -99 callgsubr
          38 -806 -96 callgsubr
          endchar
        </CharString>
        <CharString name="yacute.loclGUA">
          18 280 738 -72 callsubr
          129 -88 -87 callsubr
          endchar
        </CharString>
        <CharString name="ycircumflex">
          49 71 616 -106 callgsubr
          113 -826 -96 callgsubr
          endchar
        </CharString>
        <CharString name="ycircumflex.loclGUA">
          18 181 687 -72 callgsubr
          218 -106 -87 callsubr
          endchar
        </CharString>
        <CharString name="ydieresis">
          49 64 633 -85 callsubr
          -45 -933 -96 callgsubr
          endchar
        </CharString>
        <CharString name="ydieresis.loclGUA">
          18 149 730 -16 callgsubr
          40 -123 -87 callsubr
          endchar
        </CharString>
        <CharString name="yen">
          105 164 hmoveto
          120 220 120 65 -110 hlineto
          29 88 rlineto
          81 65 -61 hlineto
          75 250 rlineto
          -117 hlineto
          -69 -307 rlineto
          -9 hlineto
          -73 307 rlineto
          -5 callsubr
          76 -250 rlineto
          -61 -65 80 hlineto
          29 -88 rlineto
          -109 -65 120 hlineto
          endchar
        </CharString>
        <CharString name="yen.bold">
          105 418 688 rmoveto
          -117 hlineto
          -57 -257 rlineto
          -33 hlineto
          -61 257 rlineto
          -5 callsubr
          79 -257 rlineto
          -64 -65 84 hlineto
          27 -88 rlineto
          -111 -65 120 -213 120 213 120 65 -113 hlineto
          27 88 rlineto
          86 65 -66 hlineto
          endchar
        </CharString>
        <CharString name="ygrave">
          49 148 598 -90 callsubr
          91 -941 -96 callgsubr
          endchar
        </CharString>
        <CharString name="ygrave.loclGUA">
          18 226 598 -69 callgsubr
          220 -88 -87 callsubr
          endchar
        </CharString>
        <CharString name="z">
          -8 26 hmoveto
          -81 callsubr
          endchar
        </CharString>
        <CharString name="zacute">
          -8 119 598 -99 callgsubr
          -93 -603 rmoveto
          -81 callsubr
          endchar
        </CharString>
        <CharString name="zacute.loclPLK">
          -8 119 598 rmoveto
          -74 callsubr
          -93 -603 rmoveto
          -81 callsubr
          endchar
        </CharString>
        <CharString name="zcaron">
          -8 115 616 -97 callsubr
          -22 -735 rmoveto
          -81 callsubr
          endchar
        </CharString>
        <CharString name="zdotaccent">
          -8 118 -30 callgsubr
          -92 -730 rmoveto
          -81 callsubr
          endchar
        </CharString>
        <CharString name="zero">
          57 200 1 callsubr
          -3 78 -165 -163 -5 -78 -274 -274 5 -78 163 -42 callgsubr
          -48 -3 6 237 237 3 6 48 47 4 -6 -237 -237 -4 -6 -47 hvcurveto
          endchar
        </CharString>
        <CharString name="zero.dnom">
          -100 123 -4 -45 callgsubr
        </CharString>
        <CharString name="zero.numr">
          -100 123 304 -45 callgsubr
        </CharString>
        <CharString name="zero.tnum">
          60 201 1 callsubr
          -2 78 -166 -162 -5 -78 -274 -274 5 -78 162 -42 callgsubr
          -47 -3 6 237 237 3 6 47 48 3 -6 -237 -237 -3 -6 -48 hvcurveto
          endchar
        </CharString>
        <CharString name="zero.zero">
          60 201 1 callsubr
          -2 78 -166 -162 -5 -78 -274 -274 5 -78 162 hvcurveto
          -52 403 rmoveto
          183 6 9 46 46 6 -9 -183 1 vhcurveto
          -53 -294 rmoveto
          -46 -6 9 184 hvcurveto
          105 hlineto
          -184 -1 -6 -9 -46 hhcurveto
          endchar
        </CharString>
      <CharString index="0">
        rmoveto
        38 39 18 52 12 hvcurveto
        -61 callgsubr
        107 316 hlineto
        153 -33 49 -126 -55 -50 -7 -6 -28 vhcurveto
        -90 vlineto
        3 23 33 4 42 hhcurveto
        73 8 -9 -88 hvcurveto
        -28 vlineto
        2 -22 -37 2 -22 hhcurveto
        -91 -28 -41 -113 -106 24 -49 82 hvcurveto
        43 102 rmoveto
        -36 -5 16 46 56 9 11 33 hvcurveto
        50 -31 hlineto
        -33 -2 -22 -4 -17 vhcurveto
        -23 -8 -17 -3 -20 hhcurveto
        return
      </CharString>
      <CharString index="1">
        rmoveto
        79 hlineto
        45 71 47 -71 rlineto
        79 7 hlineto
        -68 120 rlineto
        -115 hlineto
        -67 -120 rlineto
        return
      </CharString>
      <CharString index="2">
        rmoveto
        192 -3 71 -147 -1 callsubr
        vhcurveto
        -97 callgsubr
        return
      </CharString>
      <CharString index="3">
        42 17 vhcurveto
        11 5 rlineto
        43 19 3 19 43 vvcurveto
        65 -46 11 -67 -32 -41 -6 -6 -34 vhcurveto
        -65 vlineto
        1 33 32 1 29 hhcurveto
        34 8 -2 -17 return
      </CharString>
      <CharString index="4">
        rmoveto
        148 14 52 211 210 -14 53 -148 -147 -14 -53 -210 -211 14 -52 147 hvcurveto
        96 vmoveto
        -46 -2 13 154 153 2 14 46 47 2 -14 -153 -154 -2 -13 -47 hvcurveto
        return
      </CharString>
      <CharString index="5">
        rmoveto
        -106 callsubr
        endchar
      </CharString>
      <CharString index="6">
        -73 hlineto
        -39 -1 -26 -45 -45 0 26 39 -37 callgsubr
        -77 13 -56 105 -63 callgsubr
        vhcurveto
        return
      </CharString>
      <CharString index="7">
        rmoveto
        -101 callgsubr
        return
      </CharString>
      <CharString index="8">
        rmoveto
        92 hlineto
        55 -50 callsubr
        -36 -140 rlineto
        return
      </CharString>
      <CharString index="9">
        rmoveto
        -432 vlineto
        -101 callsubr
        -8 callgsubr
        return
      </CharString>
      <CharString index="10">
        -15 callsubr
        -32 -54 -4 -24 hhcurveto
        -75 -4 16 117 hvcurveto
        199 hlineto
        -151 201 rmoveto
        39 6 -10 -108 hvcurveto
        -5 -93 vlineto
        112 6 11 42 vhcurveto
        return
      </CharString>
      <CharString index="11">
        rmoveto
        159 10 83 182 hvcurveto
        448 -113 -246 -51 callgsubr
        122 vhcurveto
        276 -113 -328 -23 callgsubr
        14 -51 86 46 36 18 50 15 vhcurveto
        7 -43 hlineto
        -112 -3 -22 -79 -34 -36 1 1 -30 vhcurveto
        -90 vlineto
        -5 33 51 -3 42 hhcurveto
        return
      </CharString>
      <CharString index="12">
        rmoveto
        80 29 28 76 64 -19 20 -34 9 hvcurveto
        2 vlineto
        33 9 16 26 56 vvcurveto
        76 -34 22 -71 -72 -33 -22 -76 -56 16 -26 33 -9 vhcurveto
        -2 vlineto
        -34 -9 -18 -20 -64 vvcurveto
        -76 29 -28 79 vhcurveto
        224 vmoveto
        -28 -5 6 46 46 5 8 28 29 4 -8 -46 -46 -4 -6 -29 hvcurveto
        -166 vmoveto
        -28 -6 7 48 49 5 7 29 29 6 -7 -49 -48 -7 -7 -28 hvcurveto
        endchar
      </CharString>
      <CharString index="13">
        rmoveto
        164 2 77 200 hvcurveto
        128 -167 -106 51 -39 vlineto
        -143 -2 -8 -52 -54 -7 12 231 230 10 13 100 22 48 -27 callsubr
        10 -37 -57 9 -41 hhcurveto
        -168 -36 -61 -291 -287 22 -65 163 hvcurveto
        return
      </CharString>
      <CharString index="14">
        rmoveto
        -5 104 -22 21 -45 16 rrcurveto
        4 vlineto
        52 21 28 38 123 vvcurveto
        123 -38 64 -116 vhcurveto
        -191 -688 121 250 34 hlineto
        56 2 -23 -71 5 hvcurveto
        12 -156 rlineto
        118 hlineto
        -179 355 rmoveto
        -48 224 48 hlineto
        51 5 -19 -93 -92 -8 -20 -48 hvcurveto
        return
      </CharString>
      <CharString index="15">
        -92 callsubr
        endchar
      </CharString>
      <CharString index="16">
        rmoveto
        13 15 -7 -6 18 hvcurveto
        -8 23 27 -9 26 hhcurveto
        63 3 43 81 hvcurveto
        -69 hlineto
        -29 -1 -12 -14 -13 -15 6 6 -18 vhcurveto
        8 -22 -27 9 -27 hhcurveto
        -64 -3 -43 -80 hvcurveto
        69 hlineto
        29 1 12 15 vhcurveto
        return
      </CharString>
      <CharString index="17">
        rmoveto
        110 4 34 69 72 -4 33 -110 -110 -5 -33 -72 -69 5 -34 110 hvcurveto
        60 vmoveto
        -38 -1 9 34 35 1 10 38 37 2 -10 -35 -34 -2 -9 -37 hvcurveto
        return
      </CharString>
      <CharString index="18">
        -88 callgsubr
        endchar
      </CharString>
      <CharString index="19">
        rmoveto
        -36 vlineto
        -40 -8 -15 -42 vhcurveto
        -18 hlineto
        6 -21 -26 2 -31 19 callgsubr
        -274 5 -78 174 175 5 78 274 150 -1 92 -30 51 hvcurveto
        62 10 9 33 78 vvcurveto
        21 vlineto
        -220 -678 rmoveto
        -53 -6 6 237 237 6 6 53 54 5 -6 -237 -237 -5 -6 -54 hvcurveto
        return
      </CharString>
      <CharString index="20">
        rmoveto
        -51 vlineto
        108 14 32 114 hvcurveto
        64 -118 -94 44 -14 vlineto
        -39 -7 -12 -41 vhcurveto
        endchar
      </CharString>
      <CharString index="21">
        rmoveto
        73 hlineto
        39 1 26 45 45 0 -26 -39 vhcurveto
        73 hlineto
        77 -13 56 -105 -106 -13 -56 -77 vhcurveto
        return
      </CharString>
      <CharString index="22">
        rmoveto
        100 vlineto
        -4 -19 -29 -3 -23 hhcurveto
        -74 -5 20 223 223 5 20 74 18 29 -3 -4 22 hvcurveto
        101 vlineto
        9 -17 -38 6 -36 hhcurveto
        -154 -23 -78 -274 -274 19 -78 158 31 39 7 9 23 hvcurveto
        endchar
      </CharString>
      <CharString index="23">
        -83 callgsubr
        endchar
      </CharString>
      <CharString index="24">
        -5 callgsubr
        hlineto
        -43 callgsubr
        -38 -17 -53 -15 vhcurveto
        -43 callsubr
        -510 113 256 hlineto
        129 0 31 47 40 -44 callgsubr
        return
      </CharString>
      <CharString index="25">
        107 688 -114 -361 -6 hlineto
        -119 361 rlineto
        -114 -688 115 388 4 hlineto
        return
      </CharString>
      <CharString index="26">
        139 hlineto
        81 510 rlineto
        -106 hlineto
        -42 -363 rlineto
        -7 hlineto
        -57 363 -9 callsubr
        -56 -363 rlineto
        -7 hlineto
        -42 363 -9 callsubr
        81 -510 rlineto
        141 hlineto
        46 299 rlineto
        7 hlineto
        endchar
      </CharString>
      <CharString index="27">
        rmoveto
        76 hlineto
        45 112 rlineto
        5 -93 vlineto
        -28 -113 rlineto
        123 -4 rmoveto
        77 hlineto
        44 112 rlineto
        5 -92 vlineto
        -29 -113 rlineto
        return
      </CharString>
      <CharString index="28">
        144 -8 rmoveto
        36 40 14 55 13 hvcurveto
        7 hlineto
        4 -61 rlineto
        107 743 -113 -289 -7 hlineto
        43 -12 -28 21 -49 hhcurveto
        -92 -21 -61 -202 -212 26 -51 89 hvcurveto
        return
      </CharString>
      <CharString index="29">
        rmoveto
        129 35 15 179 hvcurveto
        512 -113 -567 vlineto
        -37 -1 -15 -50 vhcurveto
        endchar
      </CharString>
      <CharString index="30">
        -76 callgsubr
        endchar
      </CharString>
      <CharString index="31">
        -18 callsubr
        -70 callgsubr
        return
      </CharString>
      <CharString index="32">
        rmoveto
        191 -2 71 -148 -49 -33 -12 -27 -22 vhcurveto
        28 -23 -33 11 -48 hhcurveto
        -55 -49 -7 -6 -29 hvcurveto
        -90 vlineto
        4 32 36 3 30 hhcurveto
        73 8 -9 -88 hvcurveto
        -28 vlineto
        1 -23 -34 2 -24 hhcurveto
        -91 -28 -40 -114 -105 28 -49 100 46 47 10 38 29 hvcurveto
        -35 23 37 -13 57 hhcurveto
        47 56 6 8 33 hvcurveto
        -15 callsubr
        -30 -56 -4 -24 hhcurveto
        -76 -4 16 118 hvcurveto
        199 hlineto
        -151 200 rmoveto
        39 7 -9 -109 hvcurveto
        -4 -94 vlineto
        111 6 11 42 vhcurveto
        -161 -233 rmoveto
        -29 -1 -21 -4 -18 vhcurveto
        -28 -7 -17 -5 -22 hhcurveto
        -36 -5 18 50 55 9 11 32 hvcurveto
        51 hlineto
        endchar
      </CharString>
      <CharString index="33">
        20 callsubr
        153 152 5 9 42 26 13 -8 -40 6 hvcurveto
        4 -24 0 -36 -49 vvcurveto
        -56 0 -36 -4 -31 vhcurveto
        -34 -6 -24 callsubr
        return
      </CharString>
      <CharString index="34">
        rmoveto
        -103 vlineto
        190 1 10 15 282 vvcurveto
        390 -120 -452 vlineto
        -126 -5 -6 -75 -1 vhcurveto
        endchar
      </CharString>
      <CharString index="35">
        rmoveto
        47 -71 rlineto
        79 7 hlineto
        -68 120 rlineto
        -115 hlineto
        -67 -120 rlineto
        -7 79 vlineto
        return
      </CharString>
      <CharString index="36">
        113 414 70 96 -70 67 hlineto
        75 10 6 60 vhcurveto
        85 vlineto
        -153 -30 -14 -181 hvcurveto
        -38 -51 -96 51 vlineto
        return
      </CharString>
      <CharString index="37">
        -888 rmoveto
        -106 callsubr
        return
      </CharString>
      <CharString index="38">
        rmoveto
        5 vlineto
        -36 -38 callsubr
        -111 -5 hlineto
        55 -140 rlineto
        return
      </CharString>
      <CharString index="39">
        rmoveto
        174 104 -174 hlineto
        return
      </CharString>
      <CharString index="40" raw="1">
        1f818805 7283820b  
      </CharString>
      <CharString index="41">
        rmoveto
        21 15 3 28 39 vvcurveto
        72 -4 33 -111 -110 -4 -33 -72 -40 1 -26 23 -16 vhcurveto
        -112 -683 15 callgsubr
        -151 rlineto
        122 hlineto
        -203 810 rmoveto
        38 1 -10 -35 -34 -1 -9 -38 -37 -1 9 34 35 1 10 37 hvcurveto
        -48 -553 rmoveto
        44 307 rlineto
        6 hlineto
        44 -307 rlineto
        endchar
      </CharString>
      <CharString index="42">
        rmoveto
        60 32 15 42 15 hvcurveto
        10 27 3 45 65 vvcurveto
        62 -3 43 -7 27 vhcurveto
        51 -12 -28 11 -57 hhcurveto
        -83 -19 -33 -99 -100 27 -11 49 33 17 11 16 6 hvcurveto
        5 hlineto
        -97 -4 -13 -57 -17 -27 2 4 -21 vhcurveto
        -58 vlineto
        -6 22 32 -4 24 hhcurveto
        15 206 rmoveto
        -27 -6 3 57 55 7 6 26 25 7 -6 -60 -47 -3 -8 -29 hvcurveto
        endchar
      </CharString>
      <CharString index="43">
        rmoveto
        120 688 -120 hlineto
        endchar
      </CharString>
      <CharString index="44">
        106 13 56 77 return
      </CharString>
      <CharString index="45">
        rmoveto
        101 hlineto
        19 51 rlineto
        -3 11 14 -1 16 hhcurveto
        148 14 52 211 114 -4 68 -28 38 hvcurveto
        32 90 rlineto
        -101 hlineto
        -19 -52 rlineto
        4 -12 -13 1 -17 18 callsubr
        -116 4 -67 27 -38 hvcurveto
        130 54 -17 callsubr
      </CharString>
      <CharString index="46">
        7 -40 callgsubr
        return
      </CharString>
      <CharString index="47">
        -5 callgsubr
        hlineto
        -43 callgsubr
        -37 -18 -48 -14 vhcurveto
        -8 291 -113 -743 113 256 hlineto
        129 0 31 47 40 -44 callgsubr
        return
      </CharString>
      <CharString index="48">
        rmoveto
        124 121 -124 hlineto
        39 -696 rmoveto
        39 52 7 8 36 hvcurveto
        101 vlineto
        -4 -30 -31 -3 -18 hhcurveto
        -57 -19 12 61 59 10 12 40 29 hvcurveto
        12 9 rlineto
        30 22 11 17 65 vvcurveto
        92 -104 -55 vlineto
        -51 -1 -7 -29 -23 vhcurveto
        -31 -24 rlineto
        -49 -39 -9 -37 -96 vvcurveto
        -122 64 -33 84 vhcurveto
        endchar
      </CharString>
      <CharString index="49">
        161 hlineto
        175 5 76 268 269 -5 75 -175 hvcurveto
        -161 hlineto
        397 -688 rmoveto
        -80 callsubr
        -278 7 rmoveto
        470 42 vlineto
        55 6 -5 -230 -230 -6 -5 -55 hvcurveto
        endchar
      </CharString>
      <CharString index="50">
        -18 -11 -5 -35 return
      </CharString>
      <CharString index="51">
        rmoveto
        -54 callsubr
      </CharString>
      <CharString index="52">
        71 hlineto
        19 181 15 178 49 vvcurveto
        71 -139 -71 vlineto
        -49 16 -178 18 -181 vhcurveto
        return
      </CharString>
      <CharString index="53">
        73 27 28 78 55 -17 24 -29 11 hvcurveto
        4 vlineto
        28 13 15 25 51 vvcurveto
        80 -32 20 -65 -24 -34 -4 -5 -25 vhcurveto
        -65 vlineto
        3 21 26 2 16 hhcurveto
        34 6 -4 -38 -42 -7 -6 -20 hvcurveto
        -49 -67 49 hlineto
        22 7 -8 -42 -39 -9 -5 -30 -15 -30 3 2 -22 hvcurveto
        return
      </CharString>
      <CharString index="54">
        253 109 -141 hlineto
        -23 184 rlineto
        145 109 -155 hlineto
        -21 177 rlineto
        195 109 -393 hlineto
        -147 -688 rlineto
        120 hlineto
        31 151 rlineto
        120 hlineto
        -38 413 rmoveto
        30 -307 rlineto
        -97 hlineto
        61 307 rlineto
        endchar
      </CharString>
      <CharString index="55">
        44 1 4 14 9 vhcurveto
        52 34 rlineto
        24 15 19 18 71 vvcurveto
        101 -44 6 -52 -25 -36 -4 -5 -26 vhcurveto
        -65 vlineto
        3 34 21 2 14 hhcurveto
        32 7 -5 -38 -26 -6 -10 -15 -10 hvcurveto
        -15 -10 -20 -12 -22 -15 rrcurveto
        -30 -20 -2 -27 -91 vvcurveto
        -48 185 return
      </CharString>
      <CharString index="56">
        -23 callgsubr
        0 -31 -46 -40 -5 8 return
      </CharString>
      <CharString index="57">
        74 43 hmoveto
        161 hlineto
        175 5 76 268 269 -5 75 -175 hvcurveto
        -161 -285 -40 -110 40 hlineto
        161 -184 rmoveto
        -42 184 58 110 -58 176 42 hlineto
        55 6 -5 -230 -230 -6 -5 -55 hvcurveto
        endchar
      </CharString>
      <CharString index="58">
        259 111 -138 577 -5 callsubr
        return
      </CharString>
      <CharString index="59">
        4 vlineto
        28 13 14 25 51 vvcurveto
        80 -32 20 -64 -24 -34 -4 -5 -25 vhcurveto
        -65 vlineto
        3 21 26 2 16 hhcurveto
        34 6 -4 -38 -42 -8 -6 -19 hvcurveto
        -49 -68 49 hlineto
        22 7 -7 -42 -39 -9 -5 -30 -15 -30 3 2 -22 hvcurveto
        return
      </CharString>
      <CharString index="60">
        rmoveto
        123 121 -123 hlineto
        return
      </CharString>
      <CharString index="61">
        52 243 510 rmoveto
        -256 -23 callgsubr
        0 -31 -47 -40 -4 8 123 vhcurveto
        285 -113 -699 113 187 8 vlineto
        44 21 22 42 12 hvcurveto
        8 -40 callgsubr
        107 510 hlineto
        endchar
      </CharString>
      <CharString index="62">
        rmoveto
        100 4 38 156 156 -3 38 -101 -102 -3 -38 -156 -156 3 -38 102 hvcurveto
        62 vmoveto
        -32 -2 4 128 128 2 3 32 30 2 -3 -128 -128 -2 -4 -30 hvcurveto
        endchar
      </CharString>
      <CharString index="63">
        4 -8 -123 vhcurveto
        return
      </CharString>
      <CharString index="64">
        129 -14 50 -86 -45 return
      </CharString>
      <CharString index="65">
        -14 callgsubr
        vmoveto
        return
      </CharString>
      <CharString index="66">
        121 688 -121 -284 -108 284 -121 -688 121 290 108 hlineto
        return
      </CharString>
      <CharString index="67">
        hlineto
        4 -62 rlineto
        return
      </CharString>
      <CharString index="68">
        27 247 hmoveto
        117 hlineto
        -90 267 88 243 rlineto
        -113 hlineto
        -69 -207 rlineto
        -28 return
      </CharString>
      <CharString index="69">
        630 -49 callsubr
        return
      </CharString>
      <CharString index="70">
        vhcurveto
        -73 hlineto
        return
      </CharString>
      <CharString index="71">
        -35 callgsubr
        endchar
      </CharString>
      <CharString index="72">
        -90 callsubr
        219 -168 -100 callgsubr
        return
      </CharString>
      <CharString index="73">
        62 vlineto
        -1 -7 -2 0 -3 hhcurveto
        return
      </CharString>
</ttFont>
